<?xml version="1.0" encoding="UTF-8"?> <svg xmlns="http://www.w3.org/2000/svg" id="Layer_2" data-name="Layer 2" viewBox="0 0 27.73 31.52"><defs><style> .cls-1 { fill: #365baf; stroke-width: 0px; } </style></defs><g id="Layer_1-2" data-name="Layer 1"><g><path class="cls-1" d="m14.96,21.74v-1.07s0-6.27,0-6.27h2.76c.43-.99.75-1.74.83-1.92.95-2.26-2.11-3.43-3.03-1.51-.01.02-.92,2.03-1.14,2.48-.23.47-.84.38-.84-.25V3.07c0-1.75-2.99-1.69-2.99,0v8.95c0,.49-.86.48-.86,0V1.36c0-1.84-2.73-1.79-2.73,0v10.53c0,.48-.83.51-.83.01V2.93c0-1.79-2.76-1.84-2.76,0v9.51c0,.48-.89.49-.89,0v-5.92c0-1.61-2.46-1.71-2.46.08v13.49c0,3.09,1.57,4.86,4.55,4.86h4.92c.36,0,.7-.03,1.02-.08l-3.14-3.14h7.61Z"></path><polygon class="cls-1" points="22.95 23.74 22.95 16.4 16.95 16.4 16.95 23.74 12.18 23.74 19.95 31.52 27.73 23.74 22.95 23.74"></polygon></g></g></svg> 