<?xml version="1.0" encoding="UTF-8"?> <svg xmlns="http://www.w3.org/2000/svg" id="Layer_2" data-name="Layer 2" viewBox="0 0 31.75 31.9"><defs><style> .cls-1 { fill: #365baf; stroke-width: 0px; } </style></defs><g id="Layer_1-2" data-name="Layer 1"><path class="cls-1" d="m16.56,21.07c-.17.35-.33.7-.5,1.05h-1.45c-.19-.36-.37-.72-.56-1.09-.17-.34-.31-.38-.65-.2-.85.45-1.71.89-2.6,1.36.01-.47.13-.89.19-1.31.08-.52.18-1.04.27-1.56.07-.38-.03-.51-.41-.56-.86-.11-1.73-.22-2.59-.33-.07,0-.14-.03-.21-.04,0-.13.1-.17.16-.23.61-.61,1.22-1.22,1.82-1.83.29-.29.29-.41,0-.7-.59-.57-1.17-1.15-1.76-1.72-.08-.08-.19-.13-.22-.29.63-.09,1.25-.19,1.87-.28.28-.04.55-.08.83-.12.41-.06.49-.16.42-.58-.15-.83-.31-1.65-.46-2.48-.02-.11-.06-.22-.02-.37.48.24.95.48,1.41.72.42.21.83.42,1.25.63.34.17.48.12.65-.22.42-.84.84-1.69,1.25-2.54.13.04.14.16.19.25.36.71.71,1.43,1.07,2.15.18.35.31.4.66.21.81-.44,1.62-.88,2.49-1.36-.06.42-.12.78-.17,1.14-.1.63-.2,1.25-.29,1.88-.06.4.02.5.42.56.89.13,1.79.26,2.68.39.07.01.15,0,.2.06,0,.11-.1.15-.16.21-.32.31-.63.62-.95.93h-2.43v6.99c-.59-.31-1.18-.62-1.77-.93-.34-.18-.47-.13-.64.22Zm13.32-.03c.29-.05.56-.13.65-.44.1-.32-.07-.55-.29-.76-.42-.4-.85-.8-1.27-1.2v2.55c.3-.05.61-.1.91-.15Zm-13.81,5.8c-.16.34-.32.67-.48,1.01-.05.11-.07.23-.2.33-.06-.11-.12-.2-.17-.3-.64-1.25-1.29-2.51-1.93-3.76-.03-.06-.06-.09-.09-.14l-.32-.32c-.15-.05-.34,0-.6.14-1.3.68-2.61,1.37-3.91,2.05-.1.05-.2.1-.35.17.13-.76.25-1.48.37-2.19.15-.87.3-1.74.45-2.61.07-.41-.1-.65-.53-.71-1.53-.21-3.06-.41-4.6-.61-.04,0-.08-.01-.12-.02,0-.14.12-.19.2-.27,1.02-1.03,2.05-2.06,3.07-3.09.42-.42.41-.65-.02-1.07-1.01-.99-2.02-1.97-3.04-2.96-.08-.08-.18-.14-.27-.2.02-.03.03-.06.05-.09.63-.09,1.26-.19,1.89-.28.89-.13,1.79-.25,2.68-.39.44-.07.61-.3.53-.74-.28-1.54-.57-3.08-.86-4.62,0-.04,0-.08-.02-.16.12.05.22.09.31.14,1.35.68,2.7,1.37,4.05,2.05.55.28.77.2,1.04-.34.63-1.27,1.26-2.55,1.88-3.82.05-.1.1-.2.16-.3.14.05.15.18.2.27.6,1.22,1.2,2.44,1.81,3.65.26.52.5.6,1.02.32,1.24-.68,2.48-1.35,3.71-2.03.1-.05.19-.14.33-.13-.14.88-.27,1.74-.41,2.61-.12.78-.24,1.56-.36,2.34-.06.42.11.65.54.71,1.55.23,3.1.45,4.65.68.08.01.17,0,.23.07-.04.12-.14.18-.22.26-.79.77-1.58,1.54-2.37,2.31h2.81c1.04-1,2.07-2.01,3.1-3.02.2-.2.32-.42.24-.7-.09-.28-.3-.39-.59-.43-1.97-.28-3.94-.58-5.91-.85-.28-.04-.35-.1-.3-.4.33-1.98.62-3.96.93-5.93.05-.31,0-.58-.29-.76-.26-.15-.5-.05-.73.08-1.65.9-3.3,1.79-4.94,2.7-.21.12-.3.09-.4-.13-.78-1.6-1.58-3.2-2.36-4.8-.11-.23-.25-.43-.48-.55h-.37c-.23.12-.36.32-.48.55-.83,1.69-1.67,3.38-2.5,5.08-.1.21-.17.25-.39.13-.6-.33-1.22-.62-1.83-.93-1.19-.6-2.39-1.21-3.58-1.81-.39-.2-.72-.12-.9.18-.12.21-.07.42-.03.64.35,1.89.7,3.77,1.06,5.66.05.23,0,.31-.23.34-.63.08-1.25.17-1.88.27-1.26.18-2.53.37-3.79.56-.4.06-.62.35-.55.72.04.2.18.32.31.45,1.35,1.31,2.69,2.63,4.04,3.93.18.17.2.26.01.45-1.34,1.33-2.67,2.68-4,4.01-.24.24-.47.47-.33.84.13.37.47.4.8.43.02,0,.04,0,.06,0,1.82.23,3.64.47,5.46.7.26.03.31.13.26.37-.25,1.38-.48,2.76-.72,4.14-.1.57-.21,1.14-.28,1.72-.05.42.22.7.61.68.16,0,.3-.08.43-.16,1.72-.9,3.44-1.8,5.15-2.71.25-.13.34-.09.45.15.13.31.31.61.46.92.71,1.38,1.42,2.77,2.13,4.15.19.36.47.51.77.41.24-.08.35-.28.45-.49.49-1.03.97-2.06,1.46-3.09l-1.47-1.47Zm4.9-2.71v-7.33s6,0,6,0v7.33s4.78,0,4.78,0l-7.78,7.78-7.78-7.78s4.78,0,4.78,0Z"></path></g></svg> 