<?xml version="1.0" encoding="utf-8"?>
<!-- Generator: Adobe Illustrator 26.3.1, SVG Export Plug-In . SVG Version: 6.00 Build 0)  -->
<svg version="1.1" id="Calque_1" xmlns="http://www.w3.org/2000/svg" xmlns:xlink="http://www.w3.org/1999/xlink" x="0px" y="0px"
	 viewBox="0 0 1565 681" style="enable-background:new 0 0 1565 681;" xml:space="preserve">
<style type="text/css">
	.st0{fill:#FFFFFF;}
</style>
<g>
	<g>
		<g>
			<polygon class="st0" points="251.6,128.7 251.6,128.7 92.6,185.5 92.6,245.4 257.9,186.4 257.9,138.9 257.9,132.3 257.9,126.5 
							"/>
			<polygon class="st0" points="257.9,292.9 257.9,352.7 92.6,411.7 92.6,351.8 			"/>
			<polygon class="st0" points="257.9,376 257.9,435.9 92.6,494.8 92.6,435 			"/>
			<path class="st0" d="M189.5,483.5v59.8l-24.8,8.9c-29.4,10.5-61.6-4.8-72.1-34.1L189.5,483.5z"/>
			<path class="st0" d="M257.9,209.6v59.8l-24.8,8.9c-29.4,10.5-61.6-4.8-72.1-34.1L257.9,209.6z"/>
		</g>
	</g>
	<path class="st0" d="M763.6,253.3c10.4,0,18.9-3.7,25.7-10c0.2-0.2,0.4-0.3,0.6-0.5h1.6v10.5h16.9V127h-20.1v42.7
		c-3.8-2.6-7.8-4.5-11.9-5.7c-1.6-0.5-3.2-0.8-4.9-1.1v0c-2.5-0.4-5.1-0.7-7.7-0.7c-24.2,0-44,19.7-44,44v3.2
		C719.6,233.6,739.3,253.3,763.6,253.3z M738.3,206.1c0-14,11.4-25.3,25.3-25.3c11.9,0,21.9,8.2,24.6,19.2c0.5,2,0.7,4,0.7,6.1v3.2
		c0,2.1-0.3,4.1-0.7,6.1c-2.7,11-12.7,19.2-24.6,19.2c-14,0-25.3-11.4-25.3-25.3V206.1z"/>
	<rect x="1355" y="291.7" class="st0" width="20.1" height="16.7"/>
	<path class="st0" d="M1185,162.1c-14.5,0-25.4,4.1-32.5,12.2c-7.1,8.1-10.7,19.2-10.7,33.2c0,15.5,4.2,27,12.6,34.5
		c8.4,7.5,20.2,11.3,35.4,11.3c5.8,0,11.2-0.4,16.3-1.3c5.1-0.9,9.6-2.2,13.6-3.9v-14.8c-3.4,1.4-7.5,2.5-12.2,3.3
		c-4.7,0.9-9.2,1.3-13.7,1.3c-10.6,0-18.5-1.6-23.6-4.8c-5.2-3.2-8.2-9-9.2-17.5h64.1v-16.2c0-11-3.4-19.9-10.1-26.9
		C1208.3,165.6,1198.3,162.1,1185,162.1z M1207.3,202.5H1161c0-8.7,1.8-15.1,5.3-19.2c3.5-4.1,9.9-6.1,19.3-6.1
		c7.9,0,13.5,1.7,16.8,5.1c3.3,3.4,5,8.1,5,14.1V202.5z"/>
	<rect x="352.2" y="292.2" class="st0" width="20.1" height="125.9"/>
	<path class="st0" d="M1275.9,326.9c-12.3,0.3-21.7,2.8-28,7.5c-6.7,5.1-10.1,13.2-10.1,24.4c0,6,1.2,11.2,3.6,15.5
		c2.4,4.3,6.1,7.7,11.2,10.2c-4.5,1.6-7.9,3.9-10,7c-2.1,3.1-3.1,6.4-3.1,10c0,11.2,7.9,16.8,23.8,16.8h23.6c5.5,0,9.3,0.5,11.3,1.6
		c2,1,3,2.9,3,5.4c0,3.4-2,5.7-6.1,6.6c-4.1,1-10.5,1.5-19.4,1.5c-5.8,0-11.9-0.4-18.3-1.3c-6.4-0.9-12.1-2.1-17-3.7v15.5
		c4.6,1.6,10.1,2.8,16.6,3.6c6.5,0.8,13,1.2,19.6,1.2c13.9,0,24.6-1.9,32-5.6c7.4-3.8,11.2-9.9,11.2-18.6c0-7.1-2.4-12.6-7.1-16.3
		c-4.7-3.8-11.5-5.6-20.2-5.6h-24.6c-3.5,0-5.9-0.4-7.4-1.2c-1.5-0.8-2.2-2.1-2.2-4c0-2.7,1.5-4.9,4.4-6.5c3-1.6,6.3-2.6,10-3
		c2,0.3,3.8,0.5,5.4,0.7c1.7,0.2,3.5,0.3,5.4,0.3c11.4,0,20-2.7,25.7-8c5.7-5.3,8.5-12.7,8.5-22.1c0-0.2,0-0.5,0-0.7h0
		c-0.1-6.3-1.2-11.6-3.5-15.9h8.2l1.8-15.3h-46.8C1277,326.8,1276.4,326.8,1275.9,326.9z M1278.7,339.6c4.7,0,8.5,0.6,11.4,1.7
		c0.7,0.3,1.3,0.5,1.9,0.9c1,0.5,1.9,1.2,2.6,1.8c3.1,2.9,4.7,7.6,4.7,14v0.2c0,6.5-1.6,11.1-4.7,13.8c-3.1,2.7-8.7,4.1-16.7,4.1
		c-7.9,0-13.4-1.4-16.7-4.2c-3.3-2.8-4.9-7.4-4.9-13.7c0-6.8,1.7-11.6,5.2-14.4c3.4-2.8,8.8-4.2,16.2-4.2
		C1278.1,339.6,1278.4,339.6,1278.7,339.6z"/>
	<path class="st0" d="M1472.4,364.1c0-11-3.4-19.9-10.1-26.9c-6.7-7-16.7-10.4-30-10.4c-14.5,0-25.4,4.1-32.5,12.2
		c-7.1,8.1-10.7,19.2-10.7,33.2c0,15.5,4.2,27,12.6,34.5c8.4,7.5,20.2,11.3,35.4,11.3c5.8,0,11.2-0.4,16.3-1.3
		c5.1-0.9,9.6-2.2,13.6-3.9v-14.8c-3.4,1.4-7.5,2.5-12.2,3.3c-4.7,0.9-9.2,1.3-13.7,1.3c-10.6,0-18.5-1.6-23.6-4.8
		c-5.2-3.2-8.2-9-9.2-17.5h64.1V364.1z M1454.7,367.3h-46.3c0-8.7,1.8-15.1,5.3-19.2c3.5-4.1,9.9-6.1,19.3-6.1
		c7.9,0,13.5,1.7,16.8,5.1c3.3,3.4,5,8.1,5,14.1V367.3z"/>
	<path class="st0" d="M661.6,162.2c-24.2,0-44,19.7-44,44v3.2c0,24.2,19.7,44,44,44c24.2,0,44-19.7,44-44v-3.2
		C705.6,181.9,685.9,162.2,661.6,162.2z M686.9,209.3c0,14-11.4,25.3-25.3,25.3c-14,0-25.3-11.4-25.3-25.3v-3.2
		c0-14,11.4-25.3,25.3-25.3c14,0,25.3,11.4,25.3,25.3V209.3z"/>
	<path class="st0" d="M911.2,206.1c0-24.2-19.7-44-44-44c-24.2,0-44,19.7-44,44v3.2c0,24.2,19.7,44,44,44c24.2,0,44-19.7,44-44
		V206.1z M892.5,209.3c0,14-11.4,25.3-25.3,25.3c-14,0-25.3-11.4-25.3-25.3v-3.2c0-14,11.4-25.3,25.3-25.3c14,0,25.3,11.4,25.3,25.3
		V209.3z"/>
	<path class="st0" d="M1023,326.4c-24.2,0-44,19.7-44,44v3.2c0,24.2,19.7,44,44,44c24.2,0,44-19.7,44-44v-3.2
		C1067,346.2,1047.3,326.4,1023,326.4z M1048.3,373.6c0,14-11.4,25.3-25.3,25.3c-14,0-25.3-11.4-25.3-25.3v-3.2
		c0-14,11.4-25.3,25.3-25.3c14,0,25.3,11.4,25.3,25.3V373.6z"/>
	<path class="st0" d="M1180.3,326.4c-24.2,0-44,19.7-44,44v3.2c0,24.2,19.7,44,44,44c24.2,0,44-19.7,44-44v-3.2
		C1224.2,346.2,1204.5,326.4,1180.3,326.4z M1205.6,373.6c0,14-11.4,25.3-25.3,25.3c-14,0-25.3-11.4-25.3-25.3v-3.2
		c0-14,11.4-25.3,25.3-25.3c14,0,25.3,11.4,25.3,25.3V373.6z"/>
	<path class="st0" d="M372.3,248.8v-5.8v-37.2h32.1c12.4,0,22.3-3.6,29.6-10.7c7.3-7.1,11-16.6,11-28.4c0-7.6-1.4-14.4-4.2-20.4
		c-2.8-6-7.2-10.7-13.1-14.1c-5.9-3.4-13.4-5.2-22.5-5.2h-53v116v5.8v4.5h20.1V248.8z M372.3,142.7h29.4c7.8,0,13.6,2.1,17.4,6.3
		c3.9,4.2,5.8,10.1,5.8,17.7c0,7.1-2,12.8-6.1,17c-4.1,4.2-10.1,6.3-18.1,6.3h-28.4V142.7z"/>
	<path class="st0" d="M1105.5,399.7c-2.3-2-3.5-5.6-3.5-10.6v-97.1L1082,298V390c0,0.5,0,1.1,0,1.6c0.1,2.1,0.3,4.1,0.6,6
		c0,0.1,0,0.1,0,0.2c1,5.1,3.1,9.4,6.2,12.9c3.2,3.5,7.5,5.7,13,6.8c2.4,0.5,5.1,0.7,7.9,0.7h14v-15.3h-7
		C1111.6,402.7,1107.8,401.7,1105.5,399.7z"/>
	<path class="st0" d="M678.2,399.7c-2.3-2-3.5-5.6-3.5-10.6v-97.1l-19.9,6.1V390c0,0.5,0,1.1,0,1.6c0.1,2.1,0.3,4.1,0.6,6
		c0,0.1,0,0.1,0,0.2c1,5.1,3.1,9.4,6.2,12.9c3.2,3.5,7.5,5.7,13,6.8c2.4,0.5,5.1,0.7,7.9,0.7h14v-15.3h-7
		C684.3,402.7,680.5,401.7,678.2,399.7z"/>
	<polygon class="st0" points="1341.7,342.2 1355,342.2 1355,394.2 1355,404.2 1355,414.3 1355,416.2 1355,418 1375.1,418 
		1375.1,416.2 1375.1,414.3 1375.1,404.2 1375.1,394.2 1375.1,326.8 1343.5,326.8 	"/>
	<rect x="1106.9" y="127" class="st0" width="20.1" height="16.7"/>
	<polygon class="st0" points="1093.6,177.4 1106.9,177.4 1106.9,229.4 1106.9,239.5 1106.9,249.6 1106.9,251.5 1106.9,253.3 
		1127,253.3 1127,251.5 1127,249.6 1127,239.5 1127,229.4 1127,162.1 1095.5,162.1 	"/>
	<path class="st0" d="M963.1,342.2l1.8-15.3h-22v-34.9L923,298v28.8h-12.9v15.3H923V390c0,0.5,0,1.1,0,1.6c0.1,2.1,0.3,4.1,0.6,6
		c0,0.1,0,0.1,0,0.2c1,5.1,3.1,9.4,6.2,12.9c3.2,3.5,7.5,5.7,13,6.8c2.4,0.5,5.1,0.7,7.9,0.7h14v-15.3h-7c-5.3,0-9.1-1-11.4-3
		c-2.3-2-3.5-5.6-3.5-10.6v-46.9H963.1z"/>
	<path class="st0" d="M1076.9,177.4l1.8-15.3h-22v-34.9l-19.9,6.1v28.8h-12.9v15.3h12.9v47.8c0,0.5,0,1.1,0,1.6
		c0.1,2.1,0.3,4.1,0.6,6c0,0.1,0,0.1,0,0.2c1,5.1,3.1,9.4,6.2,12.9c3.2,3.5,7.5,5.7,13,6.8c2.4,0.5,5.1,0.7,7.9,0.7h14V238h-7
		c-5.3,0-9.1-1-11.4-3c-2.3-2-3.5-5.6-3.5-10.6v-46.9H1076.9z"/>
	<path class="st0" d="M469.6,250.3c4.7,2,9.9,3,15.4,3c7.9,0,14.4-0.9,19.7-2.8c5.2-1.8,9.6-4.5,13.2-7.9h1.6v10.7h16.9v-1.8V247
		v-51.9c0-11.7-3.4-20.1-10.1-25.3c-6.7-5.2-16.5-7.8-29.3-7.8c-6.5,0-12.6,0.5-18.3,1.5c-5.7,1-10.5,2.3-14.4,3.9v15
		c9-3.1,18.6-4.6,29-4.6c6.5,0,11.5,0.6,14.9,1.7c3.4,1.1,5.7,2.9,7,5.4c1.3,2.5,1.9,5.8,1.9,10v3.9h-28.1
		c-11.9,0-20.8,2.6-26.5,7.7c-5.7,5.1-8.6,11.8-8.6,20.2c0,5.9,1.4,10.9,4.2,14.9C461.1,245.4,464.9,248.4,469.6,250.3z
		 M476.6,215.7c2.6-2.3,6.9-3.4,12.8-3.4h27.7v15.3c-2.8,3.4-6.5,6.2-11,8.2c-4.5,2-9.8,3-15.8,3c-5.7,0-10-1-13.1-3
		c-3.1-2-4.6-5.2-4.6-9.8C472.7,221.5,474,218,476.6,215.7z"/>
	<path class="st0" d="M578.2,202.7c0-1,0.1-2.5,0.4-3.9c0.8-2.9,1.9-5.6,3.5-8c1.8-2.8,4.2-5.3,7.3-7.2c3.3-2.1,6.8-3.4,10.7-3.7
		c3.9-0.4,7.4-0.1,10.6,0.7v-17.7c-3-0.5-6-0.7-9.2-0.5c-3.2,0.2-6.3,0.8-9.4,1.8c-3.1,1-5.8,2.4-8.3,4.2c-2.4,1.6-4.5,3.6-6.4,6
		h-1.4v-12.2h-18v3.7v5.7v81.8h20.1V202.7z"/>
	<path class="st0" d="M989.5,195.7v42.9v12.8v1.8h19.9v-1.8v-12.8v-43.8c0-11.2-2.6-19.4-7.8-24.7c-5.2-5.3-13.4-7.9-24.7-7.9
		c-6.6,0-12.7,1.1-18.2,3.2c-5.5,2.2-10.2,4.8-14.1,7.8h-1.1v-11.1h-18.3v1.8v6v72.2v9.3v1.8h20.1v-1.8v-9.3v-54.8
		c3-3,6.6-5.4,11-7.2c4.4-1.8,8.8-2.8,13.4-2.8c7.6,0,12.8,1.4,15.6,4.1C988.1,184.2,989.5,188.9,989.5,195.7z"/>
	<path class="st0" d="M509.9,416.2v1.8h19.8v-1.8v-4.7v-53.1c0-10.7-2.4-18.6-7.2-23.8c-4.8-5.2-12.2-7.8-22.3-7.8
		c-7.4,0-13.7,1.1-19,3.2c-5.3,2.2-10,4.9-14,8.2c-1.8-3.6-4.5-6.4-8-8.4c-3.5-2-8.4-3-14.7-3c-5.9,0-11.4,1-16.6,3
		c-5.2,2-9.9,4.7-14.2,8.1h-1.1v-11.1h-18.3v1.8v4.8v74.4v8.3v1.8h19.8v-1.8v-8.3v-55.4c3.1-2.8,6.6-5.3,10.4-7.3c3.9-2,8-3,12.3-3
		c6.2,0,10.3,1.5,12.6,4.4c2.2,3,3.3,7.6,3.3,14v49.2v6.4v1.8h18.6v-1.8v-6.4v-43.3v-6.4v-10c2.5-2.5,5.4-4.4,8.8-5.7
		c3.8-1.5,7.7-2.2,11.9-2.2c6.4,0,11,1.4,13.8,4.1c2.8,2.7,4.2,7.4,4.2,14.2v51.1V416.2z"/>
	<path class="st0" d="M793.4,418v-1.8v-5.7v-50.6c0-11.7-3.4-20.1-10.1-25.3c-6.7-5.2-16.5-7.8-29.3-7.8c-6.5,0-12.6,0.5-18.3,1.5
		c-5.7,1-10.5,2.3-14.4,3.9v15c9-3.1,18.6-4.6,29-4.6c6.5,0,11.5,0.6,14.9,1.7c3.4,1.1,5.7,2.9,7,5.4c1.3,2.5,1.9,5.8,1.9,10v3.9
		h-28.1c-11.9,0-20.8,2.6-26.5,7.7c-5.7,5.1-8.6,11.8-8.6,20.2c0,5.9,1.4,10.9,4.2,14.9c2.8,4,6.6,7,11.4,9c4.7,2,9.9,3,15.4,3
		c7.9,0,14.4-0.9,19.7-2.8c5.2-1.8,9.6-4.5,13.2-7.9h1.6V418H793.4z M774.2,392.4c-2.8,3.4-6.5,6.2-11,8.2c-4.5,2-9.8,3-15.8,3
		c-5.7,0-10-1-13.1-3c-3.1-2-4.6-5.2-4.6-9.8c0-4.7,1.3-8.2,4-10.4c2.6-2.3,6.9-3.4,12.8-3.4h27.7V392.4z"/>
	<path class="st0" d="M863.9,326.4c-6.6,0-12.7,1.1-18.2,3.2c-5.5,2.2-10.2,4.8-14.1,7.8h-1.1v-11.1h-18.3v1.8v6v72.2v9.3v1.8h20.1
		v-1.8v-9.3v-54.8c3-3,6.6-5.4,11-7.2c4.4-1.8,8.8-2.8,13.4-2.8c7.6,0,12.8,1.4,15.6,4.1c2.8,2.7,4.2,7.4,4.2,14.2v42.9v12.8v1.8
		h19.9v-1.8v-12.8V359c0-11.2-2.6-19.4-7.8-24.7C883.5,329,875.3,326.4,863.9,326.4z"/>
	<path class="st0" d="M595.4,326.8c-10.4,0-18.9,3.7-25.7,10c-0.2,0.2-0.4,0.3-0.6,0.5h-1.6v-10.5h-16.9v118.4v7.8v2.9h20.1v-2.9
		v-7.8v-34.8c3.8,2.6,7.8,4.5,11.9,5.7c1.6,0.5,3.2,0.8,4.9,1.1v0c2.5,0.4,5.1,0.7,7.7,0.7c24.2,0,44-19.7,44-44v-3.2
		C639.4,346.6,619.6,326.8,595.4,326.8z M620.7,374c0,14-11.4,25.3-25.3,25.3c-11.9,0-21.9-8.2-24.6-19.2c-0.5-2-0.7-4-0.7-6.1v-3.2
		c0-2.1,0.3-4.1,0.7-6.1c2.7-11,12.7-19.2,24.6-19.2c14,0,25.3,11.4,25.3,25.3V374z"/>
	<polygon class="st0" points="366.9,500.8 358.1,500.8 358.1,554.7 364.2,554.7 366.9,554.7 392.4,554.7 392.4,546.6 366.9,546.6 	
		"/>
	<path class="st0" d="M423.6,500.8l-22.2,53.9h9.4l4.1-10.4h23.2l4.1,10.4h9.6l-22-53.9H423.6z M418.1,536.6l8.6-21.5l8.5,21.5
		H418.1z"/>
	<polygon class="st0" points="500.4,538 471.9,500.8 465.7,500.8 465.7,554.7 474.6,554.7 474.6,517.5 503.1,554.7 509.3,554.7 
		509.3,500.8 500.4,500.8 	"/>
	<path class="st0" d="M545.9,500.8l-22.2,53.9h9.4l4.1-10.4h23.2l4.1,10.4h9.6l-22-53.9H545.9z M540.4,536.6l8.6-21.5l8.5,21.5
		H540.4z"/>
	<path class="st0" d="M620.6,534.2c0,2.6-0.5,4.8-1.6,6.7s-2.5,3.4-4.4,4.5c-1.8,1.1-4,1.6-6.4,1.6c-2.4,0-4.5-0.5-6.4-1.6
		c-1.9-1.1-3.4-2.5-4.5-4.5s-1.7-4.2-1.7-6.8v-33.4h-8.9v33.4c0,4.1,0.9,7.7,2.8,10.9c1.9,3.2,4.4,5.7,7.7,7.6
		c3.2,1.8,6.9,2.8,10.9,2.8c4.1,0,7.8-0.9,10.9-2.8c3.2-1.8,5.7-4.4,7.6-7.6c1.9-3.2,2.8-6.8,2.8-10.9v-33.5h-8.9V534.2z"/>
	<path class="st0" d="M687.4,508.5c-2.5-2.4-5.4-4.3-8.7-5.7c-3.3-1.4-7-2-10.9-2h-11.6h-2.8h-6.1v53.9h6.1h2.8H668
		c3.9,0,7.4-0.7,10.8-2c3.3-1.4,6.2-3.3,8.7-5.7c2.5-2.4,4.4-5.3,5.8-8.6c1.4-3.3,2.1-6.8,2.1-10.6c0-3.9-0.7-7.4-2.1-10.7
		C691.9,513.8,689.9,511,687.4,508.5z M683.9,537.6c-1.6,2.9-3.8,5.1-6.5,6.7c-2.8,1.6-6,2.4-9.7,2.4h-11.4v-37.8h11.4
		c3.6,0,6.9,0.8,9.7,2.4c2.8,1.6,5,3.8,6.6,6.6c1.6,2.8,2.4,6.1,2.4,9.8C686.2,531.4,685.5,534.7,683.9,537.6z"/>
	<rect x="711.1" y="500.8" class="st0" width="8.9" height="53.9"/>
	<polygon class="st0" points="754,479.8 747.4,486.4 760,496.2 763.8,492.4 	"/>
	<polygon class="st0" points="747.3,531.1 772.2,531.1 772.2,523.3 747.3,523.3 747.3,508.9 774.4,508.9 774.4,500.8 747.3,500.8 
		744.6,500.8 738.5,500.8 738.5,554.7 744.6,554.7 747.3,554.7 774.8,554.7 774.8,546.6 747.3,546.6 	"/>
	<path class="st0" d="M819.8,529.9c2.6-1.3,4.6-3.1,6-5.4c1.4-2.3,2.1-5,2.1-8.2c0-3-0.7-5.6-2.1-8c-1.4-2.3-3.4-4.2-6-5.5
		c-2.6-1.4-5.5-2-8.9-2h-11.3h-2.8h-6.1v53.9h8.9v-22.9h2.3l18.4,22.9h11.2l-18.9-23C815.3,531.6,817.7,531,819.8,529.9z
		 M799.6,508.5h10.9c2.7,0,4.8,0.8,6.3,2.3c1.5,1.5,2.2,3.4,2.2,5.7c0,2.5-0.8,4.5-2.3,5.9c-1.5,1.4-3.6,2.1-6.4,2.1h-10.9V508.5z"
		/>
	<polygon class="st0" points="853.7,531.1 878.5,531.1 878.5,523.3 853.7,523.3 853.7,508.9 880.7,508.9 880.7,500.8 853.7,500.8 
		850.9,500.8 844.8,500.8 844.8,554.7 850.9,554.7 853.7,554.7 881.1,554.7 881.1,546.6 853.7,546.6 	"/>
</g>
</svg>
