<svg width="34" height="34" viewBox="0 0 34 34" fill="none" xmlns="http://www.w3.org/2000/svg">
<path d="M7.72709 20.0933L6.36396 20.6676C5.53491 18.2632 5.54293 15.6403 6.40031 13.2302C7.25769 10.8201 8.90793 8.78142 11.0692 7.44078L11.7634 8.74693C9.92659 9.91214 8.52421 11.6618 7.79036 13.7247C7.0565 15.7876 7.03882 18.0298 7.72709 20.0933Z" stroke="#2ED8FF" stroke-width="1.5"/>
<path d="M11.5598 26.8478C9.86905 25.9144 8.45091 24.5635 7.43728 22.9294L8.74344 22.2352C9.62032 23.6176 10.8328 24.7612 12.2729 25.5563C13.9326 26.4726 15.823 26.8865 17.7138 26.7476C19.6046 26.6086 21.4141 25.9228 22.922 24.7737C24.43 23.6245 25.5712 22.0617 26.2066 20.2754C26.8421 18.4892 26.9443 16.5568 26.501 14.7134C26.0576 12.8701 25.0878 11.1955 23.7096 9.89364C22.3314 8.59174 20.6043 7.71875 18.7387 7.381C17.1201 7.08795 15.4577 7.20882 13.9048 7.72675L13.3306 6.36361C15.1485 5.73683 17.1012 5.58517 19.0016 5.92922C21.1487 6.31796 23.1365 7.32272 24.7227 8.82112C26.3089 10.3195 27.4252 12.2469 27.9355 14.3684C28.4457 16.49 28.328 18.7141 27.5967 20.77C26.8653 22.8258 25.5518 24.6246 23.8163 25.9472C22.0808 27.2697 19.9981 28.0591 17.8219 28.219C15.6457 28.3789 13.47 27.9025 11.5598 26.8478Z" stroke="#2C54A5" stroke-width="1.5"/>
</svg>
