<svg xmlns="http://www.w3.org/2000/svg" width="150" height="28" viewBox="0 0 150 28" fill="none">
<title>Cellares</title>
<path fill-rule="evenodd" clip-rule="evenodd" d="M38.6994 19.2898C37.2843 17.8544 36.5872 16.0912 36.5872 13.9996C36.5872 11.9083 37.2843 10.1447 38.6994 8.70946C40.1141 7.27426 41.9185 6.55664 44.0919 6.55664C46.7165 6.55664 49.054 7.90983 50.2842 10.0422L48.6235 11.0059C47.8033 9.42708 46.0604 8.40192 44.0919 8.40192C42.4309 8.40192 41.0776 8.93516 40.0319 10.0013C38.9865 11.0675 38.4734 12.4004 38.4734 13.9996C38.4734 15.5784 38.9865 16.9113 40.0319 17.9776C41.0776 19.0437 42.4309 19.5767 44.0919 19.5767C46.0604 19.5767 47.8033 18.5516 48.6235 16.9934L50.2842 17.9365C49.6896 19.0027 48.8284 19.864 47.7211 20.4995C46.6139 21.1351 45.404 21.4429 44.0919 21.4429C41.9185 21.4429 40.1141 20.7252 38.6994 19.2898Z" fill="#ffffff"/>
<path fill-rule="evenodd" clip-rule="evenodd" d="M57.2159 19.3721H63.8797V21.1765H55.3088V6.8233H63.7771V8.62768H57.2159V13.0362H63.2648V14.8201H57.2159V19.3721Z" fill="#ffffff"/>
<path fill-rule="evenodd" clip-rule="evenodd" d="M70.9538 19.3721H77.1461V21.1765H69.0468V6.8233H70.9538V19.3721Z" fill="#ffffff"/>
<path fill-rule="evenodd" clip-rule="evenodd" d="M83.8311 19.3721H90.0234V21.1765H81.9241V6.8233H83.8311V19.3721Z" fill="#ffffff"/>
<path fill-rule="evenodd" clip-rule="evenodd" d="M97.6922 16.1734H102.839L100.255 9.09918L97.6922 16.1734ZM104.664 21.1765L103.495 17.9574H97.0361L95.8671 21.1765H93.8374L99.1891 6.8233H101.342L106.694 21.1765H104.664Z" fill="#ffffff"/>
<path fill-rule="evenodd" clip-rule="evenodd" d="M113.173 8.60698V13.9588H117.007C117.725 13.9588 118.32 13.6922 118.812 13.1797C119.325 12.6464 119.571 12.0108 119.571 11.2726C119.571 10.5345 119.325 9.89896 118.812 9.3862C118.32 8.87362 117.725 8.60698 117.007 8.60698H113.173ZM119.776 21.1765L116.557 15.6814H113.173V21.1765H111.266V6.8233H117.007C118.238 6.8233 119.283 7.25401 120.165 8.13555C121.047 8.99679 121.478 10.0426 121.478 11.2728C121.478 12.1954 121.19 13.0567 120.637 13.8154C120.083 14.574 119.386 15.1279 118.504 15.4352L121.888 21.1765H119.776Z" fill="#ffffff"/>
<path fill-rule="evenodd" clip-rule="evenodd" d="M128.573 19.3721H135.237V21.1765H126.666V6.8233H135.135V8.62768H128.573V13.0362H134.622V14.8201H128.573V19.3721Z" fill="#ffffff"/>
<path fill-rule="evenodd" clip-rule="evenodd" d="M139.604 17.916L141.244 16.9729C141.798 18.7158 143.09 19.5769 145.079 19.5769C147.047 19.5769 148.113 18.6952 148.113 17.3625C148.113 16.6858 147.847 16.1732 147.334 15.8245C146.822 15.4761 145.94 15.1274 144.73 14.7378L143.356 14.2868C143.049 14.1638 142.639 13.9791 142.167 13.7536C141.695 13.5076 141.347 13.2615 141.121 13.0153C140.65 12.5029 140.219 11.6621 140.219 10.6165C140.219 9.36566 140.65 8.38143 141.532 7.66364C142.413 6.92557 143.479 6.55664 144.73 6.55664C147.006 6.55664 148.749 7.80729 149.59 9.69368L147.991 10.6165C147.375 9.14017 146.288 8.40192 144.73 8.40192C143.172 8.40192 142.126 9.22204 142.126 10.5345C142.126 11.17 142.352 11.6417 142.803 11.9697C143.254 12.2977 144.033 12.6464 145.14 12.995L145.981 13.2615C146.145 13.323 146.391 13.4051 146.74 13.5486C147.457 13.8152 147.621 13.9177 148.175 14.2252C148.749 14.5328 148.933 14.7584 149.282 15.1683C149.795 15.6811 150 16.4192 150 17.3213C150 18.5722 149.549 19.5769 148.626 20.3356C147.704 21.0737 146.514 21.4428 145.038 21.4428C142.352 21.4428 140.363 20.1101 139.604 17.916Z" fill="#ffffff"/>
<path fill-rule="evenodd" clip-rule="evenodd" d="M0 16.1614V15.1966C0.659596 15.1966 1.19639 14.6596 1.19639 14C1.19639 13.3402 0.659596 12.8032 0 12.8032V11.8383C1.1917 11.8383 2.1611 12.8079 2.1611 14C2.1611 15.1918 1.1917 16.1614 0 16.1614Z" fill="#ffffff"/>
<path fill-rule="evenodd" clip-rule="evenodd" d="M13.2289 2.93314C12.0372 2.93314 11.0674 1.96356 11.0674 0.771667H12.0321C12.0321 1.43145 12.5689 1.96825 13.2289 1.96825C13.8888 1.96825 14.4256 1.43145 14.4256 0.771667H15.3905C15.3905 1.96356 14.4207 2.93314 13.2289 2.93314Z" fill="#ffffff"/>
<path fill-rule="evenodd" clip-rule="evenodd" d="M15.3905 27.2285H14.4256C14.4256 26.5687 13.8888 26.0317 13.2289 26.0317C12.5691 26.0317 12.0323 26.5687 12.0323 27.2285H11.0674C11.0674 26.0366 12.0372 25.067 13.2289 25.067C14.4207 25.067 15.3905 26.0366 15.3905 27.2285Z" fill="#ffffff"/>
<path fill-rule="evenodd" clip-rule="evenodd" d="M3.78789 6.72056C3.21033 6.72056 2.66771 6.4956 2.25952 6.08742L2.94165 5.4053C3.39396 5.85725 4.1818 5.85725 4.63393 5.4053C5.10067 4.93874 5.10067 4.17944 4.63393 3.71285L5.31622 3.03073C6.1589 3.87339 6.1589 5.24478 5.31622 6.08742C4.90804 6.4956 4.36485 6.72056 3.78789 6.72056Z" fill="#ffffff"/>
<path fill-rule="evenodd" clip-rule="evenodd" d="M21.1412 24.9693C20.2985 24.1265 20.2985 22.7553 21.1412 21.9124C21.5493 21.5043 22.0925 21.2795 22.6695 21.2795C23.2469 21.2795 23.7897 21.5043 24.1979 21.9124L23.5155 22.5947C23.0634 22.1428 22.2756 22.1428 21.8233 22.5947C21.3567 23.0613 21.3567 23.8204 21.8233 24.2872L21.1412 24.9693Z" fill="#ffffff"/>
<path fill-rule="evenodd" clip-rule="evenodd" d="M22.6695 6.72056C22.0925 6.72056 21.5493 6.4956 21.1412 6.08742C20.2985 5.24478 20.2985 3.87339 21.1412 3.03073L21.8233 3.71285C21.3567 4.17944 21.3567 4.93874 21.8233 5.4053C22.2756 5.85725 23.0634 5.85725 23.5155 5.4053L24.1979 6.08742C23.7897 6.4956 23.2469 6.72056 22.6695 6.72056Z" fill="#ffffff"/>
<path fill-rule="evenodd" clip-rule="evenodd" d="M5.31622 24.9693L4.6341 24.2872C5.10067 23.8204 5.10067 23.0613 4.6341 22.5947C4.1818 22.1428 3.39415 22.1428 2.94183 22.5947L2.25952 21.9124C2.66771 21.5043 3.21052 21.2795 3.78789 21.2795C4.36503 21.2795 4.90804 21.5043 5.31622 21.9124C6.15908 22.7553 6.15908 24.1265 5.31622 24.9693Z" fill="#ffffff"/>
<path class="logo-part" fill-rule="evenodd" clip-rule="evenodd" d="M26.4567 11.8383V12.8032C25.7971 12.8032 25.2603 13.34 25.2603 13.9998C25.2603 14.6596 25.7971 15.1966 26.4567 15.1966V16.1614C25.2648 16.1614 24.2954 15.1918 24.2954 13.9998C24.2954 12.8079 25.2648 11.8383 26.4567 11.8383Z" fill="#2ed8ff"/>
<path fill-rule="evenodd" clip-rule="evenodd" d="M19.4911 18.1701C18.1396 20.1933 15.8386 21.5311 13.2282 21.5311C9.07559 21.5311 5.69743 18.1528 5.69743 14.0003C5.69743 9.84788 9.07559 6.46972 13.2282 6.46972C15.8386 6.46972 18.1396 7.80732 19.4911 9.83039L21.575 8.5529C19.7928 5.83115 16.7175 4.02887 13.2282 4.02887C7.72973 4.02887 3.25659 8.50202 3.25659 14.0003C3.25659 19.4986 7.72973 23.972 13.2282 23.972C16.7175 23.972 19.7928 22.1695 21.575 19.4476L19.4911 18.1701Z" fill="#ffffff"/>
<path class="logo-part" fill-rule="evenodd" clip-rule="evenodd" d="M21.8702 9.03247L19.7859 10.3101C20.4029 11.4018 20.7591 12.6592 20.7591 14C20.7591 15.3406 20.4029 16.598 19.7859 17.6894L21.8702 18.9673C22.7149 17.5037 23.1999 15.8077 23.1999 14C23.1999 12.1921 22.7149 10.4961 21.8702 9.03247Z" fill="#2ed8ff"/>
</svg>