<svg width="105" height="105" viewBox="0 0 105 105" fill="none" xmlns="http://www.w3.org/2000/svg">
<path d="M40.4697 2.2784L41.3856 2.11747L43.6591 5.89976C43.8712 6.23211 44.0543 6.57412 44.2686 7.01985C44.3292 6.49576 44.4009 6.04403 44.4556 5.74441L45.2473 1.42664L46.1405 1.27138L44.9107 8.0397L44.0175 8.19496L40.4635 2.28238L40.4697 2.2784Z" fill="#020B4E"/>
<path d="M49.1647 7.49566L48.9493 1.04958L52.8728 0.937077L52.9019 1.73928L49.8527 1.8321L49.9179 3.84671L52.6687 3.76786L52.6982 4.54327L49.9474 4.62213L50.0184 6.65954L53.0676 6.56672L53.0944 7.37918L49.1709 7.49168L49.1647 7.49566Z" fill="#020B4E"/>
<path d="M55.4001 7.46968L56.0991 1.06662L58.5146 1.34295C59.8876 1.49922 60.6216 2.31918 60.4895 3.51548C60.3937 4.39733 59.8836 4.98765 59.0582 5.15266L60.0628 8.00623L59.0982 7.8982L58.1829 5.22589L56.5472 5.04316L56.268 7.57761L55.3979 7.47993L55.4001 7.46968ZM56.6308 4.26614L58.1863 4.44708C58.9928 4.54128 59.4952 4.1589 59.5801 3.42517C59.661 2.68518 59.2312 2.21816 58.4287 2.13024L56.8834 1.95158L56.6286 4.27639L56.6308 4.26614Z" fill="#020B4E"/>
<path d="M63.0511 2.03947L67.6529 3.22374L67.4562 4.00237L65.5852 3.51974L64.2097 8.98667L63.3663 8.76596L64.7418 3.29903L62.8605 2.81412L63.0573 2.03549L63.0511 2.03947Z" fill="#020B4E"/>
<path d="M68.7591 10.4603L67.9399 10.1536L70.1605 4.11204L70.9797 4.41877L68.7591 10.4603Z" fill="#020B4E"/>
<path d="M72.29 8.35682C73.1951 6.59666 74.9251 5.97787 76.5655 6.82832C77.8533 7.49783 78.4498 8.77629 78.0672 10.0618L77.2379 9.62915C77.4031 8.77358 76.9995 7.98983 76.1639 7.56117C75.0105 6.96471 73.8013 7.43644 73.1176 8.77293C72.4339 10.1094 72.7426 11.3774 73.896 11.9738C74.7356 12.4088 75.6341 12.3031 76.2039 11.71L77.0292 12.1363C76.2011 13.1502 74.7863 13.3825 73.4985 12.713C71.8683 11.8648 71.3868 10.1335 72.2941 8.36309L72.29 8.35682Z" fill="#020B4E"/>
<path d="M77.1091 14.6005L82.792 10.8058L83.5735 11.3837L81.695 17.9748L80.9539 17.4328L81.429 15.797L79.2447 14.1906L77.8439 15.1464L77.1131 14.6067L77.1091 14.6005ZM79.9088 13.7314L81.673 15.0236L82.4619 12.2697C82.495 12.1427 82.549 11.9934 82.5958 11.9018C82.529 11.9621 82.406 12.0583 82.2914 12.1402L79.915 13.7275L79.9088 13.7314Z" fill="#020B4E"/>
<path d="M84.2831 19.3058L86.3148 21.2921L85.7534 21.871L83.0971 19.2773L87.573 14.6645L88.2017 15.2781L84.2871 19.3121L84.2831 19.3058Z" fill="#020B4E"/>
<path d="M93.7664 33.8069L93.3855 33.0175L99.1841 30.2433L99.565 31.0327L93.7664 33.8069Z" fill="#020B4E"/>
<path d="M94.8602 36.1535L100.946 34.1049L101.228 34.9313L97.5789 39.6428L102.285 38.0601L102.567 38.8864L96.4766 40.9288L96.195 40.1024L99.8439 35.3909L95.1377 36.9736L94.8562 36.1473L94.8602 36.1535Z" fill="#020B4E"/>
<path d="M103.268 41.6776L104.101 46.353L103.313 46.4941L102.976 44.5909L97.4375 45.5576L97.2821 44.6949L102.821 43.7282L102.476 41.8125L103.264 41.6713L103.268 41.6776Z" fill="#020B4E"/>
<path d="M97.9579 49.3998L104.384 49.1637L104.547 53.0927L103.747 53.1182L103.624 50.0637L101.616 50.1365L101.729 52.8878L100.956 52.9138L100.842 50.1625L98.8069 50.2346L98.9298 53.2891L98.1232 53.3185L97.9601 49.3895L97.9579 49.3998Z" fill="#020B4E"/>
<path d="M101.174 56.5164C99.6287 56.3378 98.6338 57.1316 98.4851 58.4532C98.365 59.5447 98.8215 60.48 100.114 60.6345L100.303 60.6552L100.544 58.5156L101.314 58.6069L100.98 61.5646L97.4566 61.1482L97.5393 60.4247L98.4167 60.4648C97.8995 60.0536 97.581 59.2243 97.688 58.2912C97.8907 56.4763 99.3433 55.3815 101.311 55.6169C103.259 55.8478 104.49 57.2682 104.278 59.1509C104.118 60.5506 103.197 61.5439 101.942 61.6128L102.046 60.6899C102.884 60.5437 103.37 59.889 103.466 59.0339C103.622 57.6548 102.697 56.7007 101.188 56.525L101.174 56.5164Z" fill="#020B4E"/>
<path d="M96.9654 63.3503L103.159 65.116L102.503 67.4587C102.132 68.7898 101.208 69.3791 100.056 69.0465C99.1971 68.8007 98.706 68.1963 98.6694 67.3548L95.7053 67.8698L95.9686 66.934L98.7385 66.4723L99.1819 64.8832L96.7347 64.1858L96.9716 63.3463L96.9654 63.3503ZM99.9246 65.0976L99.499 66.6047C99.2858 67.385 99.5761 67.9499 100.284 68.1511C101.002 68.3546 101.525 68.0036 101.746 67.2358L102.165 65.7327L99.9206 65.0913L99.9246 65.0976Z" fill="#020B4E"/>
<path d="M95.2046 69.3279L100.104 74.1433L99.7021 75.0266L92.8678 74.4993L93.2485 73.6651L94.9426 73.8017L96.0555 71.3353L94.8323 70.1479L95.2068 69.3176L95.2046 69.3279ZM96.6357 71.9004L95.7411 73.8833L98.5936 74.1014C98.725 74.1146 98.8808 74.1387 98.9793 74.1553C98.9103 74.1023 98.7826 73.9985 98.6856 73.9015L96.6379 71.8902L96.6357 71.9004Z" fill="#020B4E"/>
<path d="M97.9852 78.5139L95.4937 82.5486L94.8122 82.1275L95.8263 80.4831L91.0382 77.4938L91.4955 76.7519L96.2835 79.7412L97.3038 78.0928L97.9852 78.5139Z" fill="#020B4E"/>
<path d="M88.2778 81.3824L88.8143 80.6958L93.8935 84.6642L93.357 85.3508L88.2778 81.3824Z" fill="#020B4E"/>
<path d="M84.706 85.2241C85.9891 83.9463 87.8507 84.0289 89.2327 85.4238C90.6107 86.8124 90.6845 88.6891 89.4014 89.967C88.112 91.2488 86.2442 91.1701 84.8622 89.7752C83.4802 88.3803 83.4166 86.5059 84.7122 85.2201L84.706 85.2241ZM88.7972 89.3642C89.7223 88.4472 89.6385 87.1328 88.5818 86.0687C87.5251 85.0046 86.2148 84.9053 85.2897 85.8223C84.3646 86.7392 84.4604 88.0725 85.5069 89.1343C86.5636 90.1984 87.8761 90.2874 88.8012 89.3705L88.7972 89.3642Z" fill="#020B4E"/>
<path d="M80.9393 88.8018L84.6525 94.0833L83.9363 94.5845L78.3734 92.3898L81.2421 96.4718L80.5258 96.973L76.8126 91.6915L77.5288 91.1903L83.0917 93.385L80.2231 89.3031L80.9393 88.8018Z" fill="#020B4E"/>
<path d="M65.9651 103.354L65.0487 103.542L62.6879 99.815C62.4758 99.4826 62.2802 99.1486 62.0494 98.7045C62.003 99.2372 61.9438 99.6809 61.8994 99.9828L61.206 104.317L60.3186 104.495L61.3886 97.6966L62.276 97.5186L65.9713 103.35L65.9651 103.354Z" fill="#020B4E"/>
<path d="M57.139 98.3438L57.5066 104.781L53.5897 104.986L53.5442 104.186L56.5926 104.023L56.4779 102.013L53.7342 102.158L53.6882 101.385L56.4319 101.24L56.3177 99.2033L53.2756 99.3622L53.2323 98.5514L57.1492 98.3461L57.139 98.3438Z" fill="#020B4E"/>
<path d="M50.9194 98.5185L50.362 104.937L47.9393 104.718C46.5659 104.589 45.8109 103.791 45.9163 102.594C45.9916 101.708 46.4874 101.109 47.3071 100.921L46.2384 98.0907L47.2075 98.1782L48.1869 100.827L49.8253 100.973L50.0407 98.435L50.9092 98.5162L50.9194 98.5185ZM49.7684 101.751L48.2101 101.607C47.4054 101.529 46.9048 101.928 46.8404 102.666C46.7737 103.415 47.2182 103.864 48.019 103.935L49.567 104.077L49.7684 101.751Z" fill="#020B4E"/>
<path d="M43.3743 104.128L38.754 103.053L38.9303 102.27L40.8103 102.711L42.0629 97.2168L42.9107 97.417L41.6581 102.911L43.5483 103.355L43.372 104.139L43.3743 104.128Z" fill="#020B4E"/>
<path d="M37.4973 95.8417L38.3209 96.1279L36.2353 102.216L35.4116 101.93L37.4933 95.8354L37.4973 95.8417Z" fill="#020B4E"/>
<path d="M34.0161 98.037C33.1539 99.8228 31.4376 100.477 29.778 99.6652C28.4732 99.0242 27.8478 97.7554 28.2036 96.4693L29.0477 96.8837C28.9029 97.7438 29.3253 98.5156 30.1693 98.9301C31.3397 99.4981 32.5329 99.0012 33.1881 97.6476C33.8433 96.294 33.4994 95.0397 32.3313 94.4615C31.477 94.0448 30.5843 94.1732 30.0225 94.7789L29.1927 94.373C29.9986 93.338 31.4036 93.0767 32.7084 93.7178C34.3577 94.5272 34.8847 96.2471 34.0099 98.0409L34.0161 98.037Z" fill="#020B4E"/>
<path d="M29.0349 91.8969L23.44 95.8295L22.6437 95.2698L24.3709 88.6342L25.1204 89.1619L24.6863 90.8068L26.9086 92.3626L28.2894 91.3754L29.0349 91.8969ZM26.2587 92.8303L24.4691 91.5809L23.7519 94.3508C23.7188 94.4778 23.6648 94.627 23.6282 94.721C23.695 94.6607 23.814 94.5582 23.9286 94.4763L26.2627 92.8365L26.2587 92.8303Z" fill="#020B4E"/>
<path d="M21.7671 87.3749L19.6913 85.4432L20.2447 84.8518L22.9639 87.3789L18.5953 92.0909L17.9518 91.4955L21.7671 87.3749Z" fill="#020B4E"/>
<path d="M11.9447 73.099L12.3443 73.8765L6.61724 76.7904L6.21762 76.0129L11.9447 73.099Z" fill="#020B4E"/>
<path d="M10.797 70.778L4.7558 72.9657L4.45778 72.1411L7.99718 67.3405L3.32605 69.0333L3.02802 68.2086L9.06922 66.0209L9.36724 66.8456L5.82784 71.6461L10.499 69.9533L10.797 70.778Z" fill="#020B4E"/>
<path d="M2.26027 65.451L1.31628 60.7937L2.10254 60.6361L2.48857 62.5342L8.00267 61.433L8.18085 62.29L2.66675 63.3912L3.05678 65.2956L2.27052 65.4532L2.26027 65.451Z" fill="#020B4E"/>
<path d="M7.39142 57.6136L0.974793 58.0023L0.71907 54.0795L1.51369 54.0312L1.71283 57.0812L3.71586 56.9589L3.54225 54.2103L4.31414 54.1678L4.48776 56.9163L6.51751 56.7946L6.31836 53.7447L7.12946 53.6947L7.38518 57.6175L7.39142 57.6136Z" fill="#020B4E"/>
<path d="M3.99931 50.5651C5.55133 50.713 6.52622 49.8878 6.64825 48.5656C6.74154 47.4735 6.26859 46.5399 4.97307 46.4224L4.78825 46.408L4.59814 48.5591L3.82413 48.4883L4.09033 45.5208L7.62771 45.8489L7.56551 46.577L6.69391 46.5596C7.21951 46.9567 7.56074 47.7802 7.47429 48.7179C7.31256 50.542 5.8902 51.6705 3.91109 51.4863C1.9587 51.3027 0.693859 49.9125 0.858765 48.0246C0.982209 46.622 1.88648 45.6036 3.14256 45.508L3.05834 46.4354C2.22264 46.5981 1.74807 47.2717 1.67551 48.121C1.5503 49.5071 2.49626 50.4389 4.01756 50.5799L3.99931 50.5651Z" fill="#020B4E"/>
<path d="M8.05574 43.6166L1.82462 41.9983L2.42559 39.638C2.76587 38.3 3.6773 37.6918 4.84213 37.9898C5.70596 38.2151 6.21577 38.8075 6.26882 39.6473L9.22188 39.0599L8.97909 40.0003L6.21627 40.5281L5.81382 42.1263L8.27839 42.7685L8.06198 43.6126L8.05574 43.6166ZM5.05018 41.9342L5.43473 40.4179C5.63372 39.629 5.32473 39.0761 4.60829 38.8891C3.88161 38.6999 3.36727 39.0634 3.17052 39.8421L2.78196 41.352L5.04394 41.9382L5.05018 41.9342Z" fill="#020B4E"/>
<path d="M9.66647 37.6377L4.65569 32.9373L5.03338 32.0431L11.8768 32.4057L11.5206 33.2509L9.8175 33.1552L8.76389 35.6456L10.0205 36.8028L9.66647 37.6377ZM8.16895 35.0987L9.02077 33.0901L6.15887 32.9398C6.03149 32.9329 5.86939 32.9128 5.77722 32.8922C5.85244 32.9412 5.96992 33.0428 6.0834 33.138L8.1792 35.101L8.16895 35.0987Z" fill="#020B4E"/>
<path d="M6.67954 28.4862L9.07537 24.3978L9.76531 24.8047L8.79002 26.4685L13.6459 29.344L13.2028 30.0945L8.347 27.219L7.36548 28.8868L6.67554 28.4799L6.67954 28.4862Z" fill="#020B4E"/>
<path d="M16.3043 25.4057L15.7861 26.1071L10.6061 22.256L11.1243 21.5546L16.3043 25.4057Z" fill="#020B4E"/>
<path d="M19.7894 21.4694C18.5366 22.7808 16.6762 22.7415 15.2608 21.3768C13.8534 20.0246 13.7324 18.1427 14.983 16.8415C16.2421 15.526 18.1087 15.5614 19.5263 16.9159C20.9377 18.2743 21.0485 20.1539 19.7894 21.4694ZM15.5917 17.4237C14.6928 18.3681 14.8096 19.6791 15.8895 20.7108C16.9734 21.7487 18.2903 21.8172 19.1892 20.8729C20.088 19.9285 19.9696 18.601 18.8896 17.5693C17.8057 16.5314 16.4968 16.4754 15.5877 17.4175L15.5917 17.4237Z" fill="#020B4E"/>
<path d="M23.4733 17.8033L19.6331 12.6117L20.3311 12.0956L25.9395 14.1554L22.971 10.1371L23.669 9.62104L27.5093 14.8126L26.8113 15.3287L21.2028 13.2689L24.1713 17.2872L23.4733 17.8033Z" fill="#020B4E"/>
</svg>
