<svg id="Layer_1" data-name="Layer 1" xmlns="http://www.w3.org/2000/svg" width="313" height="286" viewBox="0 0 313 286">
    <g id="Grupo_519" data-name="Grupo 519">
      <path id="Trazado_78" data-name="Trazado 78" d="M100.46,27.79c55.5-11.74,108.21-5,151.39,33.53,59.38,53,44.17,143.5-28.94,185.62-44.9,25.88-98.51,22-139.56-10-15.62-12.19-29-26.55-41.73-41.71C-16.55,125.71,32,40.71,100.46,27.79Z" style="fill: #f2f2f2;opacity: 0.8999999761581421;isolation: isolate"/>
      <g id="kpnilogo">
        <path id="Trazado_245" data-name="Trazado 245" d="M99,140.33l-4.64,6.23v-6.23H91.48v13.85h2.83v-4.4l.9-1,4.21,5.42H103l-6-7.25,5.39-6.6Z" style="fill: #3e3d40"/>
        <g id="Grupo_126" data-name="Grupo 126">
          <path id="Trazado_246" data-name="Trazado 246" d="M110.55,140.33c2.77,0,4.66,1.39,4.66,3.93v1.51c0,2.44-2,3.66-4.62,3.66h-2.91v4.75h-2.83V140.34h5.7Zm1.84,4.24a1.8,1.8,0,0,0-1.77-1.84,1,1,0,0,0-.25,0h-2.69v4.46h2.69c1.14,0,2-.51,2-1.75Z" style="fill: #3e3d40"/>
        </g>
        <path id="Trazado_247" data-name="Trazado 247" d="M126.37,140.33H129v13.85h-2.67l-6-9.53v9.53h-2.6V140.33h2.68l6,9.57Z" style="fill: #3e3d40"/>
        <rect id="Rectángulo_121" data-name="Rectángulo 121" x="132.3" y="140.33" width="2.83" height="13.84" style="fill: #3e3d40"/>
        <g id="Grupo_127" data-name="Grupo 127">
          <path id="Trazado_248" data-name="Trazado 248" d="M150.33,147a3.27,3.27,0,0,1,2.53,3.1v.77c0,2.24-1.71,3.34-4.1,3.34h-5.43V140.34h5c2.37,0,4.08,1.2,4.08,3.46v.52a2.86,2.86,0,0,1-2,2.65m-5.37-.55h3.33c1.43,0,2.49-.71,2.49-2v-.53c0-1.58-1.1-2.13-2.71-2.13H145Zm6.29,3.54c0-1.48-1.27-2.24-2.87-2.24H145v5.09h3.62c1.45,0,2.67-.59,2.67-2.1Z" style="fill: #3e3d40"/>
          <path id="Trazado_249" data-name="Trazado 249" d="M163.32,152.12l.56,1.12A6.3,6.3,0,0,1,160,154.3c-2.36,0-4.64-1.2-4.64-3.59v-3.64c0-2,2.13-3.46,4.42-3.46s4.27,1.42,4.27,3.46v2.18H157v1.4c0,1.53,1.48,2.26,3.11,2.26a5.83,5.83,0,0,0,3.19-.79m-6.3-5V148h5.53v-.94c0-1.24-1.26-2.12-2.72-2.12s-2.79.9-2.81,2.12" style="fill: #3e3d40"/>
        </g>
        <rect id="Rectángulo_122" data-name="Rectángulo 122" x="167.1" y="140.13" width="1.63" height="14.05" style="fill: #3e3d40"/>
        <g id="Grupo_128" data-name="Grupo 128">
          <path id="Trazado_250" data-name="Trazado 250" d="M174.78,150.88a1.16,1.16,0,0,0-.75,1c0,.67.71,1,1.38,1.14l5.76.9v2c0,2-2.07,2.79-4.15,2.79H175.9c-2.2,0-4.15-.74-4.15-2.67a2.36,2.36,0,0,1,1.93-2.3,1.75,1.75,0,0,1-1.18-1.65,2,2,0,0,1,1.2-1.69,3,3,0,0,1-1.48-2.71v-.67c0-2.28,1.93-3.44,4.27-3.44a5.36,5.36,0,0,1,2.37.49l2.58-.8.4,1.14-1.83.5a3.13,3.13,0,0,1,.75,2.06v.77c0,2.28-1.87,3.32-4.15,3.32a6.28,6.28,0,0,1-1.83-.21m4.76,5v-.95l-4.27-.63c-1,.08-2,.5-2,1.62s1.35,1.49,2.63,1.49H177c1.26,0,2.38-.37,2.5-1.53m-5.7-8c0,1.26,1.08,2,2.73,2,1.36,0,2.56-.52,2.56-2v-.81c-.08-1.39-1.32-2-2.64-2s-2.65.65-2.65,2Z" style="fill: #3e3d40"/>
        </g>
        <path id="Trazado_251" data-name="Trazado 251" d="M184.16,140.13h1.75v1.5h-1.75Zm.08,3.66h1.63v10.38h-1.63V143.79Z" style="fill: #3e3d40"/>
        <g id="Grupo_129" data-name="Grupo 129">
          <path id="Trazado_252" data-name="Trazado 252" d="M196.73,143.8h1.6v6.94c0,2.32-1.93,3.64-4.46,3.64s-4.43-1.32-4.43-3.64V143.8h1.61v6.86c0,1.48,1.2,2.28,2.82,2.28s2.85-.82,2.85-2.28Z" style="fill: #3e3d40"/>
          <path id="Trazado_253" data-name="Trazado 253" d="M216.65,146.87v7.31H215v-7a2,2,0,0,0-1.81-2.14h-.34c-1.67,0-3,.92-3,2.42v6.72h-1.62V147a1.92,1.92,0,0,0-1.81-2,1.53,1.53,0,0,0-.37,0,3,3,0,0,0-2.93,2.54v6.62h-1.63V143.8h1.34l.09,1.75a4.05,4.05,0,0,1,3.44-1.94c1.55,0,2.75.55,3.16,1.9a4.12,4.12,0,0,1,3.7-1.91c2.19,0,3.39,1.2,3.39,3.27" style="fill: #3e3d40"/>
        </g>
        <rect id="Rectángulo_123" data-name="Rectángulo 123" x="127.84" y="110.35" width="3.19" height="25.75" transform="translate(-49.22 127.61) rotate(-45)" style="fill: #3e3d40"/>
        <rect id="Rectángulo_124" data-name="Rectángulo 124" x="165.84" y="121.63" width="25.75" height="3.19" transform="translate(-34.79 162.46) rotate(-45)" style="fill: #3e3d40"/>
        <rect id="Rectángulo_125" data-name="Rectángulo 125" x="116.55" y="170.92" width="25.75" height="3.19" transform="translate(-84.07 142.05) rotate(-45)" style="fill: #3e3d40"/>
        <g id="Grupo_130" data-name="Grupo 130">
          <path id="Trazado_254" data-name="Trazado 254" d="M161,110a6.9,6.9,0,1,1-6.9-6.9h0A6.9,6.9,0,0,1,161,110m-6.89-9.59a9.59,9.59,0,1,0,9.58,9.59,9.59,9.59,0,0,0-9.58-9.59" style="fill: #3e3d40"/>
        </g>
        <rect id="Rectángulo_126" data-name="Rectángulo 126" x="177.12" y="159.63" width="3.19" height="25.75" transform="translate(-69.64 176.9) rotate(-45)" style="fill: #3e3d40"/>
      </g>
    </g>
</svg>
