<svg id="Layer_1" data-name="Layer 1" xmlns="http://www.w3.org/2000/svg" width="313" height="286" viewBox="0 0 313 286">
  <g id="Grupo_518" data-name="Grupo 518">
    <path id="Trazado_79" data-name="Trazado 79" d="M66.92,51C131.57,1.52,239.82,9.3,279.31,69.73c35.82,54.81,27.92,105.94-25.5,147.75-76.53,59.91-164.4,61.77-211.5,3.84C-.9,168.18,9.72,94.72,66.92,51Z" style="fill: #f2f2f2;opacity: 0.8999999761581421;isolation: isolate"/>
    <g id="Argentina_Contouren" data-name="Argentina Contouren">
      <g id="Grupo_125" data-name="Grupo 125">
        <g id="Grupo_122" data-name="Grupo 122">
          <path id="Trazado_210" data-name="Trazado 210" d="M91.79,124.71,87.12,120l-5.05,1.35.82-3.06-3.22-3.22-4.4,1.18-1.18,4.4,3.22,3.22,3.06-.82-1.35,5,4.68,4.68,6.38-1.71Zm-14.12-2.16-2.23-2.23.82-3,3-.82,2.23,2.23-.82,3Zm6.39,8.9-3.69-3.68,1.35-5,5-1.35,3.68,3.69-1.35,5Z" style="fill: #a47328"/>
          <path id="Trazado_211" data-name="Trazado 211" d="M100.35,114l-.93,3.46-3.46.93-2.53-2.53.93-3.46,3.46-.93,2.53,2.53m1.35-.36-3.52-3.52-4.81,1.29-1.29,4.81,3.52,3.52,4.81-1.29,1.29-4.81Z" style="fill: #a47328"/>
        </g>
        <g id="Grupo_123" data-name="Grupo 123">
          <path id="Trazado_212" style="fill: #000" data-name="Trazado 212" d="M101.24,141v5.9h-3V126.69c7.5-1.59,12.53,1.57,12.53,6.74C110.73,138.35,106.48,141.24,101.24,141Zm0-2.72c4.17.35,6.37-1.88,6.37-4.8,0-2.66-2.29-4.91-6.37-4.28Z"/>
          <path id="Trazado_213" style="fill: #000" data-name="Trazado 213" d="M128.64,126.55v20.3h-3v-5.33l-8.93-8.62.11,13.95h-3V126.43l.46-.13,11.31,11.31V126.55Z"/>
          <path id="Trazado_214" style="fill: #000" data-name="Trazado 214" d="M133.26,127.36l3-.81v20.3h-3Z"/>
        </g>
        <g id="Grupo_124" data-name="Grupo 124">
          <path id="Trazado_215" style="fill: #000" data-name="Trazado 215" d="M98.2,153.64c1.22-.2,3.17-.19,3.17,1.53a1.56,1.56,0,0,1-.76,1.34,1.91,1.91,0,0,1,1.64,1.89c0,2.09-2.24,2.22-4,2Zm.45,2.84h1a1.31,1.31,0,0,0,1.3-1.3v0c0-1.27-1.52-1.31-2.3-1.18Zm0,3.54c1.43.22,3.16-.1,3.16-1.6a1.63,1.63,0,0,0-1.64-1.61H98.65Z"/>
          <path id="Trazado_216" style="fill: #000" data-name="Trazado 216" d="M106.43,156.6l-3,6.22H103l-.06-.1,1.31-2.58-1.61-3.54h.44l1.42,3.08L106,156.6Z"/>
          <path id="Trazado_217" style="fill: #000" data-name="Trazado 217" d="M109.35,153.64c4.31-.6,5.19,2,5.19,3.4s-1,4-5.19,3.34Zm.44,6.42c2.44.3,4.27-1,4.27-3,0-1.74-1.3-3.43-4.27-3Z"/>
          <path id="Trazado_218" style="fill: #000" data-name="Trazado 218" d="M115.35,156.6h.22l.18.46a1.06,1.06,0,0,1,1-.58,1.16,1.16,0,0,1,.51.12l-.09.35h0a.82.82,0,0,0-.43-.12,1,1,0,0,0-.91.69v2.85h-.4Z"/>
          <path id="Trazado_219" style="fill: #000" data-name="Trazado 219" d="M117.8,159.5a.48.48,0,0,1,.5.48v0a.48.48,0,0,1-.48.48h0a.47.47,0,0,1-.48-.45v0a.48.48,0,0,1,.45-.5Z"/>
          <path id="Trazado_220" style="fill: #000" data-name="Trazado 220" d="M124.72,160.38h-3.2v-6.73H122V160h2.77v.35Z"/>
          <path id="Trazado_221" style="fill: #000" data-name="Trazado 221" d="M125.56,158.33a1.68,1.68,0,0,0,1.53,1.83h.22a2.29,2.29,0,0,0,1.32-.38l.18.28a2.46,2.46,0,0,1-1.53.43,2,2,0,0,1-2.12-1.85c0-.06,0-.12,0-.18a1.87,1.87,0,0,1,1.75-2H127a1.75,1.75,0,0,1,1.76,1.73s0,.07,0,.11Zm2.77-.35a1.27,1.27,0,0,0-1.3-1.17,1.44,1.44,0,0,0-1.4,1.17Z"/>
          <path id="Trazado_222" style="fill: #000"  data-name="Trazado 222" d="M129.34,158.48a2,2,0,1,1,2,2,1.93,1.93,0,0,1-2-1.88Zm3.56,0a1.6,1.6,0,0,0-1.53-1.67h-.06a1.57,1.57,0,0,0-1.58,1.57v.1a1.62,1.62,0,0,0,1.56,1.69h0a1.6,1.6,0,0,0,1.58-1.62Z"/>
          <path id="Trazado_223" style="fill: #000" data-name="Trazado 223" d="M136.76,158.17v2.21h-.44v-6.71c2.05-.46,3.61.44,3.61,2.1S138.5,158.37,136.76,158.17Zm0-.4c1.67.18,2.73-.67,2.73-2s-1.09-2.07-2.73-1.78Z"/>
          <path id="Trazado_224" style="fill: #000" data-name="Trazado 224" d="M140.56,156.6h.22l.17.46a1.06,1.06,0,0,1,1-.58,1.16,1.16,0,0,1,.51.12l-.09.35h-.05a.82.82,0,0,0-.43-.12,1,1,0,0,0-.91.69v2.85h-.4V156.6Z"/>
          <path id="Trazado_225" style="fill: #000" data-name="Trazado 225" d="M146.13,159.75a1.68,1.68,0,0,1-3.08-1V156.6h.4v2.19a1.28,1.28,0,0,0,1.19,1.36h.13a1.36,1.36,0,0,0,1.36-1.36V156.6h.39v3.78h-.22Z"/>
          <path id="Trazado_226" style="fill: #000" data-name="Trazado 226" d="M147.94,154.66a.41.41,0,0,1,.41.41h0a.41.41,0,0,1-.43.39.4.4,0,1,1,0-.8Zm-.19,1.94h.39v3.78h-.39Z"/>
          <path id="Trazado_227" style="fill: #000" data-name="Trazado 227" d="M149.75,157.15a1.18,1.18,0,0,1,1.09-.67,1.36,1.36,0,0,0,1.79.73,1.37,1.37,0,0,0,.73-.73,1.38,1.38,0,0,1,1.42,1.32,1.48,1.48,0,0,1,0,.21v2.37h-.39V158a1,1,0,0,0-.87-1.17h-.19a1.1,1.1,0,0,0-1.07,1.13v2.42h-.39V158a1,1,0,0,0-.87-1.17h-.19a1.08,1.08,0,0,0-1.06,1.09.28.28,0,0,0,0,.09v2.37h-.4V156.6h.22Z"/>
          <path id="Trazado_228" style="fill: #000" data-name="Trazado 228" d="M156.12,159.61l-.17.77h-.22v-6.74l.36-.11h0v3.83a1.86,1.86,0,0,1,1.6-.88,2,2,0,1,1,0,4h0A1.83,1.83,0,0,1,156.12,159.61Zm3.18-1.12a1.6,1.6,0,0,0-1.52-1.68h-.06a1.54,1.54,0,0,0-1.6,1.49v.23a1.59,1.59,0,1,0,3.18.09v-.13Z"/>
          <path id="Trazado_229" style="fill: #000" data-name="Trazado 229" d="M160.22,158.48a2,2,0,1,1,2,2,1.94,1.94,0,0,1-2-1.88Zm3.56,0a1.6,1.6,0,0,0-1.53-1.67h-.06a1.57,1.57,0,0,0-1.58,1.57v.1a1.63,1.63,0,0,0,1.56,1.69h0a1.59,1.59,0,0,0,1.57-1.62Z"/>
          <path id="Trazado_230" style="fill: #000" data-name="Trazado 230" d="M164.71,158.48a2,2,0,1,1,2,2,1.94,1.94,0,0,1-2-1.88Zm3.56,0a1.6,1.6,0,0,0-1.52-1.67h-.07a1.58,1.58,0,0,0-1.58,1.58v.09a1.63,1.63,0,0,0,1.56,1.69h0a1.6,1.6,0,0,0,1.58-1.62A.17.17,0,0,1,168.27,158.48Z"/>
          <path id="Trazado_231" style="fill: #000" data-name="Trazado 231" d="M169.74,157.15a1.18,1.18,0,0,1,1.09-.67,1.37,1.37,0,0,0,1.8.73,1.39,1.39,0,0,0,.72-.73,1.38,1.38,0,0,1,1.42,1.32,1.48,1.48,0,0,1,0,.21v2.37h-.39V158a1,1,0,0,0-.87-1.17h-.19a1.1,1.1,0,0,0-1.07,1.13v2.42h-.4V158a1,1,0,0,0-.86-1.17h-.19a1.09,1.09,0,0,0-1.07,1.09.28.28,0,0,1,0,.09v2.37h-.4V156.6h.22Z"/>
        </g>
        <path id="Trazado_232" style="fill: #000" data-name="Trazado 232" d="M145.74,146.83l9.1-20.55h.4l9,20.55h-2.37l-2.14-5h-9.45l-2.17,5Zm5.29-6.76h7.89l-3.9-9.3Z"/>
        <path id="Trazado_233" style="fill: #000" data-name="Trazado 233" d="M166,135.24h1.1l.84,1.33a3.06,3.06,0,0,1,2.8-1.67,3.64,3.64,0,0,1,1.59.37l-.38,1.79-.17.06a2.65,2.65,0,0,0-3.61,1,2.53,2.53,0,0,0-.18.37v8.35h-2Z"/>
        <path id="Trazado_234" style="fill: #000" data-name="Trazado 234" d="M172,150.3a3.75,3.75,0,0,1,3.24-3.64,2.05,2.05,0,0,1,.52-4,4.07,4.07,0,0,1-2.2-3.59,4.25,4.25,0,0,1,4.29-4.21l.33,0a5.4,5.4,0,0,1,3.32,1.13l2.66-.75h.35v1.93h-2.26a3.1,3.1,0,0,1,.53,1.79c0,2.23-1.68,4.16-4.66,4.19-1.62,0-2.28.55-2.28,1.42,0,1,1,1.41,2.51,1.41,3.94.12,6.59,1.36,6.59,4.34s-3.26,4.13-6.59,4.13S172,153.22,172,150.3Zm10.9,0c0-1.79-2.34-2.66-4.71-2.66s-4.16.87-4.16,2.66,2.31,2.58,4.42,2.58,4.45-.7,4.45-2.58Zm-2-11.21a2.58,2.58,0,0,0-2.58-2.6h-.14a2.54,2.54,0,0,0-2.68,2.41,1.21,1.21,0,0,0,0,.19,2.71,2.71,0,0,0,5.41,0Z"/>
        <path id="Trazado_235" style="fill: #000" data-name="Trazado 235" d="M187.45,141a4.45,4.45,0,0,0,4.36,4.54h.38a7,7,0,0,0,3.87-1.1c.26.47.58,1,.84,1.39a8.62,8.62,0,0,1-4.91,1.36,6.31,6.31,0,0,1-6.54-6.05V141a5.83,5.83,0,0,1,5.52-6.12h.35c2.8,0,5.55,2.14,5.55,6.13Zm7.25-1.5a3.32,3.32,0,0,0-3.38-3,3.76,3.76,0,0,0-3.64,3Z"/>
        <path id="Trazado_236" style="fill: #000" data-name="Trazado 236" d="M201.15,136.92a5.08,5.08,0,0,1,4.08-2,4.8,4.8,0,0,1,5,4.62,3.53,3.53,0,0,1,0,.46v6.88h-2v-6.7a3.34,3.34,0,0,0-3.12-3.55h-.29a3.52,3.52,0,0,0-3.53,3.52v6.73h-2V135.24h1.12Z"/>
        <path id="Trazado_237" style="fill: #000" data-name="Trazado 237" d="M215.67,136.89v6.56c0,1.88,1.54,2.26,2.92,1.77l.38,1.61c-2.63.73-5.32-.05-5.32-3.35v-6.59h-2v-.23l.2-1.42h1.77v-3.86l2-.54v4.41h3v1.64Z"/>
        <path id="Trazado_238" style="fill: #000" data-name="Trazado 238" d="M222.11,128.86a1.63,1.63,0,0,1,1.64,1.64h0a1.63,1.63,0,1,1-3.26,0A1.66,1.66,0,0,1,222.11,128.86Zm-1,6.38h2v11.59h-2Z"/>
        <path id="Trazado_239" style="fill: #000" data-name="Trazado 239" d="M227.79,136.92a5.06,5.06,0,0,1,4.07-2,4.82,4.82,0,0,1,5,4.62c0,.16,0,.31,0,.46v6.88h-2.05v-6.7a3.34,3.34,0,0,0-3.12-3.55h-.29a3.52,3.52,0,0,0-3.52,3.52v6.19l-2,.54V135.25H227Z"/>
        <path id="Trazado_240" style="fill: #000" data-name="Trazado 240" d="M249.46,146.83h-1.15l-.7-1.64a4.77,4.77,0,0,1-4.3,2c-2.92,0-4.74-1.77-4.74-3.87s1.82-4,4.74-4A6.27,6.27,0,0,1,247.5,141v-.81a3.34,3.34,0,0,0-3.08-3.57,2.54,2.54,0,0,0-.39,0,6.22,6.22,0,0,0-3.24,1l-.78-1.44a7.58,7.58,0,0,1,4.25-1.28c2.72,0,5.06,1.68,5.2,5.38v6.56Zm-2-4.39a5.26,5.26,0,0,0-3.9-1.62c-1.91,0-3,1.16-3,2.43s1.19,2.46,3,2.46a4,4,0,0,0,3.87-3.12v-.15Z"/>
      </g>
    </g>
  </g>
</svg>
