<svg version="1.1" id="Layer_1" xmlns="http://www.w3.org/2000/svg" xmlns:xlink="http://www.w3.org/1999/xlink" x="0px" y="0px"
	 viewBox="0 0 313 286" style="enable-background:new 0 0 313 286;" xml:space="preserve">
<g id="Grupo_516" transform="translate(-149.783 -2632.776)">
	<path id="mancha" class="st0" d="M302.6,2661.7c25.3-0.8,49.9,1.5,73.5,10.3c29,10.8,47.7,31.3,56.4,60.9
			c6.2,21.1,10.3,42.6,10,64.6c-0.2,16.1-2.8,31.8-11.2,46c-9.8,16.4-25.6,24.7-42.5,31.2c-21.6,8.3-44.2,12.3-67.5,13.1
			c-20.5,0.8-41.1-0.5-61.4-4c-44.7-7.8-74.3-33.9-90-76.2c-7.5-20.1-9.9-41.7-7-62.9c3.7-28.2,19.7-47.7,43.8-61.2
			C236.6,2666.7,268.9,2660.2,302.6,2661.7z" style="opacity:0.9;fill: #f2f2f2"/>
	<g>
			<path class="trazado" d="M255.3,2750.2h3.3v-0.1l-0.1-0.4c-0.1-0.6-0.2-1.1-0.3-1.6s-0.1-1.1-0.1-1.6v-3.2h3.2c1.1,0,2.1-0.2,3.2-0.7
				c0.9-0.5,1.8-1.1,2.3-1.9c0.5-0.8,0.9-1.8,0.9-2.9c0-1-0.3-1.8-0.8-2.7c-0.5-0.8-1.2-1.5-2-1.9c-1-0.5-1.9-0.7-3-0.7h-3.8v-0.1
				h-3.3v0.1l0.1,0.4c0.1,0.6,0.2,1.1,0.3,1.6c0.1,0.5,0.1,1.1,0.1,1.6v10.7c0,0.5,0,1.1-0.1,1.6c-0.1,0.5-0.2,1-0.3,1.6l-0.1,0.4
				v0.1L255.3,2750.2L255.3,2750.2z M261.1,2733.4c0.7-0.1,1.5,0.2,2,0.6c0.6,0.5,1,1,1.3,1.7c0.3,0.8,0.4,1.5,0.4,2.2
				c0,0.8-0.2,1.6-0.5,2.2c-0.3,0.7-0.8,1.3-1.4,1.7c-0.7,0.4-1.4,0.6-2.1,0.6h-2.7v-8.9L261.1,2733.4L261.1,2733.4z" style="fill:#052D41;"/>
			<path class="trazado" d="M273,2750.3L273,2750.3l-0.1-0.5c-0.1-0.5-0.2-1.1-0.3-1.6s-0.1-1.1-0.1-1.6v-5.8c0.4-0.4,0.9-0.7,1.4-0.9
				c0.5-0.2,1.1-0.2,1.7,0c0.6,0.2,1.1,0.5,1.5,0.9h0.1l0.4-2.9c-0.7-0.3-1.5-0.3-2.2-0.1c-0.7,0.1-1.4,0.5-1.8,1
				c-0.3,0.3-0.6,0.8-0.9,1.2v-2.2h-3.1v0.1l0.1,0.4c0.1,0.6,0.2,1.1,0.3,1.6s0.1,1.1,0.1,1.6v5.2c0,0.5,0,1.1-0.1,1.6
				s-0.2,1-0.3,1.6l-0.1,0.4v0.1h0.5h2.9V2750.3z" style="fill:#052D41;"/>
			<path class="trazado" d="M279.4,2740c0.1,0.5,0.1,1.1,0.1,1.6v4.7c-0.1,1.2,0.3,2.3,1.2,3.2c0.9,0.7,1.8,1.1,2.9,1.1
				c0.9,0.1,1.7-0.2,2.4-0.8c0.6-0.5,1.2-1,1.6-1.6c0,0.1,0,0.2,0,0.3c0,0.6,0.2,1.2,0.3,1.8v0.2l2.7-0.1v-0.1l-0.1-0.4
				c-0.1-0.5-0.2-1.1-0.3-1.6s-0.1-1.1-0.1-1.6v-8.9H287v0.1l0.1,0.4c0.1,0.6,0.2,1.1,0.3,1.6s0.1,1.1,0.1,1.6v5.2
				c0,0.3,0,0.6,0,0.8c-0.8,0.7-1.8,1.2-2.9,1.3c-0.7,0.1-1.4-0.2-1.8-0.7c-0.5-0.6-0.8-1.4-0.7-2.1v-8H279v0.1l0.1,0.4
				C279.2,2739,279.3,2739.5,279.4,2740z" style="fill:#052D41;"/>
			<path class="trazado" d="M293.1,2734.8c0.4,0.3,0.8,0.5,1.3,0.5s0.9-0.2,1.3-0.5c0.3-0.4,0.5-0.8,0.5-1.3s-0.1-1-0.5-1.3
				c-0.7-0.7-1.8-0.7-2.5,0c-0.3,0.3-0.5,0.8-0.5,1.3C292.5,2734,292.7,2734.5,293.1,2734.8z" style="fill:#052D41;"/>
			<path class="trazado" d="M295.8,2746.7v-8.8h-3.1v0.1l0.1,0.4c0.1,0.6,0.2,1.1,0.3,1.6s0.1,1.1,0.1,1.6v5.2c0,0.5,0,1.1-0.1,1.6
				c0,0.5-0.2,1.1-0.3,1.6l-0.1,0.4v0.1h0.5h3.1v-0.1l-0.1-0.4c-0.1-0.6-0.2-1.1-0.3-1.6C295.8,2747.7,295.8,2747.2,295.8,2746.7z"
				style="fill:#052D41;" />
			<path class="trazado" d="M302.1,2750.3L302.1,2750.3l-0.1-0.5c-0.1-0.6-0.2-1.1-0.3-1.6s-0.1-1.1-0.1-1.6v-6.2
				c0.2-0.2,0.5-0.4,0.8-0.6c0.4-0.2,1-0.4,1.5-0.4c0.6,0,1.3,0.2,1.8,0.7c0.6,0.6,0.9,1.4,0.8,2.1v4.4c0,0.5,0,1.1-0.1,1.6
				s-0.2,1-0.3,1.6l-0.1,0.4v0.1h0.5l3.1-0.1v-0.1l-0.1-0.4c-0.1-0.6-0.2-1.1-0.3-1.6s-0.1-1.1-0.1-1.6v-4.7c0-0.5,0-0.9-0.1-1.4
				c0.3-0.2,0.6-0.4,0.9-0.6c0.5-0.3,1-0.4,1.5-0.4c0.7,0,1.3,0.2,1.8,0.7c0.6,0.6,0.9,1.4,0.8,2.1v4.4c0,0.5,0,1.1-0.1,1.6
				s-0.2,1-0.3,1.6l-0.1,0.4v0.1h0.5c0,0,3,0,3.1,0v-0.1l-0.1-0.4c-0.1-0.6-0.2-1.1-0.3-1.6s-0.1-1.1-0.1-1.6v-4.7
				c0.1-1.2-0.3-2.3-1.1-3.2c-0.8-0.7-1.8-1.1-2.7-1.1s-1.7,0.2-2.3,0.7c-0.6,0.4-1.1,1-1.6,1.6c-0.2-0.5-0.4-0.9-0.8-1.3
				c-0.8-0.7-1.8-1.1-2.7-1.1s-1.7,0.3-2.3,0.8c-0.5,0.3-0.9,0.7-1.3,1.2v-1.7h-3.1v0.1l0.1,0.4c0.1,0.6,0.2,1.1,0.3,1.6
				s0.1,1.1,0.1,1.6v5.2c0,0.5,0,1.1-0.1,1.6s-0.2,1-0.3,1.6l-0.1,0.4v0.1h0.5h2.9V2750.3z" style="fill:#052D41;"/>
			<path class="trazado" d="M318.9,2734.1c0.1,0.6,0.1,1.1,0.1,1.7l0.1,14.5l2.3-1c0.3,0.3,0.6,0.5,1,0.7c0.7,0.3,1.4,0.5,2.1,0.5
				c1,0,1.8-0.2,2.7-0.9c0.9-0.6,1.6-1.4,2-2.2c0.6-1.2,0.8-2.3,0.8-3.6c0-1.2-0.2-2.2-0.7-3.3c-0.4-0.8-1-1.6-1.8-2
				c-1.6-1-3.4-1-5,0c-0.4,0.3-0.7,0.6-1,0.9v-7.6l-2.7,0.4l-0.6,0.1v0.1c0.1,0.1,0.1,0.2,0.2,0.4
				C318.7,2733.2,318.8,2733.6,318.9,2734.1z M324,2739.3c1,0,1.8,0.5,2.3,1.4c0.6,1,0.8,2.1,0.8,3.3c0,0.9-0.1,1.8-0.4,2.6
				c-0.3,0.7-0.7,1.4-1.3,1.8c-0.6,0.5-1.3,0.7-2,0.7c-0.6,0-1.2-0.1-1.7-0.3h-0.1v-8.2C322.4,2740,323.4,2739.3,324,2739.3z" style="fill:#052D41;"/>
			<path class="trazado" d="M334.5,2749.7c1,0.5,2,0.8,3.1,0.8c1.1,0.1,2.1-0.2,3.1-0.8c1-0.6,1.8-1.3,2.2-2.2c0.6-1.1,0.9-2.2,0.9-3.4
				c0-1.3-0.3-2.3-0.9-3.4c-0.6-0.9-1.3-1.7-2.2-2.1c-1-0.5-2-0.8-3.1-0.8s-2.1,0.3-3.1,0.8s-1.8,1.3-2.2,2.1
				c-0.5,1.1-0.8,2.2-0.8,3.4c-0.1,1.2,0.2,2.3,0.8,3.4C332.8,2748.4,333.5,2749.2,334.5,2749.7z M334.8,2741.4
				c0.2-0.7,0.6-1.4,1.1-1.9s1.1-0.8,1.8-0.8c0.7,0,1.3,0.3,1.8,0.8c0.5,0.6,0.9,1.2,1.1,1.9c0.3,0.9,0.4,1.8,0.4,2.7
				c0,0.9-0.1,1.9-0.4,2.8c-0.3,0.7-0.7,1.4-1.2,1.9s-1.1,0.8-1.8,0.8c-0.7,0-1.3-0.3-1.7-0.8c-0.5-0.5-0.9-1.2-1.1-1.9
				c-0.3-1-0.4-1.8-0.4-2.8C334.5,2743.3,334.5,2742.3,334.8,2741.4z" style="fill:#052D41;"/>
			<path class="trazado" d="M356.5,2747.4c0.6-1.1,0.9-2.2,0.9-3.4c0-1.3-0.3-2.3-0.9-3.4c-0.6-0.9-1.3-1.7-2.2-2.1
				c-0.9-0.4-2-0.8-3.1-0.8s-2.1,0.3-3.1,0.8s-1.8,1.3-2.2,2.1c-0.5,1.1-0.8,2.2-0.8,3.4c-0.1,1.2,0.2,2.3,0.8,3.4
				c0.6,1,1.3,1.8,2.2,2.2c1,0.5,2,0.8,3.1,0.8c1.1,0.1,2.1-0.2,3.1-0.8C355.3,2749.1,356,2748.4,356.5,2747.4z M354.1,2747
				c-0.3,0.7-0.7,1.4-1.2,1.9s-1.1,0.8-1.8,0.8c-0.7,0-1.3-0.3-1.7-0.8c-0.5-0.5-0.9-1.2-1.1-1.9c-0.3-1-0.4-1.8-0.4-2.8
				c0-0.9,0.1-1.8,0.4-2.7c0.2-0.7,0.6-1.4,1.1-1.9s1.1-0.8,1.8-0.8c0.7,0,1.3,0.3,1.8,0.8c0.5,0.6,0.9,1.2,1.1,1.9
				c0.3,0.9,0.4,1.8,0.4,2.7C354.5,2745.1,354.4,2746.1,354.1,2747z" style="fill:#052D41;"/>
			<path class="trazado" d="M369.9,2750.1l-0.1-0.4c-0.1-0.6-0.2-1.1-0.3-1.6s-0.1-1.1-0.1-1.6v-4.7c0-0.5,0-0.9-0.1-1.4
				c0.3-0.2,0.6-0.4,0.9-0.6c0.5-0.3,1-0.4,1.5-0.4c0.7,0,1.3,0.2,1.8,0.7c0.6,0.6,0.9,1.4,0.8,2.1v4.4c0,0.5,0,1.1-0.1,1.6
				s-0.2,1-0.3,1.6l-0.1,0.4v0.1h0.5h3.1v-0.1l-0.1-0.4c-0.1-0.6-0.2-1.1-0.3-1.6s-0.1-1.1-0.1-1.6v-4.7c0.1-1.2-0.3-2.3-1.1-3.2
				c-0.8-0.7-1.8-1.1-2.7-1.1s-1.7,0.2-2.3,0.7c-0.6,0.4-1.1,1-1.6,1.6c-0.2-0.5-0.4-0.9-0.8-1.3c-0.8-0.7-1.8-1.1-2.7-1.1
				s-1.7,0.3-2.3,0.8c-0.5,0.3-0.9,0.7-1.3,1.2v-1.7H359v0.1l0.1,0.4c0.1,0.6,0.2,1.1,0.3,1.6s0.1,1.1,0.1,1.6v5.2
				c0,0.5,0,1.1-0.1,1.6s-0.2,1-0.3,1.6l-0.1,0.4v0.1h0.5h3.1v-0.1l-0.1-0.4c-0.1-0.6-0.2-1.1-0.3-1.6s-0.1-1.1-0.1-1.6v-6.2
				c0.2-0.2,0.5-0.4,0.8-0.6c0.4-0.2,1-0.4,1.5-0.4c0.6,0,1.3,0.2,1.8,0.7c0.6,0.6,0.9,1.4,0.8,2.1v4.4c0,0.5,0,1.1-0.1,1.6
				s-0.2,1-0.3,1.6l-0.1,0.4v0.1h0.5L369.9,2750.1L369.9,2750.1z" style="fill:#052D41;"/>
			<path class="trazado" d="M257.5,2759.9c0-0.5,0.1-0.9,0.2-1.4l0.1-0.5v-0.1h-2.4v0.1l0.1,0.5c0.1,0.5,0.1,1,0.2,1.4
				c0.1,0.5,0.1,0.9,0.1,1.4v11.4c0,0.5,0,0.9-0.1,1.3c0,0.5-0.1,0.9-0.2,1.4l-0.1,0.5v0.1h0.4v0.1h2v-0.1l-0.1-0.5
				c-0.1-0.5-0.1-0.9-0.2-1.4s-0.1-0.9-0.1-1.4v-11.4C257.4,2760.8,257.4,2760.4,257.5,2759.9z" style="fill:#052D41;"/>
			<path class="trazado" d="M264.2,2764.2c-0.6,0.4-1.2,0.9-1.7,1.4v-2h-1.9v0.1l0.1,0.5c0.1,0.5,0.1,0.9,0.2,1.4
				c0.1,0.4,0.1,0.9,0.1,1.4v5.7c0,0.5,0,0.9-0.1,1.3c0,0.5-0.1,0.9-0.2,1.4l-0.1,0.5v0.1h0.4h1.9v-0.2l-0.1-0.5
				c-0.1-0.5-0.1-1-0.2-1.4c-0.1-0.5-0.1-0.9-0.1-1.4v-6.1c1.1-1.2,2.3-1.8,3.5-1.8c0.8,0,1.6,0.3,2.1,0.9c0.7,0.7,1,1.6,0.9,2.4
				v4.7c0,0.5,0,0.9-0.1,1.4c0,0.5-0.1,0.9-0.2,1.4l-0.1,0.4v0.1h0.4l1.9,0.1v-0.1l-0.1-0.5c-0.1-0.5-0.2-1-0.3-1.4
				c-0.1-0.5-0.1-0.9-0.1-1.4v-4.8c0-0.2,0-0.5,0-0.7c-0.1-2.1-1.8-3.7-4-3.6C265.8,2763.5,264.9,2763.8,264.2,2764.2z" style="fill:#052D41;"/>
			<path class="trazado" d="M279.5,2775.9c1.3-0.5,2.1-1.8,2-3.1c0.1-0.9-0.3-1.7-0.9-2.2c-0.8-0.7-1.8-1.2-2.8-1.5l-0.3-0.1
				c-0.8-0.3-1.4-0.5-1.8-0.7c-0.4-0.2-0.7-0.4-1-0.7c-0.3-0.3-0.4-0.7-0.4-1.1c-0.1-0.6,0.3-1.2,0.8-1.6c0.6-0.4,1.3-0.6,1.9-0.6
				c0.7,0,1.5,0.2,2,0.6c0.7,0.5,1.3,1.1,1.8,1.8l0.1,0.1h0.1v-2.1c-1.3-0.7-2.6-1.1-4.1-1.1c-1.1-0.1-2.1,0.3-3,0.9
				c-0.8,0.5-1.2,1.5-1.2,2.4c0,0.6,0.2,1.2,0.5,1.6c0.4,0.4,0.8,0.8,1.3,1c0.8,0.4,1.5,0.6,2.2,0.9h0.1l0.4,0.1
				c0.8,0.3,1.5,0.6,2.1,1.1c0.5,0.3,0.7,0.9,0.7,1.5c0.1,0.7-0.2,1.4-0.8,1.8c-0.6,0.4-1.3,0.6-1.9,0.6c-0.7,0-1.4-0.2-1.9-0.6
				c-0.7-0.4-1.4-1-1.8-1.6c-0.2-0.2-0.4-0.5-0.6-0.7h-0.1v2.3c1.4,0.8,2.8,1.3,4.4,1.3C278.2,2776,278.9,2776,279.5,2775.9z" style="fill:#052D41;"/>
			<path class="trazado" d="M289.3,2775.5c0.6-0.3,1.1-0.9,1.4-1.5c-0.8,0.5-1.7,0.9-2.5,0.9c-0.6,0-1.1-0.2-1.5-0.6
				c-0.4-0.5-0.5-1.1-0.5-1.7v-8.2h3.3v-0.8h-3.3v-3.2h-0.4c-0.2,0.9-0.5,1.7-1,2.3c-0.6,0.7-1.3,1.1-2,1.2v0.5h1.8h0.1v8.5
				c-0.1,0.8,0.2,1.6,0.7,2.2c0.5,0.6,1.2,0.9,1.9,0.9C288,2776,288.5,2775.9,289.3,2775.5z" style="fill:#052D41;"/>
			<path class="trazado" d="M292.4,2773.9c0,0.5-0.1,0.9-0.2,1.4l-0.1,0.5v0.1h0.4c0,0,1.9,0,1.9-0.1v-0.1l-0.1-0.5
				c-0.1-0.5-0.1-0.9-0.2-1.4c-0.1-0.5-0.1-0.9-0.1-1.4v-8.9h-1.9v0.1l0.1,0.5c0.1,0.5,0.1,0.9,0.2,1.4c0.1,0.4,0.1,0.9,0.1,1.4v5.7
				C292.5,2773,292.5,2773.4,292.4,2773.9z" style="fill:#052D41;"/>
			<path class="trazado" d="M293.3,2760.2c0.3,0,0.6-0.1,0.9-0.4c0.5-0.5,0.5-1.3,0-1.8c-0.2-0.3-0.6-0.4-0.9-0.4s-0.7,0.2-0.9,0.4
				c-0.5,0.5-0.5,1.3,0,1.8C292.6,2760.1,293,2760.2,293.3,2760.2z" style="fill:#052D41;"/>
			<path class="trazado" d="M296.1,2764.5h1.8v8.5c0,0.8,0.3,1.6,0.7,2.2c0.6,0.6,1.3,0.9,2,0.9c0.7,0,1.4-0.2,1.9-0.6
				c0.6-0.3,1.1-0.9,1.4-1.5c-0.8,0.5-1.7,0.9-2.5,0.9c-0.6,0-1.1-0.2-1.5-0.6c-0.4-0.5-0.5-1.1-0.5-1.7v-8.2h3.5v-0.8h-3.5v-3.2
				H299c-0.2,0.9-0.5,1.7-1,2.3c-0.6,0.7-1.3,1.1-2,1.2v0.6H296.1z" style="fill:#052D41;"/>
			<path class="trazado" d="M313.8,2774.1c0,0.6,0,1.2,0.1,1.7v0.1l1.8,0.1v-0.1l-0.1-0.5c-0.1-0.5-0.1-1-0.2-1.4
				c-0.1-0.5-0.1-0.9-0.1-1.4v-8.9h-1.9v0.1l0.1,0.5c0.1,0.5,0.1,0.9,0.2,1.4c0.1,0.4,0.1,0.9,0.1,1.4v5.4c0,0.2,0,0.5,0,0.8
				c-1.2,1.1-2.3,1.7-3.5,1.7c-0.9,0-1.6-0.3-2.1-0.9c-0.6-0.7-1-1.6-0.9-2.4v-8h-1.9v0.1l0.1,0.5c0.1,0.5,0.1,0.9,0.2,1.4
				c0.1,0.4,0.1,0.9,0.1,1.4v4.9c-0.1,1.2,0.4,2.3,1.3,3.3c0.8,0.7,1.8,1,2.8,1c0.8,0,1.6-0.3,2.4-0.7
				C312.9,2775,313.4,2774.6,313.8,2774.1z" style="fill:#052D41;"/>
			<path class="trazado" d="M318.9,2772.9c-0.1,0.8,0.2,1.6,0.7,2.2c0.6,0.6,1.3,0.9,2,0.9c0.7,0,1.4-0.2,1.9-0.6
				c0.6-0.3,1.1-0.9,1.4-1.5c-0.8,0.5-1.7,0.9-2.5,0.9c-0.6,0-1.1-0.2-1.5-0.6c-0.4-0.5-0.5-1.1-0.5-1.7v-8.2h3.5v-0.8h-3.5v-3.2
				H320c-0.2,0.9-0.5,1.7-1,2.3c-0.6,0.7-1.3,1.1-2,1.2v0.5h1.8v8.6H318.9z" style="fill:#052D41;"/>
			<path class="trazado" d="M336.1,2772.7L336.1,2772.7c-0.7,0.6-1.5,1.2-2.2,1.6c-0.7,0.3-1.4,0.5-2.1,0.5s-1.7-0.2-2.3-0.7
				c-0.7-0.4-1.3-1.1-1.6-1.8c-0.3-0.9-0.5-1.8-0.5-2.7c0-0.1,0-0.2,0-0.3h8.7c0-1-0.2-2-0.7-3c-0.4-0.9-1-1.6-1.8-2
				c-0.8-0.4-1.7-0.7-2.5-0.7c-1,0-1.9,0.3-2.7,0.8c-0.9,0.6-1.5,1.4-1.9,2.2c-0.5,1-0.7,2.1-0.7,3.2c0,1.2,0.3,2.3,0.8,3.3
				c0.4,1,1.1,1.7,1.9,2.2c0.9,0.5,1.8,0.8,2.8,0.8c0.7,0,1.4-0.1,1.9-0.4C334.5,2775.1,335.5,2774,336.1,2772.7z M328.3,2765.7
				c0.6-0.9,1.7-1.5,2.7-1.5c0.9-0.1,1.8,0.3,2.3,1.1c0.7,0.9,1,1.9,1,3.1l-7,0.1C327.5,2767.6,327.8,2766.6,328.3,2765.7z" style="fill:#052D41;"/>
			<path class="trazado" d="M235.6,2731.7h-2v2.6h2c2.8,0,5.2,2.3,5.2,5.2c0,2.8-2.3,5.2-5.2,5.2h-2v2.6h2c4.3,0,7.8-3.5,7.8-7.8
				S239.9,2731.7,235.6,2731.7z" style="fill:#052D41;"/>
			<path class="trazado" d="M227.5,2742.1h-2.6c0,4.3,3.5,7.8,7.8,7.8h0.8v-2.6h-0.8C229.9,2747.3,227.5,2744.9,227.5,2742.1z" style="fill:#052D41;"/>
			<polygon class="trazado" points="260.9,2799.1 257.4,2789.8 255.4,2789.8 255.4,2800.5 256.6,2800.5 256.6,2790.9 260.2,2800.5 
				261.5,2800.5 265.1,2790.9 265.1,2800.5 266.3,2800.5 266.3,2789.8 264.3,2789.8" style="fill:#052D41;"/>
			<polygon class="trazado" points="271.2,2789.2 272,2789.2 274.1,2787.1 272.5,2787.1" style="fill:#052D41;"/>
			<polygon class="trazado" points="268.7,2800.5 275.6,2800.5 275.6,2799.3 270,2799.3 270,2795.5 275,2795.5 275,2794.4 270,2794.4 
				270,2791 275.6,2791 275.6,2789.8 268.7,2789.8" style="fill:#052D41;"/>
			<polygon class="trazado" points="284.9,2789.8 283.5,2789.8 280.7,2794.2 277.9,2789.8 276.5,2789.8 279.9,2795 276.3,2800.5 
				277.8,2800.5 280.7,2795.9 283.7,2800.5 285.1,2800.5 281.5,2795" style="fill:#052D41;"/>
			<rect x="286.3" y="2789.8" class="trazado" width="1.2" height="10.6" style="fill:#052D41;"/>
			<path class="trazado" d="M289.5,2796.2c0,1.3,0.4,2.4,1.2,3.3c0.8,0.9,1.9,1.3,3.2,1.3c1.1,0,2.1-0.3,2.8-0.9
				c0.7-0.6,1.1-1.4,1.3-2.4h-1.3c-0.3,1.4-1.2,2.1-2.8,2.1c-0.9,0-1.7-0.3-2.3-1s-0.9-1.5-0.9-2.6v-1.6c0-1.1,0.3-1.9,0.9-2.6
				c0.6-0.7,1.3-1,2.3-1c1.5,0,2.4,0.7,2.8,2.1h1.3c-0.2-1-0.6-1.8-1.3-2.4c-0.7-0.6-1.6-0.9-2.8-0.9c-1.3,0-2.4,0.4-3.2,1.3
				c-0.8,0.9-1.2,1.9-1.2,3.3V2796.2z" style="fill:#052D41;"/>
			<path class="trazado" d="M308.5,2796.2v-2c0-1.3-0.4-2.4-1.2-3.3c-0.8-0.9-1.9-1.3-3.2-1.3c-1.3,0-2.4,0.4-3.2,1.3
				c-0.8,0.9-1.2,1.9-1.2,3.3v2c0,1.3,0.4,2.4,1.2,3.3c0.8,0.9,1.9,1.3,3.2,1.3c1.3,0,2.4-0.4,3.2-1.3
				C308.1,2798.6,308.5,2797.5,308.5,2796.2z M307.3,2796c0,1.1-0.3,2-0.9,2.6c-0.6,0.7-1.4,1-2.3,1c-1,0-1.7-0.3-2.3-1
				s-0.9-1.5-0.9-2.6v-1.6c0-1.1,0.3-2,0.9-2.6c0.6-0.6,1.4-1,2.3-1c1,0,1.8,0.3,2.3,1s0.9,1.5,0.9,2.6V2796z" style="fill:#052D41;"/>
			<polygon class="trazado" points="258.5,2813.5 255.7,2808.1 254.3,2808.1 257.8,2814.7 257.8,2818.7 259.1,2818.7 259.1,2814.7 
				262.6,2808.1 261.2,2808.1" style="fill:#052D41;"/>
			<path class="trazado" d="M268.8,2809.9c0.6-0.7,1.3-1,2.3-1c1.5,0,2.4,0.7,2.8,2.1h1.3c-0.2-1-0.6-1.8-1.3-2.4
				c-0.7-0.6-1.6-0.9-2.8-0.9c-1.3,0-2.4,0.4-3.2,1.3c-0.8,0.9-1.2,1.9-1.2,3.3v2c0,1.3,0.4,2.4,1.2,3.3c0.8,0.9,1.9,1.3,3.2,1.3
				c1.1,0,2.1-0.3,2.8-0.9c0.7-0.6,1.1-1.4,1.3-2.4h-1.3c-0.3,1.4-1.2,2.1-2.8,2.1c-0.9,0-1.7-0.3-2.3-1c-0.6-0.7-0.9-1.5-0.9-2.6
				v-1.6C268,2811.5,268.3,2810.6,268.8,2809.9z" style="fill:#052D41;"/>
			<polygon class="trazado" points="277,2818.7 283.9,2818.7 283.9,2817.6 278.2,2817.6 278.2,2813.7 283.3,2813.7 283.3,2812.6 
				278.2,2812.6 278.2,2809.2 283.9,2809.2 283.9,2808.1 277,2808.1" style="fill:#052D41;"/>
			<polygon class="trazado" points="292.8,2817.1 287.2,2808.1 285.6,2808.1 285.6,2818.7 286.8,2818.7 286.8,2809.6 292.5,2818.7 
				294,2818.7 294,2808.1 292.8,2808.1" style="fill:#052D41;"/>
			<polygon class="trazado" points="295.3,2809.2 298.6,2809.2 298.6,2818.7 299.8,2818.7 299.8,2809.2 303.1,2809.2 303.1,2808.1 
				295.3,2808.1" style="fill:#052D41;"/>
			<path class="trazado" d="M310.8,2812.9c0.4-0.5,0.6-1.1,0.6-1.8c0-1-0.3-1.7-1-2.3c-0.6-0.5-1.5-0.8-2.6-0.8h-3.7v10.6h1.2v-4.6h2.4
				l2.3,4.6h1.4l-2.5-4.8C309.8,2813.7,310.4,2813.4,310.8,2812.9z M305.4,2813v-3.9h2.5c0.7,0,1.3,0.2,1.7,0.5s0.6,0.8,0.6,1.4
				c0,0.6-0.2,1.1-0.6,1.4c-0.4,0.3-1,0.5-1.7,0.5L305.4,2813L305.4,2813z" style="fill:#052D41;"/>
			<path class="trazado" d="M317.5,2807.8c-1.3,0-2.4,0.4-3.2,1.3c-0.8,0.9-1.2,1.9-1.2,3.3v2c0,1.3,0.4,2.4,1.2,3.3
				c0.8,0.9,1.9,1.3,3.2,1.3c1.3,0,2.4-0.4,3.2-1.3c0.8-0.8,1.2-1.9,1.2-3.3v-2c0-1.3-0.4-2.4-1.2-3.3
				C319.9,2808.2,318.8,2807.8,317.5,2807.8z M320.7,2814.2c0,1.1-0.3,2-0.9,2.6c-0.6,0.7-1.4,1-2.3,1c-1,0-1.7-0.3-2.3-1
				s-0.9-1.5-0.9-2.6v-1.6c0-1.1,0.3-2,0.9-2.6c0.6-0.7,1.4-1,2.3-1c1,0,1.8,0.3,2.3,1s0.9,1.5,0.9,2.6V2814.2z" style="fill:#052D41;"/>
			<path class="trazado" d="M326.6,2808.1l-3.9,10.6h1.3l1-2.8h4.7l1,2.8h1.3l-3.9-10.6H326.6z M325.4,2814.9l2-5.6l2,5.6H325.4z" style="fill:#052D41;"/>
			<polygon class="trazado" points="338.6,2817.3 335.2,2808.1 333.2,2808.1 333.2,2818.7 334.4,2818.7 334.4,2809.1 338,2818.7 
				339.3,2818.7 342.9,2809.1 342.9,2818.7 344.1,2818.7 344.1,2808.1 342.1,2808.1" style="fill:#052D41;"/>
			<polygon class="trazado" points="346.5,2818.7 353.4,2818.7 353.4,2817.6 347.7,2817.6 347.7,2813.7 352.8,2813.7 352.8,2812.6 
				347.7,2812.6 347.7,2809.2 353.4,2809.2 353.4,2808.1 346.5,2808.1" style="fill:#052D41;"/>
			<polygon class="trazado" points="350.3,2805.3 349,2807.4 349.8,2807.4 351.9,2805.3" style="fill:#052D41;"/>
			<path class="trazado" d="M361.7,2812.9c0.4-0.5,0.6-1.1,0.6-1.8c0-1-0.3-1.7-1-2.3c-0.6-0.5-1.5-0.8-2.6-0.8H355v10.6h1.2v-4.6h2.4
				l2.3,4.6h1.4l-2.5-4.8C360.7,2813.7,361.3,2813.4,361.7,2812.9z M356.3,2813v-3.9h2.5c0.7,0,1.3,0.2,1.7,0.5s0.6,0.8,0.6,1.4
				c0,0.6-0.2,1.1-0.6,1.4c-0.4,0.3-1,0.5-1.7,0.5L356.3,2813L356.3,2813z" style="fill:#052D41;"/>
			<rect x="364.2" y="2808.1" class="trazado" width="1.2" height="10.6" style="fill:#052D41;"/>
			<path class="trazado" d="M369.5,2809.9c0.6-0.7,1.3-1,2.3-1c1.5,0,2.4,0.7,2.8,2.1h1.3c-0.2-1-0.6-1.8-1.3-2.4
				c-0.7-0.6-1.6-0.9-2.8-0.9c-1.3,0-2.4,0.4-3.2,1.3c-0.8,0.9-1.2,1.9-1.2,3.3v2c0,1.3,0.4,2.4,1.2,3.3c0.8,0.9,1.9,1.3,3.2,1.3
				c1.1,0,2.1-0.3,2.8-0.9c0.7-0.6,1.1-1.4,1.3-2.4h-1.3c-0.3,1.4-1.2,2.1-2.8,2.1c-0.9,0-1.7-0.3-2.3-1c-0.6-0.7-0.8-1.5-0.8-2.6
				v-1.6C368.7,2811.5,368.9,2810.6,369.5,2809.9z" style="fill:#052D41;"/>
			<path class="trazado" d="M381.9,2808.1h-1.5l-3.9,10.6h1.3l1-2.8h4.7l1,2.8h1.3L381.9,2808.1z M379.2,2814.9l2-5.6l2,5.6H379.2z" style="fill:#052D41;"/>
	</g>
</g>
</svg>
