<svg id="Layer_1" data-name="Layer 1" xmlns="http://www.w3.org/2000/svg" width="313" height="286" viewBox="0 0 313 286">
  <g id="Grupo_250" data-name="Grupo 250">
    <path id="mancha" d="M139.07,26.36c75.93-.55,152.24,66,147.74,133.23-4.08,60.92-38.66,94.66-102,95.79C94.18,257.06,27.66,209.1,25.08,139.49,22.73,75.61,71.87,26.85,139.07,26.36Z" style="fill: #f2f2f2"/>
  </g>
  <g id="Grupo_499" data-name="Grupo 499">
    <g id="Grupo_486" data-name="Grupo 486">
      <g id="Grupo_485" data-name="Grupo 485">
        <path id="Trazado_586" data-name="Trazado 586" d="M71.51,161.41c1.51-.25,3.93-.24,3.93,1.88A2,2,0,0,1,74.5,165a2.35,2.35,0,0,1,2,2.35c0,2.59-2.81,2.76-5,2.46Zm.54,3.53H73.3a1.62,1.62,0,0,0,1.62-1.59v0c0-1.58-1.88-1.63-2.82-1.46Zm0,4.4c1.78.29,3.94-.12,3.94-2a2,2,0,0,0-2-2h-1.9Z" style="fill: #231f20"/>
        <path id="Trazado_587" data-name="Trazado 587" d="M81.73,165.09,78,172.83h-.47l-.07-.11,1.64-3.23-2-4.4h.56l1.76,3.82,1.82-3.82Z" style="fill: #231f20"/>
        <path id="Trazado_588" data-name="Trazado 588" d="M85.37,161.41c5.37-.75,6.46,2.48,6.46,4.23s-1.26,4.92-6.46,4.16Zm.55,8c3,.39,5.32-1.22,5.32-3.75,0-2.16-1.63-4.26-5.32-3.75Z" style="fill: #231f20"/>
        <path id="Trazado_589" data-name="Trazado 589" d="M92.85,165.09h.27l.21.58a1.35,1.35,0,0,1,1.21-.72,1.42,1.42,0,0,1,.64.14l-.11.43H95a1.14,1.14,0,0,0-1.56.46,1.19,1.19,0,0,0-.11.26v3.54h-.49Z" style="fill: #231f20"/>
        <path id="Trazado_590" data-name="Trazado 590" d="M95.89,168.7a.6.6,0,0,1,.62.58h0a.6.6,0,0,1-.6.6h0a.59.59,0,0,1-.6-.55h0m0,0a.59.59,0,0,1,.55-.63h0" style="fill: #231f20"/>
        <path id="Trazado_591" data-name="Trazado 591" d="M104.51,169.79h-4v-8.38H101v7.94h3.45Z" style="fill: #231f20"/>
        <path id="Trazado_592" data-name="Trazado 592" d="M105.55,167.24a2.1,2.1,0,0,0,1.87,2.29h.27a2.92,2.92,0,0,0,1.65-.48l.23.36a3,3,0,0,1-1.88.52,2.47,2.47,0,0,1-2.64-2.29h0v-.23a2.32,2.32,0,0,1,2.16-2.46h.17a2.17,2.17,0,0,1,2.19,2.15h0v.14Zm3.44-.43a1.6,1.6,0,0,0-1.61-1.46,1.81,1.81,0,0,0-1.74,1.46Z" style="fill: #231f20"/>
        <path id="Trazado_593" data-name="Trazado 593" d="M110.25,167.42a2.47,2.47,0,1,1,2.41,2.55,2.39,2.39,0,0,1-2.45-2.33.54.54,0,0,1,0-.18m4.42,0a2,2,0,0,0-1.87-2.07h-.1a2,2,0,0,0-2,2v.12a2,2,0,0,0,1.88,2.1h.05a2,2,0,0,0,2-2h0v-.09" style="fill: #231f20"/>
        <path id="Trazado_594" data-name="Trazado 594" d="M119.49,167.05v2.74h-.55v-8.34c2.55-.58,4.49.54,4.49,2.62s-1.78,3.22-3.94,3m0-.51c2.07.22,3.4-.83,3.4-2.48s-1.37-2.58-3.4-2.22Z" style="fill: #231f20"/>
        <path id="Trazado_595" data-name="Trazado 595" d="M124.21,165.09h.28l.22.58a1.28,1.28,0,0,1,1.2-.72,1.49,1.49,0,0,1,.63.14l-.1.43h-.07a1.08,1.08,0,0,0-.53-.14,1.19,1.19,0,0,0-1.13.86v3.54h-.5Z" style="fill: #231f20"/>
        <path id="Trazado_596" data-name="Trazado 596" d="M131.15,169a2.08,2.08,0,0,1-2.91.55,2.1,2.1,0,0,1-.92-1.75v-2.71h.51v2.71a1.58,1.58,0,0,0,1.46,1.7h.18a1.7,1.7,0,0,0,1.69-1.7v-2.71h.49v4.68h-.24Z" style="fill: #231f20"/>
        <path id="Trazado_597" data-name="Trazado 597" d="M133.39,162.68a.51.51,0,0,1,.52.51h0a.51.51,0,0,1-.57.43.48.48,0,0,1,0-1h0m-.23,2.42h.49v4.69h-.49Z" style="fill: #231f20"/>
        <path id="Trazado_598" data-name="Trazado 598" d="M135.65,165.77A1.48,1.48,0,0,1,137,165a1.71,1.71,0,0,0,3.14,0,1.7,1.7,0,0,1,1.77,1.63,1.22,1.22,0,0,1,0,.27v2.94h-.49v-2.94a1.29,1.29,0,0,0-1.07-1.46h-.24a1.38,1.38,0,0,0-1.34,1.4.08.08,0,0,1,0,.07v2.94h-.48v-2.94a1.29,1.29,0,0,0-1.08-1.46H137a1.34,1.34,0,0,0-1.32,1.36v3.05h-.49v-4.68h.27Z" style="fill: #231f20"/>
        <path id="Trazado_599" data-name="Trazado 599" d="M143.59,168.85l-.21.93h-.27v-8.37l.44-.15h0V166a2.32,2.32,0,0,1,2-1.09,2.5,2.5,0,0,1,0,5,2.28,2.28,0,0,1-2-1.1m4-1.4a2,2,0,0,0-1.88-2.09h-.07a1.88,1.88,0,0,0-2,1.77v.39a2,2,0,0,0,4,.17v-.22" style="fill: #231f20"/>
        <path id="Trazado_600" data-name="Trazado 600" d="M148.68,167.42a2.48,2.48,0,1,1,2.46,2.51,2.4,2.4,0,0,1-2.46-2.33v-.18m4.44,0a2,2,0,0,0-1.88-2.07h-.15a2,2,0,0,0-2,2v.12a2,2,0,0,0,1.92,2.1h.07a2,2,0,0,0,2-2h0v-.1" style="fill: #231f20"/>
        <path id="Trazado_601" data-name="Trazado 601" d="M154.28,167.42a2.46,2.46,0,1,1,2.43,2.55,2.39,2.39,0,0,1-2.45-2.33.54.54,0,0,1,0-.18m4.42,0a2,2,0,0,0-1.87-2.07h-.1a2,2,0,0,0-2,2v.12a2,2,0,0,0,1.9,2.1h.06a2,2,0,0,0,2-2v-.11" style="fill: #231f20"/>
        <path id="Trazado_602" data-name="Trazado 602" d="M160.53,165.77a1.48,1.48,0,0,1,1.35-.82,1.69,1.69,0,0,0,2.21.93A1.73,1.73,0,0,0,165,165a1.7,1.7,0,0,1,1.77,1.62h0v3.21h-.49v-2.94a1.27,1.27,0,0,0-1.07-1.46H165a1.37,1.37,0,0,0-1.33,1.4h0v3h-.49v-2.94a1.27,1.27,0,0,0-1.07-1.46h-.24a1.34,1.34,0,0,0-1.32,1.36h0a.2.2,0,0,0,0,.11v2.94H160v-4.68h.28Z" style="fill: #231f20"/>
      </g>
    </g>
    <path id="Trazado_603" data-name="Trazado 603" d="M51,130.91l1.72-6.27L58.94,123l4.58,4.58-1.68,6.26-6.26,1.68Zm-6.14-9.26,1-3.75,3.8-1,2.81,2.81-1,3.75-3.8,1Zm-.21-5-1.47,5.49,4,4,3.81-1-1.68,6.27,5.81,5.82,8-2.13,2.13-8-5.82-5.81L53.07,123l1-3.82-4-4Z" style="fill: #a47328"/>
    <path id="Trazado_604" data-name="Trazado 604" d="M67.2,116.09l1.17-4.31,4.29-1.15,3.16,3.15-1.16,4.3-4.3,1.17ZM73.11,109l-6,1.62-1.61,6,4.37,4.38,6-1.57,1.61-6Z" style="fill: #a47328"/>
    <g id="Grupo_489" data-name="Grupo 489">
      <g id="Grupo_487" data-name="Grupo 487">
        <path id="Trazado_605" data-name="Trazado 605" d="M75.28,145.6v7.34H71.53V127.87c9.26-2,15.55,1.94,15.55,8.36,0,6.12-5.28,9.72-11.8,9.37m0-3.38c5.19.43,7.92-2.34,7.92-6,0-3.31-2.81-6.12-7.92-5.33Z" style="fill: #231f20"/>
        <path id="Trazado_606" data-name="Trazado 606" d="M109.37,127.69V153h-3.65v-6.64L94.59,135.6,94.73,153H91.1V127.54l.58-.16,14.06,14.06V127.69Z" style="fill: #231f20"/>
        <path id="Trazado_607" data-name="Trazado 607" d="M115.14,128.73l3.75-1V153h-3.75Z" style="fill: #231f20"/>
      </g>
      <path id="Trazado_608" data-name="Trazado 608" d="M151,127.69v25.24h-2.62V145l-12.24-12v19.87H133.5v-25.3l.4-.26,14.43,14.48V127.69Z" style="fill: #231f20"/>
      <path id="Trazado_609" data-name="Trazado 609" d="M156.6,145.68A5.53,5.53,0,0,0,162,151.3h.47a8.87,8.87,0,0,0,4.82-1.37c.32.58.72,1.19,1,1.73a10.67,10.67,0,0,1-6.12,1.69,7.84,7.84,0,0,1-8.12-7.49v-.16a7.25,7.25,0,0,1,6.86-7.62h.42a7,7,0,0,1,6.93,7.13h0a4.17,4.17,0,0,1,0,.5Zm9-1.88a4.13,4.13,0,0,0-4.21-3.75,4.69,4.69,0,0,0-4.54,3.75Z" style="fill: #231f20"/>
      <path id="Trazado_610" data-name="Trazado 610" d="M185.77,127.26v25.67h-1.41l-1.05-2.51a6.62,6.62,0,0,1-5.62,2.94,7.66,7.66,0,0,1,0-15.31,6.33,6.33,0,0,1,5.53,2.9v-13m0,17.89v-.43a5.06,5.06,0,0,0-4.83-5.29h-.31a5.63,5.63,0,1,0-.07,11.25,5.25,5.25,0,0,0,5.22-5.26h0v-.28" style="fill: #231f20"/>
      <path id="Trazado_611" data-name="Trazado 611" d="M191,145.68a5.54,5.54,0,0,0,5.44,5.62h.47a8.82,8.82,0,0,0,4.81-1.37c.32.58.73,1.19,1,1.73a10.62,10.62,0,0,1-6.11,1.69,7.81,7.81,0,0,1-8.12-7.49v-.16a7.24,7.24,0,0,1,6.87-7.62h.43a7,7,0,0,1,6.93,7.13v.5Zm9-1.88a4.13,4.13,0,0,0-4.21-3.75,4.69,4.69,0,0,0-4.53,3.75Z" style="fill: #231f20"/>
      <path id="Trazado_612" data-name="Trazado 612" d="M205.55,138.52h1.37l1,1.65a3.84,3.84,0,0,1,3.49-2.07,4.67,4.67,0,0,1,2,.46l-.47,2.23-.21.08a3.3,3.3,0,0,0-4.5,1.24h0a3.13,3.13,0,0,0-.22.45v9.73l-2.48.66Z" style="fill: #231f20"/>
      <path id="Trazado_613" data-name="Trazado 613" d="M218.32,127.26v25.68h-2.56v-25" style="fill: #231f20"/>
      <path id="Trazado_614" data-name="Trazado 614" d="M234.51,152.93h-1.43l-.87-2a6,6,0,0,1-5.36,2.51c-3.63,0-5.9-2.19-5.9-4.82s2.27-5,5.9-5a7.79,7.79,0,0,1,5.21,2v-1a4.15,4.15,0,0,0-3.81-4.46h0a4,4,0,0,0-.49,0,7.63,7.63,0,0,0-4,1.26l-.94-1.8a9.49,9.49,0,0,1,5.29-1.58,6.27,6.27,0,0,1,6.49,6v0q0,.32,0,.63Zm-2.46-5.45a6.55,6.55,0,0,0-4.85-2c-2.37,0-3.75,1.44-3.75,3s1.48,3.06,3.75,3.06a5,5,0,0,0,4.82-3.89Z" style="fill: #231f20"/>
      <path id="Trazado_615" data-name="Trazado 615" d="M240.26,140.6a6.29,6.29,0,0,1,5.07-2.55,6,6,0,0,1,6.23,5.75h0v9.14H249v-8.35a4.17,4.17,0,0,0-3.88-4.42h-.37a4.37,4.37,0,0,0-4.38,4.36h0V153h-2.52V138.52h1.41Z" style="fill: #231f20"/>
      <path id="Trazado_616" data-name="Trazado 616" d="M269.19,127.26v25.67h-1.42l-1-2.51a6.62,6.62,0,0,1-5.62,2.94,7.66,7.66,0,0,1,0-15.31,6.34,6.34,0,0,1,5.54,2.9v-13m0,17.89v-.43a5.06,5.06,0,0,0-4.83-5.29h-.31a5.63,5.63,0,1,0-.07,11.25h0a5.25,5.25,0,0,0,5.22-5.26h0v-.28" style="fill: #231f20"/>
    </g>
  </g>
</svg>
