<svg data-name="Componente 47 – 1" xmlns="http://www.w3.org/2000/svg" width="60.588" height="48.91" viewBox="0 0 60.588 48.91">
  <g data-name="Componente 44 – 1">
    <path data-name="Trazado 60" d="M30.2,48.866a41.208,41.208,0,0,1-15.856-2.22A19.049,19.049,0,0,1,2.17,33.5,47.54,47.54,0,0,1,0,19.557,19.251,19.251,0,0,1,2.43,9.626C4.546,6.09,7.956,4.29,11.6,2.888A44.977,44.977,0,0,1,26.162.049,62.6,62.6,0,0,1,39.406.921c9.646,1.69,16.032,7.322,19.421,16.444a28,28,0,0,1,1.506,13.582c-.8,6.094-4.247,10.3-9.447,13.211A38.08,38.08,0,0,1,30.2,48.866Z" transform="translate(60.588 48.91) rotate(180)" fill="#122c3f" opacity="0.9"/>
  </g>
  <path data-name="Trazado 773" d="M-8.211-10.676h4.658c2.244,0,2.448.034,2.686.238.2.2.238.408.238,2.686V-3.06H.595V-7.752c0-2.278.034-2.482.238-2.686s.442-.238,2.686-.238H8.245v-1.156H3.519c-2.244,0-2.482-.034-2.686-.238s-.238-.408-.238-2.686v-4.692H-.629v4.692c0,2.278-.034,2.448-.238,2.686-.238.2-.442.238-2.686.238H-8.211Z" transform="translate(30.294 34.455)" fill="#fff"/>
</svg>
