<?xml version="1.0" encoding="utf-8"?>
<!-- Generator: Adobe Illustrator 26.3.1, SVG Export Plug-In . SVG Version: 6.00 Build 0)  -->
<svg version="1.1" id="Layer_1" xmlns="http://www.w3.org/2000/svg" xmlns:xlink="http://www.w3.org/1999/xlink" x="0px" y="0px"
	 viewBox="0 0 510.34 809.17" style="enable-background:new 0 0 510.34 809.17;" xml:space="preserve">
<style type="text/css">
	.st0{opacity:0.9;}
	.st1{clip-path:url(#SVGID_00000048459930484406817320000002864634845485785258_);}
	.st2{fill:#4971B5;}
	.st3{clip-path:url(#SVGID_00000183233518419302335010000018430960057634020004_);}
	.st4{fill:#E99CB6;}
	.st5{fill:#CD706A;}
	.st6{clip-path:url(#SVGID_00000055706077590272840050000009499761172802952872_);}
	.st7{fill:#FFCC7B;}
	.st8{clip-path:url(#SVGID_00000150088387183747116210000005126672104203093386_);}
	.st9{clip-path:url(#SVGID_00000124152481807236435930000016136356555145362360_);}
	.st10{clip-path:url(#SVGID_00000084526456269519808600000011021526091571584701_);}
	.st11{clip-path:url(#SVGID_00000044864577538063110720000005248753298576157583_);}
	.st12{fill:#F0C451;}
	.st13{clip-path:url(#SVGID_00000093861966543878167180000004840578761970530448_);}
	.st14{clip-path:url(#SVGID_00000167378882969547466590000009546940824986867874_);}
	.st15{clip-path:url(#SVGID_00000098903768189264837160000001809551194686636700_);}
	.st16{clip-path:url(#SVGID_00000029752851778569469760000017917105836588630153_);}
	.st17{clip-path:url(#SVGID_00000163765773104627594820000006921026101422462395_);}
	.st18{clip-path:url(#SVGID_00000137119620337963186390000008313622733799964291_);}
	.st19{fill:#052D41;}
	.st20{fill:#C6856B;}
	.st21{clip-path:url(#SVGID_00000023282292961276061020000011701011579063712943_);}
	.st22{clip-path:url(#SVGID_00000063598798914205842330000002727112255110922922_);}
	.st23{clip-path:url(#SVGID_00000124142851009272756450000011166692451247109266_);}
	.st24{clip-path:url(#SVGID_00000096035017237826767290000015734383959213682342_);}
	.st25{clip-path:url(#SVGID_00000013872631077694019980000006337934999487385999_);}
	.st26{clip-path:url(#SVGID_00000146468976538995377420000005968052715442631328_);}
	.st27{clip-path:url(#SVGID_00000129204633620215750670000012234252486576259479_);}
	.st28{clip-path:url(#SVGID_00000062153573344183040850000007769781135379090830_);}
	.st29{fill:#CC9472;}
	.st30{fill:#EACEB4;}
	.st31{fill:#E3BD95;}
	.st32{clip-path:url(#SVGID_00000122686693855351640550000013009516254150180278_);}
	.st33{fill:#C3C0B8;}
	.st34{fill:none;}
</style>
<g id="Grupo_218_00000158708231129426359380000001563260618268429963_" transform="translate(269.086 329.363)" class="st0">
	<g id="Grupo_139_00000133521951633512493590000016977176265242664324_">
		<g>
			<defs>
				<rect id="SVGID_1_" x="-0.78" y="0" width="45.51" height="38.15"/>
			</defs>
			<clipPath id="SVGID_00000065055164918749932430000016979515675019163795_">
				<use xlink:href="#SVGID_1_"  style="overflow:visible;"/>
			</clipPath>
			
				<g id="Grupo_138_00000023270165367379729880000008939382118052926638_" style="clip-path:url(#SVGID_00000065055164918749932430000016979515675019163795_);">
				<path id="Trazado_267_00000160894614547322889670000012058314390318185901_" class="st2" d="M24.07,27.71
					c-2.53-0.22-4.68,1.8-6.16,3.86s-2.8,4.43-5.07,5.57c-3.47,1.74-7.88-0.27-10.08-3.46s-2.73-7.21-3.11-11.07
					C-0.98,16.21-1.3,9.43,1.55,3.66c0.4-0.94,1.03-1.77,1.82-2.42c0.89-0.58,1.91-0.92,2.97-1.02c4.21-0.6,8.5,0.04,12.35,1.83
					c2.46,1.15,5.1,2.82,7.69,1.98c1.12-0.52,2.21-1.12,3.25-1.79c3.28-1.62,7.45-0.19,9.93,2.52s3.55,6.39,4.22,9.99
					c0.73,3.95,1.04,7.97,0.93,11.99c-0.09,3.31-0.59,6.89-2.92,9.26c-2.65,2.54-6.71,2.87-9.74,0.8
					C28.29,34.06,27.08,27.97,24.07,27.71"/>
			</g>
		</g>
	</g>
</g>
<g id="Grupo_219_00000026862475822540118520000014623288643535293880_" transform="translate(318.668 432.9)">
	<g>
		<defs>
			<rect id="SVGID_00000062166797998760795760000009458016992003608507_" x="-0.78" y="0" width="42.82" height="60.93"/>
		</defs>
		<clipPath id="SVGID_00000047020420858615471710000007698510973799436461_">
			<use xlink:href="#SVGID_00000062166797998760795760000009458016992003608507_"  style="overflow:visible;"/>
		</clipPath>
		
			<g id="Grupo_141_00000031923876911515509540000006963403029060046000_" style="clip-path:url(#SVGID_00000047020420858615471710000007698510973799436461_);">
			<path id="Trazado_268_00000100380807441198832170000011194891853660934034_" class="st4" d="M14.11,7.97
				c3.25-6.93,11.51-9.91,18.44-6.66c3.04,1.43,5.46,3.91,6.81,6.99c0.74,1.87,1.27,3.81,1.58,5.8c0.84,3.53,1.18,7.16,1.02,10.78
				c-0.22,2.09-0.66,4.15-1.3,6.14c-2.14,7.06-5.52,13.69-9.97,19.58c-2.11,2.96-4.72,5.53-7.72,7.59
				c-3.03,2.06-6.69,2.99-10.33,2.63c-1.75-0.28-3.46-0.8-5.08-1.54c-3.2-1.36-6.49-3.3-7.77-6.54c-0.88-2.56-0.69-5.37,0.54-7.78
				c1.23-2.38,2.85-4.54,4.79-6.39c1.46-1.5,3.08-3.65,2.02-5.45c-0.26-0.44-0.66-0.79-0.95-1.2c-0.62-1.06-0.9-2.27-0.82-3.49
				C5.3,24.82,5.7,20.9,8.09,18.17c1.03-1.18,2.39-2.08,3.18-3.43C12.59,12.49,12.36,9.09,14.11,7.97"/>
		</g>
	</g>
</g>
<path id="Trazado_325_00000049914911850300748430000011750299601405582990_" class="st5" d="M286.93,242.09
	c2.1-1.7,3.84-3.9,6.23-5.16c2.39-1.26,5.83-1.22,7.31,1.05c0.59,1.09,0.89,2.31,0.87,3.55c0.41,7.92-1.13,15.82-4.49,23
	c-0.32,0.86-0.88,1.62-1.61,2.17c-0.75,0.41-1.6,0.57-2.45,0.47c-2.78-0.24-5.37-1.55-7.2-3.66c-0.25-0.36-0.6-0.63-1.01-0.78
	c-0.46-0.06-0.93,0.07-1.3,0.34c-1.71,1-3.12,2.42-4.77,3.5c-1.65,1.08-3.72,1.82-5.6,1.19c-1.88-0.62-3.1-2.45-3.89-4.27
	c-1.8-4.17-2.1-8.83-2.03-13.38c-0.07-2.6,0.32-5.19,1.15-7.65c0.86-2.49,2.75-4.48,5.2-5.45c2.47-0.8,5.19-0.17,7.05,1.65
	c1.12,1.12,1.85,2.64,3.15,3.55c1.3,0.92,3.56,0.78,3.39-0.12"/>
<g id="Grupo_220_00000158747717334859447910000010770015537900112035_" transform="translate(282.24 197.175)" class="st0">
	<g id="Grupo_145_00000103944869434182538950000016789267649046086023_">
		<g>
			<defs>
				<rect id="SVGID_00000083064192860111701410000013026476751710741632_" x="-0.78" y="0" width="7.27" height="7.2"/>
			</defs>
			<clipPath id="SVGID_00000013872998933440980200000013355593086687611574_">
				<use xlink:href="#SVGID_00000083064192860111701410000013026476751710741632_"  style="overflow:visible;"/>
			</clipPath>
			
				<g id="Grupo_144_00000020358241478223501720000003246721999256683941_" style="clip-path:url(#SVGID_00000013872998933440980200000013355593086687611574_);">
				<path id="Trazado_270_00000050641895753722710340000002668429262881353876_" class="st7" d="M1.72,0
					c-1.14,0.37-2,1.31-2.27,2.47c-0.33,0.97-0.3,2.03,0.08,2.99c0.4,0.96,1.3,1.62,2.33,1.72c0.69-0.01,1.37-0.2,1.96-0.55
					C4.64,6.26,5.36,5.69,5.9,4.98c0.51-0.74,0.7-1.65,0.52-2.53C6.24,1.57,5.66,0.83,4.85,0.43C4.11,0.14,3.31,0.02,2.52,0.1
					C2.15,0.11,1.77,0.13,1.72,0"/>
			</g>
		</g>
	</g>
</g>
<g id="Grupo_221_00000092428212123679873980000017611556391177908360_" transform="translate(294.817 199.364)" class="st0">
	<g id="Grupo_148_00000045610423226679147460000005979188654270739343_">
		<g>
			<defs>
				<rect id="SVGID_00000116925232574085182850000010337487915646709401_" x="-0.78" y="0" width="7.7" height="6.47"/>
			</defs>
			<clipPath id="SVGID_00000026152801683555618790000012220440814744803002_">
				<use xlink:href="#SVGID_00000116925232574085182850000010337487915646709401_"  style="overflow:visible;"/>
			</clipPath>
			
				<g id="Grupo_147_00000163059135166988146820000005446522781286233233_" style="clip-path:url(#SVGID_00000026152801683555618790000012220440814744803002_);">
				<path id="Trazado_271_00000052070282403924209100000018260080891917996195_" class="st7" d="M1.83,0.45
					C1.04,0.41,0.29,0.79-0.14,1.46c-0.42,0.66-0.64,1.42-0.63,2.21C-0.8,4.04-0.75,4.43-0.64,4.8c0.3,0.75,0.93,1.31,1.71,1.52
					c0.77,0.2,1.58,0.2,2.35,0c1.03-0.19,1.98-0.67,2.73-1.39C6.6,4.51,6.88,3.93,6.92,3.3c-0.01-0.38-0.1-0.75-0.27-1.08
					c-0.43-0.95-1.23-1.68-2.2-2.04C3.59-0.16,2.61-0.07,1.83,0.45"/>
			</g>
		</g>
	</g>
</g>
<g id="Grupo_222_00000093153881353663128400000004037557901879714212_" transform="translate(284.101 211.199)" class="st0">
	<g id="Grupo_151_00000014636390980510445860000015695842522073801139_">
		<g>
			<defs>
				<rect id="SVGID_00000113330372101761014170000011347235087804286887_" x="-0.78" y="0" width="6.35" height="6.51"/>
			</defs>
			<clipPath id="SVGID_00000125579890653738888850000006040579782094551469_">
				<use xlink:href="#SVGID_00000113330372101761014170000011347235087804286887_"  style="overflow:visible;"/>
			</clipPath>
			
				<g id="Grupo_150_00000041995246570588104980000007640286792963215777_" style="clip-path:url(#SVGID_00000125579890653738888850000006040579782094551469_);">
				<path id="Trazado_272_00000107586353037693038010000007215967077313393802_" class="st7" d="M0.82,0.42
					c-1.67,1.13-2.1,3.4-0.97,5.07c0.09,0.14,0.19,0.27,0.3,0.39c0.17,0.2,0.37,0.36,0.6,0.48c0.23,0.1,0.49,0.15,0.74,0.15
					C2.95,6.39,4.25,5.56,4.97,4.3c0.78-0.68,0.86-1.87,0.18-2.66C5.11,1.59,5.06,1.54,5.01,1.5C4.46,0.84,3.73,0.35,2.92,0.08
					C2.2-0.08,1.45,0.04,0.82,0.42"/>
			</g>
		</g>
	</g>
</g>
<g id="Grupo_223_00000129166083788743730220000008254477365533982627_" transform="translate(267.426 210.449)" class="st0">
	<g id="Grupo_154_00000068677859462808167020000006553062709740437144_">
		<g>
			<defs>
				<rect id="SVGID_00000026862844366470240710000012471119417372468883_" x="-0.78" y="0" width="7.16" height="7.29"/>
			</defs>
			<clipPath id="SVGID_00000086685371373182317940000007663935524613928121_">
				<use xlink:href="#SVGID_00000026862844366470240710000012471119417372468883_"  style="overflow:visible;"/>
			</clipPath>
			
				<g id="Grupo_153_00000046303222254190020510000009579293554829048767_" style="clip-path:url(#SVGID_00000086685371373182317940000007663935524613928121_);">
				<path id="Trazado_273_00000144323848872263925850000013957224953919713191_" class="st7" d="M1.59,0.29
					C0.34,0.97-0.52,2.18-0.75,3.58c-0.19,1.42,0.53,2.8,1.8,3.46c1.62,0.56,3.42,0,4.43-1.39C5.87,5.17,6.15,4.62,6.3,4.02
					C6.51,3.11,6.31,2.15,5.76,1.4C4.77,0.13,3.06-0.32,1.59,0.29"/>
			</g>
		</g>
	</g>
</g>
<g id="Grupo_224_00000070824880058050609830000013381387089215347388_" transform="translate(408.814 336.327)" class="st0">
	<g id="Grupo_157_00000018196448360906563140000012269604235456987316_">
		<g>
			<defs>
				<rect id="SVGID_00000048463600034263795570000000581475320077486490_" x="-0.78" y="0" width="10.96" height="10.39"/>
			</defs>
			<clipPath id="SVGID_00000004539049444251695910000012871535838542506173_">
				<use xlink:href="#SVGID_00000048463600034263795570000000581475320077486490_"  style="overflow:visible;"/>
			</clipPath>
			
				<g id="Grupo_156_00000077313047947227376120000002738945922093560738_" style="clip-path:url(#SVGID_00000004539049444251695910000012871535838542506173_);">
				<path id="Trazado_274_00000021814571428452841080000016185356165124343730_" class="st12" d="M6.15,0.47
					c0.96,0.3,1.78,0.93,2.31,1.78c0.52,0.85,0.92,1.76,1.2,2.72c0.29,0.77,0.47,1.58,0.52,2.4c0.05,0.83-0.24,1.65-0.8,2.26
					c-0.64,0.57-1.49,0.85-2.35,0.75c-0.84-0.1-1.66-0.34-2.42-0.72C3.74,9.3,2.92,8.82,2.18,8.24c-0.99-0.9-1.79-2-2.32-3.23
					c-0.59-1.24-1.01-2.82-0.15-3.89c0.8-0.74,1.86-1.13,2.95-1.09C3.84-0.03,5.02,0.12,6.15,0.47"/>
			</g>
		</g>
	</g>
</g>
<g id="Grupo_225_00000055667612975222366450000002446390118112457099_" transform="translate(403.997 347.191)" class="st0">
	<g id="Grupo_160_00000043414770668564625060000008284895693467374746_">
		<g>
			<defs>
				<rect id="SVGID_00000159456506003558451070000012057504241310374831_" x="-0.78" y="0" width="8.87" height="8.71"/>
			</defs>
			<clipPath id="SVGID_00000101081437060393522490000007377809176874565782_">
				<use xlink:href="#SVGID_00000159456506003558451070000012057504241310374831_"  style="overflow:visible;"/>
			</clipPath>
			
				<g id="Grupo_159_00000170959956463238643820000009003290352266590119_" style="clip-path:url(#SVGID_00000101081437060393522490000007377809176874565782_);">
				<path id="Trazado_275_00000096772921927028746020000002904370659907116444_" class="st12" d="M4.5,0.34
					c0.88,0.19,1.66,0.69,2.2,1.42C7.23,2.48,7.61,3.3,7.83,4.17c0.21,0.68,0.3,1.4,0.24,2.12C8.01,7,7.67,7.67,7.12,8.14
					C6.61,8.51,6,8.71,5.37,8.71C3.43,8.63,1.63,7.7,0.44,6.17c-0.42-0.46-0.76-0.98-1-1.56c-0.52-1.44-0.1-3.05,1.07-4.05
					C1.66-0.38,3.16,0.1,4.5,0.34"/>
			</g>
		</g>
	</g>
</g>
<g id="Grupo_226_00000144320633571818941590000005471560648280868511_" transform="translate(410.041 360.424)" class="st0">
	<g id="Grupo_163_00000051348203527778020010000016495070920676160159_">
		<g>
			<defs>
				<rect id="SVGID_00000065783919795736873280000003979084237786610833_" x="-0.78" y="0" width="8.56" height="8.99"/>
			</defs>
			<clipPath id="SVGID_00000077292927879110238850000014774881837881100465_">
				<use xlink:href="#SVGID_00000065783919795736873280000003979084237786610833_"  style="overflow:visible;"/>
			</clipPath>
			
				<g id="Grupo_162_00000026165148296840808350000007780402713496320699_" style="clip-path:url(#SVGID_00000077292927879110238850000014774881837881100465_);">
				<path id="Trazado_276_00000076575158644086613630000005435700492464803480_" class="st12" d="M4.49,0.04
					c1.15-0.13,2.25,0.51,2.72,1.57c0.43,1.05,0.62,2.17,0.57,3.3c0.06,0.64-0.01,1.29-0.2,1.91C7.07,8.13,5.56,8.74,4.16,8.93
					C3.47,9.06,2.76,9.01,2.08,8.81c-0.9-0.37-1.62-1.07-2.01-1.97c-0.38-0.89-0.63-1.82-0.74-2.78C-0.86,3.38-0.8,2.65-0.52,2
					c0.18-0.29,0.42-0.53,0.7-0.72c0.78-0.57,1.71-0.91,2.67-0.98C3.4,0.26,3.95,0.17,4.49,0.04"/>
			</g>
		</g>
	</g>
</g>
<g id="Grupo_227_00000076594015822970900620000003165404392810001585_" transform="translate(405.822 370.899)" class="st0">
	<g id="Grupo_166_00000070093300024542339630000004602274116712793016_">
		<g>
			<defs>
				<rect id="SVGID_00000065786621703566316910000008109467707713286529_" x="-0.78" y="0" width="8.58" height="7.23"/>
			</defs>
			<clipPath id="SVGID_00000018229705937906462770000008459839697226518918_">
				<use xlink:href="#SVGID_00000065786621703566316910000008109467707713286529_"  style="overflow:visible;"/>
			</clipPath>
			
				<g id="Grupo_165_00000101064956027725493200000015484097351412755100_" style="clip-path:url(#SVGID_00000018229705937906462770000008459839697226518918_);">
				<path id="Trazado_277_00000026135882359057770590000003451421718253504413_" class="st12" d="M4.73,0.29
					C5.81,0.26,6.58,1.3,7.06,2.26c0.45,0.79,0.71,1.67,0.74,2.58c0.02,0.92-0.48,1.78-1.3,2.21C5.85,7.27,5.15,7.29,4.49,7.11
					C3.3,6.96,2.16,6.57,1.13,5.97c-1.06-0.65-1.76-1.75-1.9-2.98c-0.1-1.26,0.69-2.42,1.89-2.81c0.31-0.07,0.63-0.1,0.95-0.1
					l1.89-0.07C4.33-0.01,4.75-0.01,4.73,0.29"/>
			</g>
		</g>
	</g>
</g>
<g id="Grupo_228_00000065791082112609274710000006942625979682650004_" transform="translate(182.811 367.435)" class="st0">
	<g id="Grupo_169_00000065049173027010296210000002078943471363362711_">
		<g>
			<defs>
				<rect id="SVGID_00000176018373735469202240000004067454541955538054_" x="-0.78" y="0" width="8.49" height="10.49"/>
			</defs>
			<clipPath id="SVGID_00000047747562265096924940000005221700818284339118_">
				<use xlink:href="#SVGID_00000176018373735469202240000004067454541955538054_"  style="overflow:visible;"/>
			</clipPath>
			
				<g id="Grupo_168_00000096023661518259964080000016131600842430637756_" style="clip-path:url(#SVGID_00000047747562265096924940000005221700818284339118_);">
				<path id="Trazado_278_00000034781815052604755900000001897549433989505152_" class="st12" d="M1.99,0.41
					c-0.9,0.31-1.65,0.97-2.07,1.83C-0.49,3.1-0.72,4.03-0.75,4.98c-0.17,1.4,0.14,2.81,0.86,4.01c0.78,1.21,2.27,1.75,3.64,1.32
					c0.38-0.17,0.73-0.4,1.04-0.68c1.25-1.08,2.17-2.5,2.65-4.09c0.27-0.81,0.34-1.67,0.21-2.51C7.39,1.76,6.51,0.7,5.32,0.21
					C4.22-0.09,3.04-0.02,1.99,0.41"/>
			</g>
		</g>
	</g>
</g>
<g id="Grupo_229_00000010287419198254729220000011480952195504203675_" transform="translate(182.446 353.297)" class="st0">
	<g id="Grupo_172_00000030478064579269285530000007013980119919375002_">
		<g>
			<defs>
				<rect id="SVGID_00000140719467421658906210000016432103570857070507_" x="-0.78" y="0" width="7.21" height="8.87"/>
			</defs>
			<clipPath id="SVGID_00000178192348377412432310000009055653585229013695_">
				<use xlink:href="#SVGID_00000140719467421658906210000016432103570857070507_"  style="overflow:visible;"/>
			</clipPath>
			
				<g id="Grupo_171_00000078029390226934898390000003032540203318329782_" style="clip-path:url(#SVGID_00000178192348377412432310000009055653585229013695_);">
				<path id="Trazado_279_00000183244025887177573210000018327276235166066094_" class="st12" d="M1.66,0.63
					c-1.12,0.45-1.95,1.4-2.23,2.57c-0.27,1.15-0.27,2.36,0,3.51c0.06,0.52,0.26,1.01,0.58,1.42c0.43,0.4,0.98,0.64,1.57,0.68
					c0.62,0.11,1.26,0.07,1.87-0.1C4.33,8.4,5.07,7.76,5.52,6.93C5.96,6.11,6.24,5.2,6.35,4.28c0.19-0.85,0.11-1.73-0.24-2.53
					C5.76,1.13,5.23,0.64,4.6,0.32C4.4,0.2,4.18,0.11,3.96,0.05C3.06-0.17,2.2,0.45,1.66,0.63"/>
			</g>
		</g>
	</g>
</g>
<g id="Grupo_230_00000158007290142279371590000013374595119505972138_" transform="translate(179.623 336.641)" class="st0">
	<g id="Grupo_175_00000143584720645319901180000011514667557737969292_">
		<g>
			<defs>
				<rect id="SVGID_00000137850198399683102910000013178527209132136077_" x="-0.78" y="0" width="8.11" height="10.56"/>
			</defs>
			<clipPath id="SVGID_00000125586595122752532370000002570174357626985363_">
				<use xlink:href="#SVGID_00000137850198399683102910000013178527209132136077_"  style="overflow:visible;"/>
			</clipPath>
			
				<g id="Grupo_174_00000100376240218464718830000002308544972178024845_" style="clip-path:url(#SVGID_00000125586595122752532370000002570174357626985363_);">
				<path id="Trazado_280_00000122712661841834040880000016856574032867807142_" class="st12" d="M0.6,0.81
					c-0.77,0-1.17,0.92-1.28,1.68c-0.28,1.9-0.01,3.83,0.79,5.58c0.35,0.87,0.95,1.61,1.74,2.12c1.72,0.77,3.74,0.13,4.7-1.49
					c0.88-1.62,1.04-3.53,0.44-5.27C6.72,2,5.77,0.79,4.44,0.18C3.79,0,3.1-0.05,2.42,0.02C1.57,0.06,0.61,0.14,0.6,0.81"/>
			</g>
		</g>
	</g>
</g>
<path id="Trazado_326_00000151542292553260712170000011973908617604826043_" class="st5" d="M305.18,684.18
	c8.12-6.5,14.05-15.46,17.94-25.1s5.02-21.62,5.7-31.31c-2.05,0.51-3.97,2.91-5.81,3.94c-7.62,4.27-15.85,7.34-24.4,9.11
	c-3.07,13.32-2.26,27.25,2.34,40.12c0.31,1.12,0.92,2.13,1.76,2.92C303.61,684.58,305.08,684.71,305.18,684.18"/>
<path id="Trazado_327_00000085249940432063380240000002710987164224065924_" class="st19" d="M257.86,710.74
	c-3.09-7.32-3.26-16.07,0.63-22.99c3.89-6.92,12.17-11.46,19.66-9.03c-3.56,1.4-6.96,3.19-10.12,5.35
	c-3.18,2.18-5.55,5.36-6.72,9.04c-0.4,1.6-0.59,3.24-0.57,4.89c-0.03,3.82,0.55,7.61,1.7,11.25
	C260.98,709.92,259.44,710.42,257.86,710.74"/>
<path id="Trazado_328_00000003072752671929371280000015282551871626679198_" class="st20" d="M257.77,710.26
	c-2.17,5.48-2.62,11.5-1.29,17.25c0.19,0.97,0.54,1.91,1.04,2.77c1.55,2.3,4.57,3.09,7.05,1.84c0.6-0.35,1.16-0.77,1.67-1.25
	c1.18-1,2.18-2.2,2.95-3.55c0.72-1.46,1.14-3.06,1.24-4.69c0.24-2.38-0.05-4.78-0.84-7.03c-0.8-2.26-2.28-4.22-4.23-5.61
	c-1.15-0.83-2.52-1.31-3.94-1.36C260.02,708.61,258.26,709.03,257.77,710.26"/>
<g id="Grupo_231_00000150805274152444288290000013012933534397660596_" transform="translate(291.662 698.535)" class="st0">
	<g id="Grupo_178_00000121989769468413275080000007666308821458679465_">
		<g>
			<defs>
				<rect id="SVGID_00000076584882722677815420000003249373973285153715_" x="-0.78" y="0" width="12.05" height="11.89"/>
			</defs>
			<clipPath id="SVGID_00000162330394518683454940000009340919778042036637_">
				<use xlink:href="#SVGID_00000076584882722677815420000003249373973285153715_"  style="overflow:visible;"/>
			</clipPath>
			
				<g id="Grupo_177_00000090252617934016842650000004753102557670653830_" style="clip-path:url(#SVGID_00000162330394518683454940000009340919778042036637_);">
				<path id="Trazado_284_00000137089671467705727520000003125386510336396467_" class="st12" d="M7.23,0.08
					C3.85-0.37,0.63,1.66-0.43,4.9c-0.23,0.85-0.35,1.73-0.35,2.62C-0.84,8.35-0.69,9.2-0.33,9.96c0.88,1.61,3.01,1.98,4.84,1.93
					c0.93,0,1.85-0.13,2.74-0.41c1.89-0.69,3.31-2.26,3.82-4.2c0.48-1.94,0.08-3.99-1.09-5.62C9.28,0.68,8.17-0.16,7.23,0.08"/>
			</g>
		</g>
	</g>
</g>
<g id="Grupo_232_00000045607705413104662780000002153136387092145086_" transform="translate(304.624 695.182)" class="st0">
	<g id="Grupo_181_00000027590111817286515150000010914403171670446733_">
		<g>
			<defs>
				<rect id="SVGID_00000181766354294262093490000016834955875613960859_" x="-0.78" y="0" width="14.7" height="12.71"/>
			</defs>
			<clipPath id="SVGID_00000014595049465084749540000016695928881355674752_">
				<use xlink:href="#SVGID_00000181766354294262093490000016834955875613960859_"  style="overflow:visible;"/>
			</clipPath>
			
				<g id="Grupo_180_00000100350603162514732140000017510607014712825496_" style="clip-path:url(#SVGID_00000014595049465084749540000016695928881355674752_);">
				<path id="Trazado_285_00000153705656523996851730000000851224539574656928_" class="st12" d="M-0.43,5.84
					C0.84,2.8,3.58,0.63,6.83,0.09c1.53-0.31,3.11,0.01,4.4,0.89c0.57,0.48,1.07,1.04,1.49,1.65c0.46,0.55,0.83,1.18,1.07,1.85
					c0.27,1.21,0.04,2.48-0.65,3.52c-1.43,2.29-3.7,3.93-6.33,4.56c-0.39,0.12-0.8,0.17-1.21,0.13c-0.46-0.09-0.9-0.27-1.29-0.52
					l-3.24-1.83c-0.47-0.23-0.9-0.55-1.27-0.93C-0.88,8.34-0.98,6.99-0.43,5.84"/>
			</g>
		</g>
	</g>
</g>
<g id="Grupo_233_00000032648173676363914110000018272898568879934354_" transform="translate(297.987 710.659)" class="st0">
	<g id="Grupo_184_00000164480342947405774210000011587781150961935747_">
		<g>
			<defs>
				<rect id="SVGID_00000059277786593255574700000016111350544913334438_" x="-0.78" y="0" width="11.99" height="14.17"/>
			</defs>
			<clipPath id="SVGID_00000147923622050491715060000003463171438960405434_">
				<use xlink:href="#SVGID_00000059277786593255574700000016111350544913334438_"  style="overflow:visible;"/>
			</clipPath>
			
				<g id="Grupo_183_00000029765622389564288150000005632948593946136227_" style="clip-path:url(#SVGID_00000147923622050491715060000003463171438960405434_);">
				<path id="Trazado_286_00000040559293489363840410000004082463434287136394_" class="st12" d="M5.05,0.51
					C3.99,0.55,3,1.04,2.32,1.86C0.48,3.75-0.62,6.24-0.77,8.88c-0.2,1.62,0.35,3.23,1.48,4.4c1.51,1.12,3.56,1.2,5.15,0.2
					c1.54-1.01,2.76-2.45,3.51-4.13c0.54-1.04,0.99-2.13,1.36-3.24c0.59-1.78,0.84-4.02-0.54-5.28C9.44,0.21,8.46-0.09,7.48,0.01
					C6.66,0.1,5.84,0.27,5.05,0.51"/>
			</g>
		</g>
	</g>
</g>
<g id="Grupo_234_00000007391981317704402330000011138867510623877029_" transform="translate(313.333 708.235)" class="st0">
	<g id="Grupo_187_00000156566337548185133510000016703929775936959927_">
		<g>
			<defs>
				<rect id="SVGID_00000052798372903567711470000001872060876689604277_" x="-0.78" y="0" width="9.47" height="9.75"/>
			</defs>
			<clipPath id="SVGID_00000119112318341307089900000002975968625430245775_">
				<use xlink:href="#SVGID_00000052798372903567711470000001872060876689604277_"  style="overflow:visible;"/>
			</clipPath>
			
				<g id="Grupo_186_00000117643834793846282670000013776545612169443464_" style="clip-path:url(#SVGID_00000119112318341307089900000002975968625430245775_);">
				<path id="Trazado_287_00000005979004094185893200000007649622366516301441_" class="st12" d="M3.85,0.36
					C2.03,0.34,0.36,1.39-0.4,3.06c-0.7,1.68-0.41,3.61,0.77,5c1.21,1.35,3.06,1.96,4.84,1.59c1.32-0.26,2.44-1.12,3.05-2.32
					c0.42-1.06,0.54-2.22,0.36-3.34C8.61,3.13,8.36,2.31,7.91,1.59c-0.57-0.68-1.34-1.15-2.2-1.37C4.86-0.04,3.83-0.15,3.85,0.36"/>
			</g>
		</g>
	</g>
</g>
<g id="Grupo_235_00000109010263518313194010000005383149706091030711_" transform="translate(307.677 719.731)" class="st0">
	<g id="Grupo_190_00000173864560262355073290000016606936632983522203_">
		<g>
			<defs>
				<rect id="SVGID_00000155124708201984179140000015489616327601144451_" x="-0.78" y="0" width="11.73" height="11.6"/>
			</defs>
			<clipPath id="SVGID_00000164486037044733040980000011097333510156411535_">
				<use xlink:href="#SVGID_00000155124708201984179140000015489616327601144451_"  style="overflow:visible;"/>
			</clipPath>
			
				<g id="Grupo_189_00000119085914006037203950000002902553753171781553_" style="clip-path:url(#SVGID_00000164486037044733040980000011097333510156411535_);">
				<path id="Trazado_288_00000161630007932215741170000005609847583722522765_" class="st12" d="M1.28,2.38
					c-1.1,0.8-1.82,2.02-1.97,3.38c-0.12,0.7-0.11,1.42,0.02,2.13c0.25,1.23,0.98,2.31,2.02,3c1.05,0.68,2.35,0.89,3.56,0.56
					c1.29-0.48,2.43-1.29,3.31-2.35c0.86-0.83,1.59-1.78,2.16-2.83c0.57-1.06,0.72-2.3,0.4-3.46c-0.75-1.85-2.63-2.99-4.62-2.78
					C4.22,0.16,2.64,1.51,1.28,2.38"/>
			</g>
		</g>
	</g>
</g>
<g id="Grupo_236_00000145747330732254273940000012584174936032449409_" transform="translate(301.438 732.301)" class="st0">
	<g id="Grupo_193_00000099623065360433016380000004793408028498331795_">
		<g>
			<defs>
				<rect id="SVGID_00000006676742342174593480000000036533860470416571_" x="-0.78" y="0" width="10.49" height="12.4"/>
			</defs>
			<clipPath id="SVGID_00000040560089445740777800000014395482191475882133_">
				<use xlink:href="#SVGID_00000006676742342174593480000000036533860470416571_"  style="overflow:visible;"/>
			</clipPath>
			
				<g id="Grupo_192_00000040572347667138170380000009975509044150393270_" style="clip-path:url(#SVGID_00000040560089445740777800000014395482191475882133_);">
				<path id="Trazado_289_00000060746895596722253490000016488681702937462942_" class="st12" d="M2.89,0.31
					C0.73,1.36-0.47,3.81-0.73,6.2c-0.09,0.59-0.06,1.19,0.08,1.76C-0.46,8.5-0.2,9,0.14,9.46c0.51,0.79,1.13,1.5,1.86,2.1
					c0.74,0.6,1.67,0.89,2.62,0.83c1.66-0.19,2.8-1.73,3.62-3.18c1.06-1.86,1.98-4.1,1.17-6.08C9.17,2.56,8.82,2.04,8.38,1.61
					C6.96,0.16,4.82-0.35,2.89,0.31"/>
			</g>
		</g>
	</g>
</g>
<path id="Trazado_329_00000157290393451020354650000007945662028514041511_" class="st5" d="M334.52,616.6l0.62,4.57
	c10.48-3.27,18.63-12.93,18.34-23.91h-4.38C347.42,607.01,342.83,613.74,334.52,616.6"/>
<g id="Grupo_237_00000128454748431086019960000017886604897990442119_" transform="translate(287.571 609.771)" class="st0">
	<g id="Grupo_196_00000158012144058230780350000011931364189563907240_">
		<g>
			<defs>
				<rect id="SVGID_00000133528032401604187190000010096466851863295922_" x="-0.78" y="0" width="50.87" height="32.21"/>
			</defs>
			<clipPath id="SVGID_00000127044061798283183730000004737604566522062493_">
				<use xlink:href="#SVGID_00000133528032401604187190000010096466851863295922_"  style="overflow:visible;"/>
			</clipPath>
			
				<g id="Grupo_195_00000110462255331181436980000002560965354223510959_" style="clip-path:url(#SVGID_00000127044061798283183730000004737604566522062493_);">
				<path id="Trazado_291_00000101090766513595497630000016098700127127917496_" class="st4" d="M-0.72,21.31
					c-0.18,3.39-0.14,7.31,2.49,9.46c2.44,2,6.02,1.53,9.1,0.8c7.38-1.73,14.55-4.24,21.39-7.49c6.82-3.24,13.64-7.57,16.98-14.34
					c0.49-0.89,0.78-1.87,0.85-2.88c0.05-2.38-1.92-4.34-4.05-5.4c-6.34-3.14-13.9-0.66-20.52,1.85L12.64,8.2
					c-3.2,1.21-6.48,2.47-9.1,4.67C1.06,15-0.48,18.04-0.72,21.31"/>
			</g>
		</g>
	</g>
</g>
<g id="Grupo_238_00000087414071082798632690000013990943508687308473_" transform="translate(342.014 587.97)" class="st0">
	<g id="Grupo_199_00000158017637767817274650000004070539793762633091_">
		<g>
			<defs>
				<rect id="SVGID_00000019653161738966531270000012304656188255893655_" x="-0.78" y="0" width="16.28" height="10.23"/>
			</defs>
			<clipPath id="SVGID_00000116210851587714744970000011682158085160609702_">
				<use xlink:href="#SVGID_00000019653161738966531270000012304656188255893655_"  style="overflow:visible;"/>
			</clipPath>
			
				<g id="Grupo_198_00000167358421675989886120000006788413082438948502_" style="clip-path:url(#SVGID_00000116210851587714744970000011682158085160609702_);">
				<path id="Trazado_292_00000024693535720022322620000008681955678985840545_" class="st4" d="M7.84,0
					c-2.5,0.33-5.16,0.74-7.01,2.44S-1.48,7.59,0.6,9c0.83,0.47,1.75,0.75,2.7,0.82c2.78,0.4,5.71,0.78,8.32-0.26
					s4.65-4.06,3.6-6.67C14.99,2.27,14.56,1.74,14,1.4c-0.36-0.18-0.75-0.32-1.15-0.4C11.22,0.52,9.54,0.18,7.84,0"/>
			</g>
		</g>
	</g>
</g>
<path id="Trazado_332_00000156557539924456160490000004111776985775530123_" class="st5" d="M285.59,105.99c0,0,0.31,4.69-2.82,6.89
	s-2.19,4.07,0,3.75s2.82-3.13,2.82-3.13l3-7.51C288.6,106,287.33,102.53,285.59,105.99"/>
<path id="Trazado_333_00000118375569899928131950000014733352766744827530_" class="st29" d="M326.91,135.47
	c-8.64,4.81-19.55,19.09-28.42,15.01c-4.86-0.25,2.88,11.18-2.44,12.53c-8.2,2.74-14.55-17.62-16.63-23.71
	c-7.72-4.23-11.22-15.65-13.17-22.68c-13.62,6.01-25.94-7.41-30.84-18.71c-73.23-14.48-3.49-94.16,46.97-72.56
	c35.94,4.09,91.17,65.1,54.83,94.35C330.5,120.72,335.75,130.55,326.91,135.47"/>
<path id="Trazado_334_00000058551848200691141720000014079770733527214211_" class="st30" d="M264.62,121.46
	c-14.41,8.59-35.6-17.72-29.11-18.14C247.46,105.65,271.96,101.82,264.62,121.46"/>
<path id="Trazado_335_00000043452894147425667110000012385831879939119523_" class="st31" d="M319.33,86l-0.27,0.03L319.33,86"/>
<g id="Grupo_239_00000162327606077728412440000010080064515737983109_" transform="translate(240.081 62.422)" class="st0">
	<g id="Grupo_204_00000106109630458596856350000013627448263271393160_">
		<g>
			<defs>
				<rect id="SVGID_00000101091211514906803210000005452514235456766125_" x="-0.78" y="0" width="66.36" height="103.48"/>
			</defs>
			<clipPath id="SVGID_00000107575240497569229330000010328020703448583612_">
				<use xlink:href="#SVGID_00000101091211514906803210000005452514235456766125_"  style="overflow:visible;"/>
			</clipPath>
			
				<g id="Grupo_203_00000067953707583111233780000017049040908704749205_" style="clip-path:url(#SVGID_00000107575240497569229330000010328020703448583612_);">
				<path id="Trazado_301_00000152945616320473991790000015064737861365905052_" class="st33" d="M56.95,103.39
					c-9.66,1.5-12.43-15.26-16.37-22.07c-3.47-4.96-9.57-10.21-11.5-17.46c-1.6-18.2,3.53-19.34-16.9-25.22
					C29.11,13.75,4.32,24.12-0.78,11.65C3.6-0.82,21.81-1.69,32.59,1.72C43.11-0.17,84.06,39.86,55.83,30.4
					c1.64,6.36-1.93,2.3-3.52,6.4c1.53,11.55-2.85-13.03-6.8-5.39c-1.01,11.74,3.64,27.04,15.67,31.34
					C50.73,74.35,63.35,91.73,56.95,103.39"/>
			</g>
		</g>
	</g>
</g>
<rect id="Rectángulo_169_00000008112821725265895810000010721219000526164407_" x="54.32" y="0" class="st34" width="456.02" height="809.17"/>
<path id="Trazado_337_00000122707918156187170620000010242376786636308144_" class="st5" d="M266.4,566.27
	c0.96-2.27,3.12-3.91,4.72-5.71c1.83-2.09,3.83-4.02,5.5-6.26c7.1-9.5-1.77-21.33-12.52-21c-4.52,0.14-9.23,1.36-13.59,2.56
	c-2.21,0.6-4.5,1.21-6.77,1.61c-6,1.02-10.5,0.97-14.59-0.14c-1.13-0.58-2.11-1.4-2.88-2.4c-1.05-1.17-2.2-2.24-3.44-3.21
	c-0.46-0.34-0.92-0.66-1.38-0.95c-2.76-1.85-5.15-3.44-3.37-11.91c1.21-5.73,6.1-12.71,11.36-16.24c2.27-1.58,4.87-2.62,7.6-3.05
	c1-0.16,1.98-0.42,2.93-0.76c0.48-0.23,1.02-0.32,1.55-0.25c0.01,0.23-0.01,0.69-0.02,0.95c-0.12,3.16-0.37,9.72,6.73,16.35
	c4.3,4.02,15.58,10.57,30.55,9.65c14.62-0.9,28.1-8.61,40.07-22.92c16.02-19.17,22.53-39.24,17.42-53.7
	c-2.52-7.58-9-13.15-16.86-14.53c-9.21-1.81-13.66,0.59-17.25,2.52c-1.68,1.08-3.65,1.64-5.65,1.6c-9.85-0.45-18-2.99-24.22-7.56
	c0,0-13.36-12.08-16.09,4.73c-1.75,10.78,18.32,12.24,25.65,14.94c2.03,0.67,4.01,1.48,5.93,2.42c2.84,1.62,5.08,2.9,5.29,4.33
	c0.72,4.86-5.32,14.42-15.13,20.38c-6.02,3.66-11.45,3.69-16.24,3.72c-3.32,0.02-6.47,0.03-9.33,1.27
	c-1.34,0.58-2.62,1.27-3.84,2.07c-0.25,0.16-0.55,0.35-0.79,0.48c-0.11-0.17-0.24-0.37-0.33-0.51c-1.17-1.82-3.12-4.87-7.34-6.04
	c-6.27-1.73-22.53-3.3-38.04,19.5c-16.5,24.24-4.23,40.61-1.61,43.64c5,5.78,14.61,8.33,20.12,7.01c3.32-0.79,5.82-0.23,8.74,0.42
	c1.75,0.42,3.52,0.74,5.31,0.93c4.44,0.42,8.91,0.27,13.32-0.45c4.46-0.73,8.54-2.41,12.77-3.95c1.35-0.49,3.1-0.9,4.05,0.2
	c0.54,0.72,0.64,1.67,0.27,2.49c-0.38,0.8-0.9,1.52-1.54,2.13c-2.72,2.96-9.03,5.3-8.12,9.33
	C259.13,576.68,266.41,566.26,266.4,566.27"/>
<rect id="Rectángulo_170_00000130631502141870313670000005235103719250441402_" x="54.32" y="0" class="st34" width="456.02" height="809.17"/>
<rect id="Rectángulo_171_00000047782441593317152730000018110409350414559890_" x="54.32" class="st34" width="456.02" height="809.17"/>
</svg>
