<?xml version="1.0" encoding="utf-8"?>
<!-- Generator: Adobe Illustrator 26.3.1, SVG Export Plug-In . SVG Version: 6.00 Build 0)  -->
<svg version="1.1" id="Layer_1" xmlns="http://www.w3.org/2000/svg" xmlns:xlink="http://www.w3.org/1999/xlink" x="0px" y="0px"
	 viewBox="0 0 510.34 809.17" style="enable-background:new 0 0 510.34 809.17;" xml:space="preserve">
<style type="text/css">
	.st0{clip-path:url(#SVGID_00000023262816802915036490000009222709413131455674_);}
	.st1{fill:url(#Trazado_319_00000178168968367139768820000005709275083616515480_);}
	.st2{fill:none;}
</style>
<g id="Grupo_217_00000132786179391800470550000008199416872639268286_" transform="translate(49.817 0.005)">
	<g>
		<defs>
			<rect id="SVGID_1_" x="-0.78" y="0" width="447.07" height="809.17"/>
		</defs>
		<clipPath id="SVGID_00000041270942450431904900000002167878400426861740_">
			<use xlink:href="#SVGID_1_"  style="overflow:visible;"/>
		</clipPath>
		
			<g id="Grupo_213_00000160182328960548274370000012944984402925885345_" transform="translate(0 0)" style="clip-path:url(#SVGID_00000041270942450431904900000002167878400426861740_);">
			
				<linearGradient id="Trazado_319_00000116941901102868362540000012766827486660129200_" gradientUnits="userSpaceOnUse" x1="-4220.8003" y1="3089.4797" x2="-4220.8003" y2="3088.6458" gradientTransform="matrix(447.0824 0 0 -1481.7572 1887268.375 4577859)">
				<stop  offset="0" style="stop-color:#97C9E5"/>
				<stop  offset="0.498" style="stop-color:#97C9E5;stop-opacity:0.071"/>
				<stop  offset="0.67" style="stop-color:#97C9E5;stop-opacity:0"/>
				<stop  offset="1" style="stop-color:#97C9E5;stop-opacity:0"/>
			</linearGradient>
			
				<path id="Trazado_319_00000058588664918655893380000014639122786754948016_" style="fill:url(#Trazado_319_00000116941901102868362540000012766827486660129200_);" d="
				M441.52,771.19c0.04-6.37,1.17-13.3,1.63-19.7c0.4-5.62-1.41-11.61-1.66-17.22c-1.16-25.76-0.9-53.34-1.52-80
				c-0.66-28.34,1.17-58.62-3.34-86.11c-2.13-12.93-7.26-26.04-9.72-38.9c-7.37-38.46-3.61-135.25-3.65-175.13
				c-0.03-26.35-4.8-56.77-19.44-79.06c-10.26-15.62-29.53-24.84-47.4-28.81c-14.63-4.1-29.16-8.51-43.61-13.23
				c-12.19-4.01-41.05-9.59-45.89-20.47c-5.31-11.99-3.14-26.71-2.76-41.76c6.38-8.51,11.24-18.07,14.35-28.24
				c7.81-0.57,6.23-14.23,7.36-17.69s7.4-23.64,5.38-26.46s-4.36-0.09-4.36-0.09s4.31-36.93-3.98-58.43
				C276.44,23.08,256.42,0,220.37,0h-0.07c-36.05,0-56.07,23.07-62.56,39.88c-8.29,21.5-3.97,58.43-3.97,58.43s-2.34-2.73-4.36,0.09
				s4.26,22.98,5.38,26.46s-0.45,17.12,7.36,17.69c2.75,9.68,8.9,21.94,17.54,32.29c0.28,13.72,1.6,26.78-3.3,37.72
				c-4.81,10.7-32.71,16.4-44.77,20.47c-14.06,4.74-28.23,9.15-42.5,13.23c-17.88,3.97-37.15,13.2-47.4,28.81
				c-14.65,22.29-19.42,52.71-19.44,79.06c-0.05,39.87,3.71,136.67-3.66,175.13c-2.46,12.86-7.59,25.97-9.72,38.9
				c-4.52,27.49-2.69,57.77-3.34,86.11c-0.62,26.66-0.37,54.24-1.53,80c-0.24,5.6-2.05,11.6-1.65,17.22
				c0.46,6.39,1.59,13.32,1.63,19.7c0.11,18.3-6.81,39.79-4.2,57.48c1.95,13.2,11.53,36.36,20.95,44.36
				c8.33,7.09,25.61,18.3,34.21,18.78c0.65,0.04,2.76-6.37,0.7-10.66c-3.25-6.77-14.31-11.88-17.22-16.98
				c-2.94-5.14-3.23-11.85-3.74-17.61c-0.47-5.24-1.81-10.72,0.01-16.03c0.8-2.35,3.17-8.88,6.29-8.88c0.7,0,4.73,3.82,5.12,6.76
				c0.67,5.12,0.28,10.8,0.7,15.83c0.53,6.25,4.48,18.99,10.7,19.93c4.89,0.75,5.12-0.76,6.28-3.03c1.17-2.27-1.4-11.86-0.47-15.13
				s-0.09-9.51-0.7-12.32c-1.64-7.55,0.57-17.2-0.47-25.28c-1.08-8.41-4.58-19.15-9.54-26.1c-4.16-5.82-10.23-12-12.1-18.76
				c-2.2-7.94-1.66-18.94,0.7-27.22c9.2-32.2,21.54-65.86,27.1-99.63c5.54-33.71,10.41-68.3,14.51-101.79
				c1.54-12.7,4.79-56.03,7.29-73.76c0.03-2.14,0.23-3.58,0.65-4.09c-0.21,1.13-0.43,2.52-0.65,4.09
				c-0.16,12.78,6.12,51.31,12.52,75.81c4.26,16.31,0.58,59.35-5.18,96.16c-5.79,36.99-23.28,64.12-26.6,124.39
				c-2.64,48,1.54,97.57,5.88,145.72c3.25,36.18,10.06,72.49,17.62,107.64c2.85,13.27,1.61,28.02,1.03,41.66
				c-0.54,12.55,1.29,25.36,0.53,37.65c-1.51,24.11-10.34,48.45-9.98,72.94c0.79,53.7,11.59,110.15,19.31,164.02
				c2.14,14.88,9.55,34.74,5.81,47.24c-3.32,11.12-15.9,22.87-22.14,34.92c-4.2,8.09-15.64,13.45-22.87,18.34
				c-4.59,3.1-8.67,7.26-12.95,10.67c-1.86,1.48-8.24,5.25-10.18,8.13c-2.67,3.97-0.78,5.81-0.26,5.86
				c-2.67,2.43-2.59,6.77-0.3,7.05c-1.44,3.9,0.76,6.19,3.14,5.73c-1.6,3.21,1.82,6.6,5.01,5.59c1.78,6.67,11.1,5.22,15.69,2.88
				c0.69,7.34,10.82,8.94,16.44,7.93c6.71-1.19,13.05-3.21,18.62-7.53c2.37-1.84,5.49-7.24,6.87-8.41
				c4.35-3.67,10.76-5.48,15.13-9.4c3.96-3.57,5.24-9.65,7.9-13.59s8.48-8.48,13.51-9.26c6.94-1.09,16.15-3.54,19.44-10.88
				c3.2-7.13,2.12-16.97,0.34-24.42c-1.31-5.47-3.68-11.31-3.6-16.75c0.03-1.85,1.49-6.68,0.71-11.9
				c-0.84-5.76-3.72-10.12-4.53-14.49c-1.32-7-1.38-14.32-1.47-21.47c-0.23-19.93,5.73-40.69,9.37-60.21
				c4.76-25.45,10.18-51.36,11.32-77.12c0.72-16.21,0.17-32.45-1.62-48.57c-0.98-8.73-3.04-17.99-2.01-26.6
				c2.89-24.24,16.75-47.82,20.13-72.4c3.27-23.8-0.95-48.34,1.12-72.27c2.36-27.42,6.71-55.18,11-82.57
				c2.5-15.95,5.09-31.94,8.66-47.7c1.21-5.35,2.94-27.32,6.63-30.62c0.18-0.16,1.21,0.3,2.27,0.28c1.14-0.02,2.3-0.53,2.48-0.38
				c3.81,3.15,5.49,25.29,6.72,30.72c3.57,15.75,6.16,31.74,8.66,47.7c4.28,27.39,8.55,55.03,11,82.57
				c2.15,24.02-2.16,48.46,1.12,72.27c3.38,24.58,17.23,48.16,20.13,72.4c1.03,8.62-1.03,17.85-2.01,26.6
				c-1.8,16.12-2.34,32.36-1.62,48.57c1.14,25.76,6.55,51.67,11.31,77.12c3.65,19.52,9.61,40.28,9.38,60.21
				c-0.09,7.15-0.14,14.47-1.47,21.47c-0.83,4.37-3.69,8.73-4.55,14.49c-0.77,5.22,0.69,10.04,0.72,11.9
				c0.09,5.44-2.36,11.33-3.59,16.75c-1.72,7.57-3.05,17.54,0.33,24.42c3.49,7.07,12.07,9.71,19.45,10.88
				c5.04,0.8,10.85,5.31,13.51,9.26c2.64,3.94,3.93,10.01,7.9,13.59c4.37,3.92,10.78,5.73,15.13,9.4c1.38,1.17,4.5,6.57,6.87,8.41
				c5.45,4.07,11.87,6.66,18.62,7.53c5.58,0.83,15.69-0.32,16.43-7.93c4.64,2.38,13.88,3.77,15.7-2.88c3.2,1.01,6.6-2.38,5.01-5.59
				c2.38,0.46,4.58-1.83,3.13-5.73c2.3-0.28,2.37-4.62-0.3-7.05c0.52-0.06,2.42-1.89-0.25-5.86c-1.93-2.88-8.32-6.65-10.18-8.13
				c-4.28-3.41-8.37-7.57-12.97-10.67c-7.45-5.04-18.54-10.49-22.86-18.34c-6.37-11.57-18.86-23.83-22.14-34.92
				c-3.67-12.41,3.68-32.44,5.81-47.24c7.71-53.84,18.59-110.27,19.31-164.02c0.33-24.54-8.48-48.81-9.98-72.94
				c-0.77-12.29,1-25.14,0.52-37.65c-0.52-13.6-1.81-28.39,1.04-41.66c7.55-35.17,14.36-71.46,17.62-107.64
				c4.33-48.18,6.9-97.7,5.88-145.72c-1.46-67.97-20.58-87.55-26.6-124.39c-5.99-36.61-7.97-79.13-5.19-96.15
				c4.52-27.54,9.34-64.82,7.25-80.86c1.53,6.79,11.3,64.6,12.95,78.81c3.93,33.78,8.96,68.07,14.51,101.79
				c5.56,33.77,18.2,67.6,27.1,99.63c2.28,8.23,2.97,19.23,0.69,27.22c-1.93,6.8-7.94,12.95-12.09,18.76
				c-4.96,6.95-8.46,17.69-9.55,26.1c-1.03,8.08,1.17,17.73-0.47,25.28c-0.61,2.82-1.62,9.05-0.69,12.32s-1.63,12.86-0.47,15.13
				s3.98,3.96,6.27,3.03c6.14-2.49,10.18-13.32,10.71-19.93c0.4-5.06,0.02-10.71,0.69-15.83c0.39-2.94,4.43-6.76,5.13-6.76
				c5.45,0.1,7.34,12.68,6.99,16.41c-0.78,8.3-0.1,18.66-4.44,26.11c-3,5.15-13.98,10.21-17.22,16.98
				c-2.06,4.29,0.05,10.7,0.7,10.66c8.64-0.5,25.88-11.7,34.21-18.78c9.42-8,19-31.17,20.94-44.36
				C448.32,810.99,441.42,789.47,441.52,771.19"/>
		</g>
	</g>
</g>
<rect id="Rectángulo_169_00000078750532426260179590000015688796155114248079_" x="54.32" y="0" class="st2" width="456.02" height="809.17"/>
<rect id="Rectángulo_170_00000138551199298399318340000005887015773945690797_" x="54.32" y="0" class="st2" width="456.02" height="809.17"/>
<rect id="Rectángulo_171_00000161619250898395715690000000446139265856139396_" x="54.32" class="st2" width="456.02" height="809.17"/>
</svg>
