<?xml version="1.0" encoding="utf-8"?>
<!-- Generator: Adobe Illustrator 26.3.1, SVG Export Plug-In . SVG Version: 6.00 Build 0)  -->
<svg version="1.1" id="Layer_1" xmlns="http://www.w3.org/2000/svg" xmlns:xlink="http://www.w3.org/1999/xlink" x="0px" y="0px"
	 viewBox="0 0 510.34 809.17" style="enable-background:new 0 0 510.34 809.17;" xml:space="preserve">
<style type="text/css">
	.st0{fill:none;stroke:#052D41;stroke-width:0.266;stroke-miterlimit:10;}
	.st1{fill:#052D41;}
</style>
<g>
	<g id="Grupo_210">
		<path id="Trazado_307" class="st0" d="M349.06,198.37c22.61,33.01,21.18,76.87-3.53,108.34"/>
		<path id="Trazado_308" class="st1" d="M345.07,192.98l2.44,9.9l1.8-4.08l4.44-0.46L345.07,192.98z"/>
		<path id="Trazado_309" class="st1" d="M341.24,311.86l2.93-9.77l1.59,4.17l4.41,0.68L341.24,311.86z"/>
		<path id="Trazado_310" class="st0" d="M372.91,490.8c22.61,33.01,21.18,76.87-3.53,108.34"/>
		<path id="Trazado_311" class="st1" d="M368.92,485.41l2.44,9.9l1.8-4.08l4.44-0.46L368.92,485.41z"/>
		<path id="Trazado_312" class="st1" d="M365.09,604.29l2.93-9.77l1.59,4.17l4.41,0.68L365.09,604.29z"/>
		<path id="Trazado_313" class="st0" d="M219.73,485.37c-22.61-33.01-21.18-76.87,3.53-108.34"/>
		<path id="Trazado_314" class="st1" d="M223.72,490.76l-2.44-9.9l-1.8,4.08l-4.44,0.46L223.72,490.76z"/>
		<path id="Trazado_315" class="st1" d="M227.55,371.88l-2.93,9.77l-1.59-4.17l-4.41-0.68L227.55,371.88z"/>
		<path id="Trazado_316" class="st0" d="M197.67,228.85c-22.61-33.01-21.18-76.87,3.53-108.34"/>
		<path id="Trazado_317" class="st1" d="M201.66,234.24l-2.44-9.9l-1.8,4.08l-4.44,0.46L201.66,234.24z"/>
		<path id="Trazado_318" class="st1" d="M205.49,115.36l-2.93,9.77l-1.59-4.17l-4.41-0.68L205.49,115.36z"/>
	</g>
</g>
</svg>
