<svg id="Componente_42_1" data-name="Componente 42 – 1" xmlns="http://www.w3.org/2000/svg" xmlns:xlink="http://www.w3.org/1999/xlink" width="298.566" height="23.435" viewBox="0 0 298.566 23.435">
  <defs>
    <clipPath id="clip-path">
      <rect id="Rectángulo_11" data-name="Rectángulo 11" width="298.566" height="23.435" fill="none"/>
    </clipPath>
  </defs>
  <g id="Grupo_1" data-name="Grupo 1" clip-path="url(#clip-path)">
    <path id="Trazado_1" data-name="Trazado 1" d="M38.077,1.477A7.8,7.8,0,0,0,34.3.576H25.349V.669l.125.5q.248,1.059.389,1.973A12.976,12.976,0,0,1,26,5.082V18.447a12.951,12.951,0,0,1-.14,1.941q-.139.918-.389,1.975l-.125.5v.094H30.1V22.86l-.093-.5q-.248-1.057-.4-1.975a11.586,11.586,0,0,1-.154-1.941V14.282H33.4a9.9,9.9,0,0,0,4.087-.839A7.142,7.142,0,0,0,40.47,11.05a6.171,6.171,0,0,0,1.1-3.669,6.673,6.673,0,0,0-.916-3.45,6.558,6.558,0,0,0-2.58-2.455m-.7,8.734a5.006,5.006,0,0,1-1.711,2.05,4.5,4.5,0,0,1-2.641.778H29.453V1.819h3.76a4.3,4.3,0,0,1,2.595.776,4.83,4.83,0,0,1,1.617,2.035,6.878,6.878,0,0,1,.543,2.751,6.656,6.656,0,0,1-.589,2.829" transform="translate(10.227 0.233)" fill="#fff"/>
    <path id="Trazado_2" data-name="Trazado 2" d="M45.675,5.423a5.046,5.046,0,0,0-2.3,1.274,6.416,6.416,0,0,0-1.149,1.589V5.577H38.339v.094l.125.5q.248,1.057.389,1.973a12.981,12.981,0,0,1,.139,1.944v6.464a12.962,12.962,0,0,1-.139,1.942q-.141.918-.389,1.973l-.125.5v.093h4.539v-.093l-.094-.5a18.9,18.9,0,0,1-.418-1.973,12.774,12.774,0,0,1-.14-1.942v-7.5a3.719,3.719,0,0,1,1.694-1.015,3.806,3.806,0,0,1,2.129.046,4.845,4.845,0,0,1,1.833,1.072h.125l.5-3.605a5.1,5.1,0,0,0-2.829-.124" transform="translate(15.468 2.129)" fill="#fff"/>
    <path id="Trazado_3" data-name="Trazado 3" d="M60.865,18.405a12.957,12.957,0,0,1-.14-1.942V5.491H56.841v.094l.124.5q.248,1.057.389,1.973A12.976,12.976,0,0,1,57.494,10v6.5c0,.282.048.61.066.909a5.849,5.849,0,0,1-3.673,1.67,3.141,3.141,0,0,1-2.3-.886,3.572,3.572,0,0,1-.9-2.657V5.491H46.8v.094l.125.5c.167.7.3,1.363.4,1.973A11.605,11.605,0,0,1,47.486,10v5.9A5.111,5.111,0,0,0,48.947,19.9a5.17,5.17,0,0,0,3.6,1.321,5.389,5.389,0,0,0,3.047-.886A8.032,8.032,0,0,0,57.623,18.3c.014.119.008.219.025.341a19.857,19.857,0,0,0,.4,2.144l.063.187h3.263v-.093l-.093-.5a18.947,18.947,0,0,1-.421-1.973" transform="translate(18.882 2.216)" fill="#fff"/>
    <path id="Trazado_4" data-name="Trazado 4" d="M61.122,4.382a2.2,2.2,0,0,0,1.569-.637,2.047,2.047,0,0,0,.667-1.538A2.1,2.1,0,0,0,62.7.637a2.29,2.29,0,0,0-3.17,0,2.11,2.11,0,0,0-.653,1.569,2.049,2.049,0,0,0,.668,1.538,2.2,2.2,0,0,0,1.572.637" transform="translate(23.756 0)" fill="#fff"/>
    <path id="Trazado_5" data-name="Trazado 5" d="M62.98,18.405a11.588,11.588,0,0,1-.156-1.942V5.491H58.972v.094l.122.5c.167.7.3,1.363.406,1.973A11.757,11.757,0,0,1,59.654,10l-.031,6.464a12.961,12.961,0,0,1-.139,1.942,18.921,18.921,0,0,1-.42,1.973l-.093.5v.093h4.505v-.093l-.093-.5c-.166-.7-.3-1.361-.4-1.973" transform="translate(23.792 2.216)" fill="#fff"/>
    <path id="Trazado_6" data-name="Trazado 6" d="M86.524,18.459a12.955,12.955,0,0,1-.14-1.942V10.643A5.232,5.232,0,0,0,85,6.664a4.774,4.774,0,0,0-3.4-1.305,4.952,4.952,0,0,0-2.905.9A8.375,8.375,0,0,0,76.77,8.223a4.049,4.049,0,0,0-.984-1.559A4.72,4.72,0,0,0,72.4,5.359a4.943,4.943,0,0,0-2.937.916,8.1,8.1,0,0,0-1.6,1.565v-2.3H64.006v.094l.125.5q.248,1.057.387,1.973a12.792,12.792,0,0,1,.14,1.944v6.464a12.774,12.774,0,0,1-.14,1.942q-.139.918-.387,1.973l-.125.5v.093h4.506V20.93l-.093-.5c-.167-.7-.3-1.361-.4-1.973a11.588,11.588,0,0,1-.156-1.942V8.837a6.709,6.709,0,0,1,1.057-.775,3.754,3.754,0,0,1,1.865-.528,3.12,3.12,0,0,1,2.254.886,3.494,3.494,0,0,1,.916,2.626v5.471a12.774,12.774,0,0,1-.14,1.942q-.139.918-.389,1.973l-.124.5v.093h4.506V20.93l-.093-.5c-.166-.7-.3-1.361-.4-1.973a11.443,11.443,0,0,1-.156-1.942V10.643a7.716,7.716,0,0,0-.181-1.65,8.65,8.65,0,0,1,1.253-.946,3.593,3.593,0,0,1,1.819-.512,3.079,3.079,0,0,1,2.222.886,3.494,3.494,0,0,1,.916,2.626v5.471a11.741,11.741,0,0,1-.154,1.942q-.156.918-.4,1.973l-.094.5v.093h4.506V20.93l-.125-.5q-.248-1.055-.387-1.973" transform="translate(25.823 2.162)" fill="#fff"/>
    <path id="Trazado_7" data-name="Trazado 7" d="M93.386,8.406A5.559,5.559,0,0,0,85.74,9.82V.044L82.352.511,81.667.6,81.7.7c.041.083.1.239.187.466q.248.869.418,1.8a11.244,11.244,0,0,1,.171,2.021V23.355l3.175-1.3a5.149,5.149,0,0,0,1.131.724,6.378,6.378,0,0,0,2.688.606,6.6,6.6,0,0,0,3.434-.932,6.69,6.69,0,0,0,2.518-2.766,9.734,9.734,0,0,0,.949-4.506,9.715,9.715,0,0,0-.808-4.15,6.2,6.2,0,0,0-2.175-2.626M92.329,18.46a5.376,5.376,0,0,1-1.586,2.362,3.924,3.924,0,0,1-2.61.886,5.275,5.275,0,0,1-2.035-.4,3.54,3.54,0,0,1-.358-.213V11.046A4.325,4.325,0,0,1,88.972,9.4a3.184,3.184,0,0,1,2.89,1.648,7.874,7.874,0,0,1,1,4.135,9.673,9.673,0,0,1-.528,3.278" transform="translate(32.948 0.018)" fill="#fff"/>
    <path id="Trazado_8" data-name="Trazado 8" d="M104.909,6.308a8,8,0,0,0-3.886-.949,8.119,8.119,0,0,0-3.869.933,6.782,6.782,0,0,0-2.765,2.718,8.473,8.473,0,0,0-1.01,4.243,8.647,8.647,0,0,0,1.01,4.275,6.94,6.94,0,0,0,2.765,2.782,8.259,8.259,0,0,0,7.74,0,7.158,7.158,0,0,0,2.8-2.782,8.451,8.451,0,0,0,1.041-4.275,8.21,8.21,0,0,0-1.041-4.21,7.12,7.12,0,0,0-2.78-2.735m-.25,10.443a5.83,5.83,0,0,1-1.413,2.485,3.042,3.042,0,0,1-2.223.949,2.938,2.938,0,0,1-2.191-.949,6.017,6.017,0,0,1-1.384-2.485,12.134,12.134,0,0,1-.466-3.5,11.851,11.851,0,0,1,.466-3.45,5.769,5.769,0,0,1,1.384-2.439,2.986,2.986,0,0,1,2.191-.916,3.077,3.077,0,0,1,2.239.916,5.672,5.672,0,0,1,1.4,2.439,11.755,11.755,0,0,1,.467,3.45,12.036,12.036,0,0,1-.467,3.5" transform="translate(37.673 2.162)" fill="#fff"/>
    <path id="Trazado_9" data-name="Trazado 9" d="M116.945,6.308a8,8,0,0,0-3.886-.949,8.119,8.119,0,0,0-3.869.933,6.782,6.782,0,0,0-2.765,2.718,8.473,8.473,0,0,0-1.01,4.243,8.647,8.647,0,0,0,1.01,4.275,6.94,6.94,0,0,0,2.765,2.782,8.259,8.259,0,0,0,7.74,0,7.158,7.158,0,0,0,2.8-2.782,8.451,8.451,0,0,0,1.041-4.275,8.211,8.211,0,0,0-1.041-4.21,7.12,7.12,0,0,0-2.78-2.735m-.25,10.443a5.83,5.83,0,0,1-1.413,2.485,3.042,3.042,0,0,1-2.223.949,2.938,2.938,0,0,1-2.191-.949,6.017,6.017,0,0,1-1.384-2.485,12.134,12.134,0,0,1-.466-3.5,11.852,11.852,0,0,1,.466-3.45,5.769,5.769,0,0,1,1.384-2.439,2.986,2.986,0,0,1,2.191-.916,3.077,3.077,0,0,1,2.238.916,5.672,5.672,0,0,1,1.4,2.439,11.756,11.756,0,0,1,.467,3.45,12.036,12.036,0,0,1-.467,3.5" transform="translate(42.529 2.162)" fill="#fff"/>
    <path id="Trazado_10" data-name="Trazado 10" d="M140.134,18.459a12.957,12.957,0,0,1-.14-1.942V10.643a5.232,5.232,0,0,0-1.382-3.979,4.774,4.774,0,0,0-3.4-1.305,4.952,4.952,0,0,0-2.905.9,8.375,8.375,0,0,0-1.921,1.963,4.032,4.032,0,0,0-.984-1.559,4.72,4.72,0,0,0-3.388-1.305,4.943,4.943,0,0,0-2.937.916,8.059,8.059,0,0,0-1.6,1.565v-2.3h-3.854v.094l.125.5q.248,1.057.387,1.973a12.8,12.8,0,0,1,.14,1.944v6.464a12.777,12.777,0,0,1-.14,1.942q-.139.918-.387,1.973l-.125.5v.093h4.506V20.93l-.093-.5c-.167-.7-.3-1.361-.4-1.973a11.586,11.586,0,0,1-.156-1.942V8.837a6.774,6.774,0,0,1,1.057-.775,3.754,3.754,0,0,1,1.865-.528,3.12,3.12,0,0,1,2.254.886,3.494,3.494,0,0,1,.916,2.626v5.471a12.773,12.773,0,0,1-.14,1.942q-.139.918-.389,1.973l-.124.5v.093h4.506V20.93l-.093-.5c-.166-.7-.3-1.361-.4-1.973a11.44,11.44,0,0,1-.156-1.942V10.643a7.814,7.814,0,0,0-.18-1.65,8.493,8.493,0,0,1,1.252-.946,3.593,3.593,0,0,1,1.819-.512,3.079,3.079,0,0,1,2.222.886,3.494,3.494,0,0,1,.916,2.626v5.471a11.743,11.743,0,0,1-.154,1.942q-.156.918-.4,1.973l-.094.5v.093h4.506V20.93l-.125-.5q-.248-1.055-.387-1.973" transform="translate(47.451 2.162)" fill="#fff"/>
    <path id="Trazado_11" data-name="Trazado 11" d="M141.809.576h-.5V.669l.123.56c.105.58.192,1.145.265,1.694a13.093,13.093,0,0,1,.108,1.725V18.883a13.093,13.093,0,0,1-.108,1.725c-.073.549-.16,1.113-.265,1.694l-.123.559v.094h3.045V22.86l-.123-.559c-.125-.581-.225-1.145-.295-1.694a12.845,12.845,0,0,1-.111-1.725V4.647a12.845,12.845,0,0,1,.111-1.725c.07-.549.17-1.114.295-1.694l.123-.56V.576h-2.549Z" transform="translate(57.011 0.233)" fill="#fff"/>
    <path id="Trazado_12" data-name="Trazado 12" d="M158.552,18.624a13.091,13.091,0,0,1-.108-1.725V10.838a5.15,5.15,0,0,0-1.461-4.056,5.173,5.173,0,0,0-3.544-1.29,5.65,5.65,0,0,0-2.922.808,8.626,8.626,0,0,0-2.174,1.954V5.679h-2.425v.094l.125.559q.185.84.295,1.679a13.455,13.455,0,0,1,.108,1.74V16.9a13.091,13.091,0,0,1-.108,1.725q-.109.823-.295,1.694l-.125.559v.094h2.953v-.094l-.125-.559c-.123-.581-.223-1.145-.295-1.694a13.094,13.094,0,0,1-.108-1.725V9.262a6.388,6.388,0,0,1,4.506-2.37,3.608,3.608,0,0,1,2.64,1.041,4.156,4.156,0,0,1,1.057,3.092V16.9a13.1,13.1,0,0,1-.108,1.725q-.109.823-.295,1.694l-.093.559v.094h2.921v-.094l-.123-.559q-.187-.872-.3-1.694" transform="translate(58.87 2.216)" fill="#fff"/>
    <path id="Trazado_13" data-name="Trazado 13" d="M162.94,12.143l-.373-.124q-1.461-.467-2.206-.793a3.5,3.5,0,0,1-1.211-.839,1.843,1.843,0,0,1-.467-1.29,2.273,2.273,0,0,1,1.026-1.942,4.073,4.073,0,0,1,2.425-.731,4.67,4.67,0,0,1,2.594.778,10.529,10.529,0,0,1,2.379,2.237l.062.094h.093V6.859A10.775,10.775,0,0,0,162.2,5.492a6.039,6.039,0,0,0-3.729,1.119,3.668,3.668,0,0,0-1.493,3.109,2.965,2.965,0,0,0,.591,1.9,4.374,4.374,0,0,0,1.54,1.211,24.5,24.5,0,0,0,2.78,1.089l.125.031.466.156a9.619,9.619,0,0,1,2.7,1.319,2.271,2.271,0,0,1,.838,1.881,2.528,2.528,0,0,1-1.025,2.16,3.894,3.894,0,0,1-2.393.762,4.773,4.773,0,0,1-2.55-.73,10.152,10.152,0,0,1-2.268-1.973,9.108,9.108,0,0,1-.683-.841h-.125v2.891a11.3,11.3,0,0,0,5.5,1.615,6.57,6.57,0,0,0,2.643-.512,4.1,4.1,0,0,0,2.547-3.963,3.5,3.5,0,0,0-1.149-2.8,10.367,10.367,0,0,0-3.575-1.773" transform="translate(63.33 2.216)" fill="#fff"/>
    <path id="Trazado_14" data-name="Trazado 14" d="M170.3,20.145a3.137,3.137,0,0,1-.606-2.081V7.744h4.382V6.752H169.69V2.835h-.467A7.439,7.439,0,0,1,168,5.726a3.991,3.991,0,0,1-2.5,1.429v.589h2.269v10.63a4.286,4.286,0,0,0,.886,2.8,3.042,3.042,0,0,0,2.5,1.088,4.355,4.355,0,0,0,2.363-.683,4.79,4.79,0,0,0,1.709-1.865,5.16,5.16,0,0,1-3.14,1.151,2.21,2.21,0,0,1-1.787-.716" transform="translate(66.767 1.144)" fill="#fff"/>
    <path id="Trazado_15" data-name="Trazado 15" d="M175.283.332a1.554,1.554,0,0,0-1.12.451,1.477,1.477,0,0,0-.466,1.1,1.48,1.48,0,0,0,.466,1.1,1.559,1.559,0,0,0,1.12.449,1.514,1.514,0,0,0,1.086-.449,1.476,1.476,0,0,0,.467-1.1,1.473,1.473,0,0,0-.467-1.1,1.51,1.51,0,0,0-1.086-.451" transform="translate(70.077 0.134)" fill="#fff"/>
    <path id="Trazado_16" data-name="Trazado 16" d="M176.316,18.57a15.433,15.433,0,0,1-.093-1.725V5.625h-2.362v.094l.093.559q.187.84.295,1.679a13.451,13.451,0,0,1,.109,1.74l-.031,7.149a13.1,13.1,0,0,1-.108,1.725q-.109.823-.265,1.694l-.124.559v.094h2.89v-.094l-.124-.559q-.187-.872-.281-1.694" transform="translate(70.131 2.27)" fill="#fff"/>
    <path id="Trazado_17" data-name="Trazado 17" d="M182.127,20.145a3.137,3.137,0,0,1-.606-2.081V7.744H185.9V6.752H181.52V2.835h-.467a7.44,7.44,0,0,1-1.227,2.891,3.991,3.991,0,0,1-2.5,1.429v.589h2.269v10.63a4.286,4.286,0,0,0,.886,2.8,3.042,3.042,0,0,0,2.5,1.088,4.355,4.355,0,0,0,2.363-.683,4.789,4.789,0,0,0,1.709-1.865,5.16,5.16,0,0,1-3.139,1.151,2.21,2.21,0,0,1-1.787-.716" transform="translate(71.54 1.144)" fill="#fff"/>
    <path id="Trazado_18" data-name="Trazado 18" d="M198.054,18.57a13.091,13.091,0,0,1-.109-1.725V5.625h-2.424v.094l.123.559q.187.84.3,1.679a13.458,13.458,0,0,1,.108,1.74v6.745c0,.276,0,.589.008.935a6.475,6.475,0,0,1-4.515,2.328,3.623,3.623,0,0,1-2.626-1.041,4.071,4.071,0,0,1-1.072-3.061V5.625h-2.425v.094l.125.559c.125.56.222,1.12.3,1.679a13.709,13.709,0,0,1,.108,1.74v6.061a5.107,5.107,0,0,0,1.476,4.071,5.265,5.265,0,0,0,3.559,1.274,5.724,5.724,0,0,0,2.921-.793,8.242,8.242,0,0,0,2.173-1.955c0,.065,0,.116,0,.184q.029,1.259.124,2.222v.156h2.269v-.094l-.125-.559c-.125-.581-.222-1.145-.295-1.694" transform="translate(74.806 2.27)" fill="#fff"/>
    <path id="Trazado_19" data-name="Trazado 19" d="M200.637,20.145a3.137,3.137,0,0,1-.606-2.081V7.744h4.382V6.752H200.03V2.835h-.467a7.44,7.44,0,0,1-1.227,2.891,3.991,3.991,0,0,1-2.5,1.429v.589H198.1v10.63a4.286,4.286,0,0,0,.886,2.8,3.042,3.042,0,0,0,2.5,1.088,4.355,4.355,0,0,0,2.363-.683,4.79,4.79,0,0,0,1.709-1.865,5.16,5.16,0,0,1-3.139,1.151,2.21,2.21,0,0,1-1.787-.716" transform="translate(79.008 1.144)" fill="#fff"/>
    <path id="Trazado_20" data-name="Trazado 20" d="M216.416,17.023a8.807,8.807,0,0,1-2.641,2.067,6.312,6.312,0,0,1-2.735.637,5.1,5.1,0,0,1-2.937-.855,5.343,5.343,0,0,1-1.911-2.362,8.576,8.576,0,0,1-.653-3.436c0-.119.017-.225.02-.341h10.858a8.548,8.548,0,0,0-.808-3.838,6.055,6.055,0,0,0-2.222-2.518,5.877,5.877,0,0,0-3.186-.886,6.233,6.233,0,0,0-3.465,1,6.974,6.974,0,0,0-2.441,2.765,8.794,8.794,0,0,0-.9,4.041,8.891,8.891,0,0,0,.916,4.119,6.986,6.986,0,0,0,2.485,2.782,6.674,6.674,0,0,0,6.031.5,6.856,6.856,0,0,0,3.683-3.605Zm-9.65-8.749a3.856,3.856,0,0,1,3.4-1.881,3.5,3.5,0,0,1,2.937,1.4,6.947,6.947,0,0,1,1.2,3.946l-8.7.145a7.91,7.91,0,0,1,1.162-3.61" transform="translate(82.058 2.216)" fill="#fff"/>
    <path id="Trazado_21" data-name="Trazado 21" d="M9.978.416H7.46V3.572H9.978a6.331,6.331,0,0,1,0,12.662H7.46v3.158H9.978a9.488,9.488,0,1,0,0-18.976" transform="translate(3.01 0.168)" fill="#fff"/>
    <path id="Trazado_22" data-name="Trazado 22" d="M3.158,9.425H0a9.5,9.5,0,0,0,9.489,9.487h.981V15.756H9.489A6.338,6.338,0,0,1,3.158,9.425" transform="translate(0 3.803)" fill="#fff"/>
  </g>
</svg>
