<?xml version="1.0" encoding="utf-8"?>
<!-- Generator: Adobe Illustrator 25.2.1, SVG Export Plug-In . SVG Version: 6.00 Build 0)  -->
<svg version="1.1" id="Layer_1" xmlns="http://www.w3.org/2000/svg" xmlns:xlink="http://www.w3.org/1999/xlink" x="0px" y="0px"
	 viewBox="0 0 313 286" style="enable-background:new 0 0 313 286;" xml:space="preserve">
<style type="text/css">
	.st0{opacity:0.9;fill:#F2F2F2;enable-background:new    ;}
	.st1{clip-path:url(#SVGID_2_);}
	.st2{fill:#052D41;}
</style>
<g id="Grupo_516" transform="translate(-149.783 -2632.776)">
	<path id="Trazado_703" class="st0" d="M196.9,2691.7c56.3-57.2,169.5-57.9,222.9,2.2c48.4,54.5,51.1,108.8,4.8,157.1
		c-66.3,69.1-156.5,78.3-217.2,21.4C151.6,2820.2,147.1,2742.3,196.9,2691.7z"/>
	<g id="Grupo_512" transform="translate(263 2792.044)">
		<g>
			<defs>
				<rect id="SVGID_1_" x="-38.1" y="-51.6" width="156.5" height="70.7"/>
			</defs>
			<clipPath id="SVGID_2_">
				<use xlink:href="#SVGID_1_"  style="overflow:visible;"/>
			</clipPath>
			<g id="Grupo_511" class="st1">
				<path id="Trazado_738" class="st2" d="M-6.9-32.5h-0.5v-0.1l0.1-0.4c0.1-0.6,0.2-1.1,0.3-1.6c0.1-0.5,0.1-1.1,0.1-1.6v-11
					c0-0.5,0-1.1-0.1-1.6c-0.1-0.5-0.2-1-0.3-1.6l-0.1-0.4v-0.1h3.4v14.6c0,0.5,0,1.1,0.1,1.6c0.1,0.5,0.2,1,0.3,1.6l0.1,0.4v0.1
					H-6.9z M-4.8-39.6l-0.1-11.2h4.8C1-50.8,2-50.6,3-50.1c0.9,0.5,1.6,1.2,2.1,2c0.5,0.9,0.8,1.8,0.8,2.8c0,1.1-0.3,2.1-0.9,3
					c-0.6,0.9-1.5,1.5-2.4,2c-1.1,0.5-2.2,0.7-3.3,0.7H-4.8z M-1.2-40.6c0.8,0,1.5-0.2,2.2-0.6c0.6-0.4,1.1-1,1.4-1.7
					c0.3-0.7,0.5-1.5,0.5-2.3c0-0.8-0.1-1.5-0.4-2.3c-0.3-0.7-0.7-1.2-1.3-1.7c-0.6-0.4-1.4-0.7-2.1-0.6h-3.5l0.1,9.2L-1.2-40.6z"/>
				<path id="Trazado_739" class="st2" d="M8.1-32.5H7.6v-0.1l0.1-0.4c0.1-0.6,0.2-1.1,0.3-1.6c0.1-0.5,0.1-1.1,0.1-1.6v-5.3
					c0-0.5,0-1.1-0.1-1.6c-0.1-0.5-0.2-1-0.3-1.6l-0.1-0.4v-0.1h3.2v9c0,0.5,0,1.1,0.1,1.6c0.1,0.5,0.2,1.1,0.3,1.6l0.1,0.4v0.1
					C11.3-32.5,8.1-32.5,8.1-32.5z M10.5-42.3c0.3-0.7,0.7-1.4,1.2-1.9c0.5-0.5,1.2-0.9,1.9-1c0.8-0.2,1.6-0.2,2.3,0.1l-0.4,3h-0.1
					c-0.4-0.4-0.9-0.7-1.5-0.9c-0.6-0.2-1.2-0.2-1.7,0c-0.6,0.2-1.2,0.6-1.6,1.1L10.5-42.3z"/>
				<path id="Trazado_740" class="st2" d="M22.2-32.3c-1.1,0-2.1-0.4-3-1.1c-0.9-0.9-1.3-2.1-1.2-3.3v-4.8c0-0.5,0-1.1-0.1-1.6
					c-0.1-0.5-0.2-1-0.3-1.6l-0.1-0.4v-0.1h3.2v8.2c-0.1,0.8,0.2,1.6,0.7,2.2c0.5,0.5,1.2,0.8,1.9,0.7c1.4-0.1,2.6-0.8,3.5-1.8
					l-0.1,0.6c-0.5,0.9-1.2,1.6-2,2.2C23.9-32.5,23.1-32.2,22.2-32.3 M26.7-32.5l0-0.2c-0.1-0.6-0.3-1.2-0.3-1.8
					c-0.1-0.6-0.1-1.2-0.1-1.8v-5.3c0-0.5,0-1.1-0.1-1.6c-0.1-0.5-0.2-1-0.3-1.6l-0.1-0.4v-0.1h3.2v9c0,0.5,0,1.1,0.1,1.6
					c0.1,0.5,0.2,1.1,0.3,1.6l0.1,0.4v0.1L26.7-32.5L26.7-32.5z"/>
				<path id="Trazado_741" class="st2" d="M33.3-47.9c-0.5,0-0.9-0.2-1.3-0.5c-0.4-0.3-0.6-0.8-0.5-1.3c0-0.5,0.2-1,0.5-1.3
					c0.7-0.7,1.9-0.7,2.6,0c0.4,0.3,0.5,0.8,0.5,1.3c0,0.5-0.2,0.9-0.5,1.3C34.2-48.1,33.8-47.9,33.3-47.9 M32.1-32.5h-0.5v-0.1
					l0.1-0.4c0.1-0.5,0.3-1.1,0.3-1.6c0.1-0.5,0.1-1.1,0.1-1.6l0-5.3c0-0.5,0-1.1-0.1-1.6c-0.1-0.5-0.2-1-0.3-1.6l-0.1-0.4v-0.1h3.2
					v9c0,0.5,0,1.1,0.1,1.6c0.1,0.5,0.2,1,0.3,1.6l0.1,0.4v0.1L32.1-32.5L32.1-32.5z"/>
				<path id="Trazado_742" class="st2" d="M38-32.5h-0.5v-0.1l0.1-0.4c0.1-0.6,0.2-1.1,0.3-1.6c0.1-0.5,0.1-1.1,0.1-1.6v-5.3
					c0-0.5,0-1.1-0.1-1.6c-0.1-0.5-0.2-1-0.3-1.6l-0.1-0.4v-0.1h3.2v9c0,0.5,0,1.1,0.1,1.6c0.1,0.5,0.2,1,0.3,1.6l0.1,0.4v0.1
					C41.2-32.5,38-32.5,38-32.5z M45.6-32.5h-0.5v-0.1l0.1-0.4c0.1-0.6,0.2-1.1,0.3-1.6c0.1-0.5,0.1-1.1,0.1-1.6v-4.5
					c0.1-0.8-0.2-1.6-0.8-2.2c-0.5-0.5-1.2-0.7-1.8-0.7c-0.5,0-1.1,0.2-1.5,0.4c-0.6,0.4-1.1,0.8-1.6,1.3l0.1-0.6
					c0.5-0.9,1.2-1.6,2-2.2c0.7-0.5,1.5-0.8,2.4-0.8c1,0,2,0.4,2.8,1.1c0.8,0.9,1.2,2.1,1.1,3.3v4.8c0,0.5,0,1.1,0.1,1.6
					c0.1,0.5,0.2,1,0.3,1.6l0.1,0.4v0.1L45.6-32.5L45.6-32.5z M53.2-32.5h-0.5v-0.1l0.1-0.4c0.1-0.6,0.2-1.1,0.3-1.6
					c0.1-0.5,0.1-1.1,0.1-1.6v-4.5c0.1-0.8-0.2-1.6-0.8-2.2c-0.5-0.5-1.1-0.7-1.8-0.7c-0.5,0-1,0.1-1.5,0.4
					c-0.6,0.4-1.2,0.8-1.6,1.3l0.1-0.6c0.5-0.9,1.2-1.6,2-2.2c0.7-0.5,1.5-0.7,2.4-0.7c1,0,2,0.4,2.8,1.1c0.8,0.9,1.2,2.1,1.1,3.3
					v4.8c0,0.5,0,1.1,0.1,1.6c0.1,0.5,0.2,1,0.3,1.6l0.1,0.4v0.1C56.3-32.5,53.2-32.5,53.2-32.5z"/>
				<path id="Trazado_743" class="st2" d="M58.6-47.4c0-0.6,0-1.1-0.1-1.7c-0.1-0.5-0.2-1-0.3-1.5c-0.1-0.2-0.1-0.3-0.2-0.4l0-0.1
					l0.6-0.1l2.8-0.4v18l-2.7,1.1L58.6-47.4z M64.3-32.3c-0.8,0-1.5-0.2-2.2-0.5c-0.8-0.4-1.4-1-1.9-1.7l0-0.6
					c0.3,0.5,0.8,0.9,1.3,1.1c0.5,0.2,1.1,0.3,1.7,0.3c0.8,0,1.5-0.2,2.1-0.7c0.6-0.5,1-1.2,1.3-1.9c0.3-0.9,0.4-1.8,0.4-2.7
					c0-1.2-0.2-2.4-0.8-3.4c-0.5-0.9-1.4-1.4-2.4-1.4c-1.2,0-3.3,2.2-3.3,2.2l0.1-0.9c0.4-0.9,1-1.6,1.8-2.2c1.6-1,3.5-1,5.1,0
					c0.8,0.5,1.4,1.3,1.8,2.1c0.5,1.1,0.7,2.2,0.7,3.4c0,1.3-0.2,2.5-0.8,3.7c-0.5,0.9-1.2,1.7-2.1,2.3
					C66.2-32.5,65.3-32.3,64.3-32.3"/>
				<path id="Trazado_744" class="st2" d="M77.7-32.3c-1.1,0-2.2-0.3-3.2-0.8c-1-0.5-1.7-1.3-2.3-2.3c-0.6-1.1-0.9-2.3-0.8-3.5
					c0-1.2,0.3-2.4,0.8-3.5c0.5-0.9,1.3-1.7,2.3-2.2c1-0.5,2.1-0.8,3.2-0.8c1.1,0,2.2,0.3,3.2,0.8c1,0.5,1.7,1.3,2.3,2.2
					c0.6,1.1,0.9,2.2,0.9,3.5c0,1.2-0.3,2.4-0.9,3.5c-0.5,1-1.3,1.7-2.3,2.3C79.9-32.5,78.8-32.2,77.7-32.3 M77.7-33.1
					c0.7,0,1.3-0.3,1.8-0.8c0.5-0.6,0.9-1.3,1.2-2c0.3-0.9,0.4-1.9,0.4-2.9c0-1-0.1-1.9-0.4-2.8c-0.2-0.8-0.6-1.4-1.1-2
					c-0.5-0.5-1.1-0.8-1.8-0.8c-0.7,0-1.3,0.3-1.8,0.8c-0.5,0.6-0.9,1.3-1.1,2c-0.3,0.9-0.4,1.9-0.4,2.8c0,1,0.1,1.9,0.4,2.9
					c0.2,0.8,0.6,1.5,1.1,2C76.4-33.4,77-33.1,77.7-33.1"/>
				<path id="Trazado_745" class="st2" d="M91.7-32.3c-1.1,0-2.2-0.3-3.2-0.8c-1-0.5-1.7-1.3-2.3-2.3c-0.6-1.1-0.9-2.3-0.8-3.5
					c0-1.2,0.3-2.4,0.8-3.5c0.5-0.9,1.3-1.7,2.3-2.2c1-0.5,2.1-0.8,3.2-0.8c1.1,0,2.2,0.3,3.2,0.8c1,0.5,1.7,1.3,2.3,2.2
					c0.6,1.1,0.9,2.2,0.9,3.5c0,1.2-0.3,2.4-0.9,3.5c-0.5,1-1.3,1.7-2.3,2.3C93.9-32.5,92.8-32.2,91.7-32.3 M91.7-33.1
					c0.7,0,1.3-0.3,1.8-0.8c0.5-0.6,0.9-1.3,1.2-2c0.3-0.9,0.4-1.9,0.4-2.9c0-1-0.1-1.9-0.4-2.8c-0.2-0.8-0.6-1.4-1.1-2
					c-0.5-0.5-1.1-0.8-1.8-0.8c-0.7,0-1.3,0.3-1.8,0.8c-0.5,0.6-0.9,1.3-1.1,2c-0.3,0.9-0.4,1.9-0.4,2.8c0,1,0.1,1.9,0.4,2.9
					c0.2,0.8,0.6,1.5,1.1,2C90.4-33.4,91-33.1,91.7-33.1"/>
				<path id="Trazado_746" class="st2" d="M100.1-32.5h-0.5v-0.1l0.1-0.4c0.1-0.6,0.2-1.1,0.3-1.6c0.1-0.5,0.1-1.1,0.1-1.6v-5.3
					c0-0.5,0-1.1-0.1-1.6c-0.1-0.5-0.2-1-0.3-1.6l-0.1-0.4v-0.1h3.2v9c0,0.5,0,1.1,0.1,1.6c0.1,0.5,0.2,1,0.3,1.6l0.1,0.4v0.1
					C103.3-32.5,100.1-32.5,100.1-32.5z M107.7-32.5h-0.5v-0.1l0.1-0.4c0.1-0.6,0.2-1.1,0.3-1.6c0.1-0.5,0.1-1.1,0.1-1.6v-4.5
					c0.1-0.8-0.2-1.6-0.8-2.2c-0.5-0.5-1.2-0.7-1.8-0.7c-0.5,0-1.1,0.2-1.5,0.4c-0.6,0.4-1.1,0.8-1.6,1.3l0.1-0.6
					c0.5-0.9,1.2-1.6,2-2.2c0.7-0.5,1.5-0.8,2.4-0.8c1,0,2,0.4,2.8,1.1c0.8,0.9,1.2,2.1,1.1,3.3v4.8c0,0.5,0,1.1,0.1,1.6
					c0.1,0.5,0.2,1,0.3,1.6l0.1,0.4v0.1L107.7-32.5L107.7-32.5z M115.3-32.5h-0.5v-0.1l0.1-0.4c0.1-0.6,0.2-1.1,0.3-1.6
					c0.1-0.5,0.1-1.1,0.1-1.6v-4.5c0.1-0.8-0.2-1.6-0.8-2.2c-0.5-0.5-1.1-0.7-1.8-0.7c-0.5,0-1,0.1-1.5,0.4
					c-0.6,0.4-1.2,0.8-1.6,1.3l0.1-0.6c0.5-0.9,1.2-1.6,2-2.2c0.7-0.5,1.5-0.7,2.4-0.7c1,0,2,0.4,2.8,1.1c0.8,0.9,1.2,2.1,1.1,3.3
					v4.8c0,0.5,0,1.1,0.1,1.6c0.1,0.5,0.2,1,0.3,1.6l0.1,0.4v0.1H115.3L115.3-32.5z"/>
				<path id="Trazado_747" class="st2" d="M-6.4-6.2h-0.4v-0.1l0.1-0.5c0.1-0.5,0.2-0.9,0.2-1.4C-6.4-8.6-6.4-9-6.4-9.5v-11.7
					c0-0.5,0-0.9-0.1-1.4c-0.1-0.4-0.1-0.9-0.2-1.4l-0.1-0.5v-0.1h2.5v0.1L-4.4-24c-0.1,0.5-0.2,0.9-0.2,1.4
					c-0.1,0.5-0.1,0.9-0.1,1.4v11.7c0,0.5,0,0.9,0.1,1.4c0.1,0.5,0.1,0.9,0.2,1.4l0.1,0.5v0.1H-6.4z"/>
				<path id="Trazado_748" class="st2" d="M-1-6.2h-0.4v-0.1l0.1-0.5c0.1-0.5,0.2-0.9,0.2-1.4C-1-8.6-1-9-1-9.5v-5.9
					c0-0.5,0-1-0.1-1.4c-0.1-0.5-0.1-0.9-0.2-1.4l-0.1-0.5v-0.1h2v9.2c0,0.5,0,0.9,0.1,1.4c0.1,0.4,0.1,0.9,0.2,1.4L1-6.3v0.1
					C1-6.2-1-6.2-1-6.2z M7.3-6.2H6.9v-0.1L7-6.7c0.1-0.5,0.2-0.9,0.2-1.4C7.3-8.6,7.3-9,7.3-9.5v-4.8c0.1-0.9-0.2-1.8-0.9-2.5
					c-0.6-0.6-1.4-0.9-2.2-0.9c-1.4,0-2.8,0.8-4.1,2.4l0-0.8c0.6-0.8,1.3-1.6,2.2-2.1c0.7-0.4,1.6-0.7,2.4-0.7
					c2.2-0.1,4,1.5,4.1,3.7c0,0.2,0,0.5,0,0.7v5c0,0.5,0,0.9,0.1,1.4C9-7.7,9.1-7.2,9.2-6.7l0.1,0.5v0.1L7.3-6.2L7.3-6.2z"/>
				<path id="Trazado_749" class="st2" d="M15.9-6c-1.6,0-3.1-0.5-4.5-1.3v-2.4h0.1c0.2,0.2,0.4,0.5,0.6,0.7
					c0.5,0.6,1.2,1.2,1.9,1.6C14.6-7,15.3-6.8,16-6.8c0.7,0,1.4-0.2,2-0.6c0.6-0.4,0.9-1.1,0.8-1.8c0-0.6-0.2-1.2-0.7-1.5
					c-0.7-0.5-1.4-0.8-2.2-1.1l-0.4-0.1l-0.1,0c-0.8-0.3-1.5-0.5-2.3-0.9c-0.5-0.2-0.9-0.6-1.3-1c-0.3-0.4-0.5-1-0.5-1.6
					c0-1,0.4-2,1.2-2.5c0.9-0.6,2-1,3.1-0.9c1.5,0,2.9,0.4,4.2,1.1v2.2h-0.1l-0.1-0.1c-0.6-0.7-1.2-1.3-1.9-1.8
					c-0.6-0.4-1.4-0.6-2.1-0.6c-0.7,0-1.4,0.2-2,0.6c-0.5,0.4-0.9,1-0.8,1.6c0,0.4,0.1,0.8,0.4,1.1c0.3,0.3,0.6,0.5,1,0.7
					c0.4,0.2,1,0.4,1.8,0.7l0.3,0.1c1.1,0.3,2.1,0.8,2.9,1.5c0.6,0.6,1,1.4,0.9,2.3c0.1,1.4-0.8,2.7-2.1,3.2C17.4-6.1,16.7-6,15.9-6
					"/>
				<path id="Trazado_750" class="st2" d="M26-6c-0.8,0-1.5-0.3-2-0.9c-0.5-0.7-0.8-1.5-0.7-2.3v-8.7h-1.9v-0.5
					c0.8-0.1,1.5-0.5,2.1-1.2c0.5-0.7,0.8-1.5,1-2.4h0.4v12.5c0,0.6,0.1,1.2,0.5,1.7c0.4,0.4,0.9,0.6,1.5,0.6c0.9,0,1.8-0.4,2.6-0.9
					c-0.3,0.6-0.8,1.2-1.4,1.5C27.3-6.2,26.7-6,26-6 M23.2-17.9v-0.4l0.6-0.4h4.5v0.8H23.2z"/>
				<path id="Trazado_751" class="st2" d="M32.2-22.3c-0.3,0-0.7-0.1-0.9-0.4c-0.5-0.5-0.5-1.3,0-1.8c0,0,0,0,0,0
					c0.2-0.2,0.6-0.4,0.9-0.4c0.3,0,0.7,0.1,0.9,0.4c0.5,0.5,0.5,1.3,0,1.8c0,0,0,0,0,0C32.8-22.4,32.5-22.3,32.2-22.3 M31.4-6.2H31
					v-0.1l0.1-0.5c0.1-0.5,0.2-0.9,0.2-1.4c0.1-0.5,0.1-0.9,0.1-1.4l0-5.9c0-0.5,0-1-0.1-1.4c-0.1-0.5-0.1-0.9-0.2-1.4l-0.1-0.5
					v-0.1H33v9.2c0,0.5,0,0.9,0.1,1.4c0.1,0.5,0.1,0.9,0.2,1.4l0.1,0.5v0.1C33.4-6.2,31.4-6.2,31.4-6.2z"/>
				<path id="Trazado_752" class="st2" d="M39.8-6c-0.8,0-1.5-0.3-2.1-0.9C37.3-7.6,37-8.4,37-9.2v-8.7h-1.9v-0.5
					c0.8-0.1,1.5-0.5,2.1-1.2c0.5-0.7,0.8-1.5,1-2.4h0.4v12.5c0,0.6,0.1,1.2,0.5,1.7c0.4,0.4,0.9,0.6,1.5,0.6c0.9,0,1.8-0.4,2.6-0.9
					c-0.3,0.6-0.8,1.2-1.4,1.5C41.2-6.2,40.5-6,39.8-6 M37.1-17.9v-0.4l0.6-0.4h4.5v0.8H37.1z"/>
				<path id="Trazado_753" class="st2" d="M49.2-6c-1.1,0-2.1-0.3-2.9-1C45.4-8,44.9-9.2,45-10.4v-5c0-0.5,0-1-0.1-1.4
					c-0.1-0.5-0.1-0.9-0.2-1.4l-0.1-0.5v-0.1h2v8.2c-0.1,0.9,0.3,1.8,0.9,2.5c0.6,0.6,1.3,0.9,2.2,0.9c1.4,0,2.8-0.8,4.2-2.4l0,0.8
					c-0.6,0.9-1.3,1.6-2.2,2.1C50.8-6.3,50-6,49.2-6 M53.4-6.2v-0.1c-0.1-0.5-0.1-1.1-0.1-1.8c0-0.7,0-1.3,0-1.7v-5.5
					c0-0.5,0-1-0.1-1.4c-0.1-0.5-0.1-0.9-0.2-1.4l-0.1-0.5v-0.1h2v9.2c0,0.5,0,0.9,0.1,1.4c0.1,0.4,0.1,0.9,0.2,1.4l0.1,0.5v0.1
					L53.4-6.2L53.4-6.2z"/>
				<path id="Trazado_754" class="st2" d="M61.3-6c-0.8,0-1.5-0.3-2.1-0.9c-0.5-0.7-0.8-1.5-0.7-2.3v-8.7h-1.9v-0.5
					c0.8-0.1,1.5-0.5,2.1-1.2c0.5-0.7,0.8-1.5,1-2.4h0.4v12.5c0,0.6,0.1,1.2,0.5,1.7c0.4,0.4,0.9,0.6,1.5,0.6c0.9,0,1.8-0.4,2.6-0.9
					c-0.3,0.6-0.8,1.2-1.4,1.5C62.7-6.2,62-6,61.3-6 M58.6-17.9v-0.4l0.6-0.4h4.5v0.8H58.6z"/>
				<path id="Trazado_755" class="st2" d="M71.2-6c-1,0-2-0.3-2.9-0.8c-0.9-0.6-1.6-1.3-2-2.3c-0.5-1-0.8-2.2-0.8-3.4
					c0-1.1,0.2-2.3,0.7-3.3c0.5-0.9,1.1-1.7,2-2.3c0.8-0.5,1.8-0.8,2.8-0.8c0.9,0,1.8,0.2,2.6,0.7c0.8,0.5,1.4,1.2,1.8,2.1
					c0.5,1,0.7,2.1,0.7,3.1h-9.4l0.1-0.7l7.6-0.1c0-1.2-0.3-2.3-1-3.2c-0.6-0.8-1.5-1.2-2.4-1.1c-1.1,0-2.2,0.6-2.8,1.5
					c-0.7,1.2-1.1,2.6-1,3.9c0,1,0.2,1.9,0.5,2.8c0.3,0.8,0.9,1.5,1.6,1.9c0.7,0.5,1.6,0.7,2.4,0.7c0.8,0,1.5-0.2,2.2-0.5
					c0.8-0.4,1.6-1,2.2-1.7l0.1,0.1c-0.6,1.3-1.7,2.4-3,3C72.6-6.1,71.9-6,71.2-6"/>
				<rect id="Rectángulo_293" x="-7.3" y="8.3" class="st2" width="1.2" height="10.5"/>
				<path id="Trazado_756" class="st2" d="M-3.6,18.8V8.3h1.6l5.6,9v-9h1.2v10.5H3.1l-5.6-9v9L-3.6,18.8z"/>
				<path id="Trazado_757" class="st2" d="M9.5,18.8V9.4H6.3V8.3H14v1.1h-3.2v9.4H9.5z"/>
				<path id="Trazado_758" class="st2" d="M15.6,18.8V8.3h6.8v1.1h-5.6v3.4h5v1.1h-5v3.8h5.6v1.1L15.6,18.8z"/>
				<path id="Trazado_759" class="st2" d="M28,14.3h-2.4l0,4.5h-1.2V8.3h3.7c0.9,0,1.8,0.2,2.5,0.8c0.7,0.6,1,1.4,0.9,2.2
					c0,0.7-0.2,1.3-0.6,1.8c-0.4,0.5-1,0.8-1.7,1l2.4,4.7h-1.4L28,14.3z M28.1,13.2c0.6,0,1.2-0.1,1.6-0.5c0.8-0.7,0.8-2,0.1-2.8
					c0,0,0,0-0.1-0.1c-0.5-0.4-1.1-0.5-1.7-0.5h-2.5v3.8L28.1,13.2z"/>
				<path id="Trazado_760" class="st2" d="M33.6,18.8V8.3h1.6l5.6,9v-9h1.2v10.5h-1.6l-5.6-9v9L33.6,18.8z"/>
				<path id="Trazado_761" class="st2" d="M51.5,18.8l-1-2.8h-4.7l-1,2.8h-1.3l3.9-10.5h1.5l3.9,10.5H51.5z M46.2,15h3.9l-2-5.5
					L46.2,15z"/>
				<path id="Trazado_762" class="st2" d="M55.5,18.8V9.4h-3.2V8.3h7.7v1.1h-3.2v9.4H55.5z"/>
				<rect id="Rectángulo_294" x="61.6" y="8.3" class="st2" width="1.2" height="10.5"/>
				<path id="Trazado_763" class="st2" d="M72.6,17.8c-1.8,1.7-4.6,1.7-6.4,0c-0.8-0.9-1.3-2.1-1.2-3.3v-2c0-1.2,0.4-2.4,1.2-3.3
					c1.8-1.7,4.6-1.7,6.4,0c0.8,0.9,1.3,2.1,1.2,3.3v2C73.8,15.8,73.4,16.9,72.6,17.8 M69.4,17.9c0.9,0,1.7-0.3,2.3-1
					c0.6-0.7,0.9-1.6,0.9-2.6v-1.6c0-0.9-0.3-1.9-0.9-2.6c-1.2-1.3-3.3-1.3-4.5-0.1c0,0-0.1,0.1-0.1,0.1c-0.6,0.7-0.9,1.6-0.9,2.6
					v1.6c0,0.9,0.3,1.9,0.9,2.6C67.6,17.6,68.5,18,69.4,17.9"/>
				<path id="Trazado_764" class="st2" d="M75.9,18.8V8.3h1.6l5.6,9v-9h1.2v10.5h-1.6l-5.6-9v9L75.9,18.8z"/>
				<path id="Trazado_765" class="st2" d="M93.8,18.8l-1-2.8h-4.7l-1,2.8h-1.3l3.9-10.5h1.5l3.9,10.5H93.8z M88.5,15h3.9l-2-5.5
					L88.5,15z"/>
				<path id="Trazado_766" class="st2" d="M96.7,18.8V8.3H98v9.4h5.4v1.1H96.7z"/>
				<path id="Trazado_767" class="st2" d="M-27.1-35.6h-2.1v-2.7h2.1c2.9,0,5.3-2.4,5.3-5.3h2.7C-19.1-39.2-22.7-35.6-27.1-35.6"/>
				<path id="Trazado_768" class="st2" d="M-19.1-43.6h-2.7c0-2.9-2.4-5.3-5.3-5.3h-2.1v-2.7h2.1C-22.7-51.6-19.1-48-19.1-43.6"/>
				<path id="Trazado_769" class="st2" d="M-29.3-32.9h-0.8c-4.4,0-8-3.6-8-8h2.7c0,2.9,2.4,5.3,5.3,5.3h0.8V-32.9z"/>
			</g>
		</g>
	</g>
</g>
</svg>
