<svg id="Layer_1" data-name="Layer 1" xmlns="http://www.w3.org/2000/svg" xmlns:xlink="http://www.w3.org/1999/xlink" width="313" height="286" viewBox="0 0 313 286">
  <defs>
    <clipPath id="clip-path">
      <rect id="SVGID" x="74.22" y="107.15" width="162.41" height="73.07" style="fill: none"/>
    </clipPath>
  </defs>
  <g>
    <path id="Trazado_78" data-name="Trazado 78" d="M101.82,27.41c55.5-11.74,108.21-5,151.39,33.53,59.37,53,44.17,143.5-28.94,185.63-44.9,25.87-98.51,22-139.57-10C69.09,224.36,55.66,210,43,194.85-15.19,125.34,33.35,40.33,101.82,27.41Z" style="fill: #f2f2f2;opacity: 0.8999999761581421;isolation: isolate"/>
    <g id="Grupo_242" data-name="Grupo 242">
      <g style="clip-path: url(#clip-path)">
        <g id="Grupo_241" data-name="Grupo 241">
          <path id="Trazado_339" data-name="Trazado 339" d="M106.59,127H106v-.08l.11-.42q.21-.9.33-1.68a11.45,11.45,0,0,0,.12-1.65V111.82a11.45,11.45,0,0,0-.12-1.65q-.12-.78-.33-1.68l-.11-.42V108h3.49v15.2a10.11,10.11,0,0,0,.14,1.65c.08.52.2,1.08.34,1.68l.08.42V127Zm2.19-7.37L108.65,108h5a6.67,6.67,0,0,1,3.21.77,5.5,5.5,0,0,1,2.19,2.09,5.69,5.69,0,0,1,.78,2.93,5.19,5.19,0,0,1-.94,3.12,6,6,0,0,1-2.53,2,8.35,8.35,0,0,1-3.48.72Zm3.78-1.06a3.83,3.83,0,0,0,2.25-.66,4.33,4.33,0,0,0,1.45-1.75,5.68,5.68,0,0,0,.5-2.4,5.85,5.85,0,0,0-.46-2.34,4.12,4.12,0,0,0-1.38-1.74,3.68,3.68,0,0,0-2.2-.66h-3.65l.1,9.54Z" style="fill: #052d41"/>
          <path id="Trazado_340" data-name="Trazado 340" d="M122.21,127h-.56v-.08l.11-.42q.21-.9.33-1.68a11.45,11.45,0,0,0,.12-1.65v-5.5a11.48,11.48,0,0,0-.12-1.66c-.08-.52-.19-1.07-.33-1.67l-.11-.43v-.08H125v9.33a11.48,11.48,0,0,0,.12,1.66,16,16,0,0,0,.36,1.67l.08.43V127Zm2.43-10.25a5.51,5.51,0,0,1,1.3-2,4.23,4.23,0,0,1,2-1.08,4.35,4.35,0,0,1,2.4.1l-.42,3.07h-.1a4.19,4.19,0,0,0-1.56-.92,3.31,3.31,0,0,0-1.82,0,3.41,3.41,0,0,0-1.7,1.14Z" style="fill: #052d41"/>
          <path id="Trazado_341" data-name="Trazado 341" d="M136.75,127.23a4.41,4.41,0,0,1-3.06-1.12,4.34,4.34,0,0,1-1.24-3.4v-5a10.21,10.21,0,0,0-.14-1.65c-.09-.52-.2-1.08-.34-1.68l-.1-.42v-.08h3.3v8.53a3,3,0,0,0,.76,2.26,2.69,2.69,0,0,0,2,.76,5.46,5.46,0,0,0,3.62-1.85l-.08.66a7.4,7.4,0,0,1-2.09,2.26,4.66,4.66,0,0,1-2.59.75m4.73-.21,0-.16a16.19,16.19,0,0,1-.34-1.82,14.09,14.09,0,0,1-.14-1.83v-5.52a9.17,9.17,0,0,0-.12-1.65q-.12-.78-.33-1.68l-.1-.42v-.08h3.3v9.33a11.45,11.45,0,0,0,.12,1.65,13.53,13.53,0,0,0,.35,1.68l.08.42V127Z" style="fill: #052d41"/>
          <path id="Trazado_342" data-name="Trazado 342" d="M148.3,111a1.87,1.87,0,0,1-1.34-.54,1.82,1.82,0,0,1,0-2.64,1.94,1.94,0,0,1,2.7,0,1.79,1.79,0,0,1,.55,1.33,1.73,1.73,0,0,1-.57,1.31,1.83,1.83,0,0,1-1.33.54m-1.25,16h-.55v-.08l.08-.42a16.21,16.21,0,0,0,.36-1.68,10.17,10.17,0,0,0,.11-1.65l0-5.5A10,10,0,0,0,147,116c-.09-.52-.2-1.08-.35-1.68l-.1-.43v-.07h3.28v9.33a10.19,10.19,0,0,0,.13,1.65c.09.52.21,1.08.35,1.68l.08.42V127Z" style="fill: #052d41"/>
          <path id="Trazado_343" data-name="Trazado 343" d="M153.18,127h-.56v-.08l.11-.42q.21-.9.33-1.68a11.45,11.45,0,0,0,.12-1.65v-5.5a11.35,11.35,0,0,0-.12-1.65q-.12-.78-.33-1.68l-.11-.42v-.08h3.28v9.33a10.19,10.19,0,0,0,.13,1.65c.09.52.21,1.08.35,1.68l.08.42V127Zm7.9,0h-.56v-.08l.11-.42q.21-.9.33-1.68a11.45,11.45,0,0,0,.12-1.65v-4.65a3,3,0,0,0-.78-2.24,2.65,2.65,0,0,0-1.92-.75,3.14,3.14,0,0,0-1.58.45,6.76,6.76,0,0,0-1.64,1.37l.05-.61a8.12,8.12,0,0,1,2-2.28,4.23,4.23,0,0,1,2.5-.78,4,4,0,0,1,2.88,1.11,4.47,4.47,0,0,1,1.16,3.38v5a10.21,10.21,0,0,0,.14,1.65c.08.52.2,1.08.34,1.68l.08.42V127Zm7.84,0h-.55v-.08l.08-.42c.14-.6.25-1.16.34-1.68a9.18,9.18,0,0,0,.13-1.65v-4.65a3,3,0,0,0-.77-2.24,2.68,2.68,0,0,0-1.89-.75,3,3,0,0,0-1.55.44,8.64,8.64,0,0,0-1.7,1.38l.05-.63a7.68,7.68,0,0,1,2.05-2.27,4.2,4.2,0,0,1,2.47-.77,4,4,0,0,1,2.89,1.11,4.44,4.44,0,0,1,1.18,3.38v5a11.45,11.45,0,0,0,.12,1.65q.12.78.33,1.68l.1.42V127h-3.28Z" style="fill: #052d41"/>
          <path id="Trazado_344" data-name="Trazado 344" d="M174.5,111.56a9.91,9.91,0,0,0-.15-1.72,12.2,12.2,0,0,0-.36-1.53c-.07-.2-.12-.33-.15-.4l0-.08.58-.07,2.88-.4V126l-2.77,1.14Zm5.94,15.64a5.42,5.42,0,0,1-2.28-.51,5.07,5.07,0,0,1-2-1.73l0-.66a3.14,3.14,0,0,0,1.39,1.13,4.49,4.49,0,0,0,1.73.35,3.37,3.37,0,0,0,2.22-.76,4.54,4.54,0,0,0,1.35-2,8.22,8.22,0,0,0,.45-2.78,6.75,6.75,0,0,0-.85-3.52,2.71,2.71,0,0,0-2.46-1.4c-1.28,0-2.43.78-3.46,2.33l.11-.93a5.11,5.11,0,0,1,1.84-2.25,4.92,4.92,0,0,1,5.27,0,5.38,5.38,0,0,1,1.85,2.24,9.42,9.42,0,0,1-.12,7.36,5.71,5.71,0,0,1-2.14,2.35,5.55,5.55,0,0,1-2.92.79" style="fill: #052d41"/>
          <path id="Trazado_345" data-name="Trazado 345" d="M194.4,127.23a6.75,6.75,0,0,1-3.29-.82,5.89,5.89,0,0,1-2.35-2.37,8,8,0,0,1,0-7.24,5.75,5.75,0,0,1,2.35-2.31,6.84,6.84,0,0,1,3.29-.8,6.92,6.92,0,0,1,3.3.81,6,6,0,0,1,2.36,2.33,7,7,0,0,1,.89,3.58,7.18,7.18,0,0,1-.89,3.63,6.07,6.07,0,0,1-2.37,2.37,6.79,6.79,0,0,1-3.3.82m0-.93a2.58,2.58,0,0,0,1.89-.8,4.94,4.94,0,0,0,1.2-2.12,10,10,0,0,0,.4-3,9.8,9.8,0,0,0-.4-2.94,4.69,4.69,0,0,0-1.19-2.07,2.6,2.6,0,0,0-1.9-.78,2.52,2.52,0,0,0-1.86.78,4.91,4.91,0,0,0-1.17,2.07,9.8,9.8,0,0,0-.4,2.94,10,10,0,0,0,.4,3,5.09,5.09,0,0,0,1.17,2.12,2.49,2.49,0,0,0,1.86.8" style="fill: #052d41"/>
          <path id="Trazado_346" data-name="Trazado 346" d="M208.88,127.23a6.75,6.75,0,0,1-3.29-.82,5.89,5.89,0,0,1-2.35-2.37,7.26,7.26,0,0,1-.86-3.63,7.11,7.11,0,0,1,.86-3.61,5.69,5.69,0,0,1,2.35-2.31,6.84,6.84,0,0,1,3.29-.8,6.92,6.92,0,0,1,3.3.81,6,6,0,0,1,2.36,2.33,7,7,0,0,1,.89,3.58,7.18,7.18,0,0,1-.89,3.63,6,6,0,0,1-2.38,2.37,6.75,6.75,0,0,1-3.29.82m0-.93a2.58,2.58,0,0,0,1.89-.8,5,5,0,0,0,1.2-2.12,10,10,0,0,0,.4-3,10.13,10.13,0,0,0-.4-2.94,4.69,4.69,0,0,0-1.19-2.07,2.6,2.6,0,0,0-1.9-.78,2.52,2.52,0,0,0-1.86.78,4.93,4.93,0,0,0-1.18,2.07,10.48,10.48,0,0,0-.4,2.94,10.69,10.69,0,0,0,.4,3A5.11,5.11,0,0,0,207,125.5a2.49,2.49,0,0,0,1.86.8" style="fill: #052d41"/>
          <path id="Trazado_347" data-name="Trazado 347" d="M217.6,127h-.55v-.08l.1-.42q.21-.9.33-1.68a9.17,9.17,0,0,0,.12-1.65v-5.5a9.21,9.21,0,0,0-.12-1.66c-.08-.52-.19-1.07-.33-1.67l-.1-.43v-.08h3.27v9.34a10.21,10.21,0,0,0,.14,1.65c.09.52.2,1.08.34,1.68l.08.42V127Zm7.9,0H225v-.08l.1-.42q.21-.9.33-1.68a11.45,11.45,0,0,0,.12-1.65v-4.65a3,3,0,0,0-.78-2.24,2.62,2.62,0,0,0-1.91-.75,3.18,3.18,0,0,0-1.59.45,7,7,0,0,0-1.64,1.37l.06-.61a7.93,7.93,0,0,1,2-2.28,4.23,4.23,0,0,1,2.5-.78,4,4,0,0,1,2.88,1.11,4.44,4.44,0,0,1,1.17,3.38v5a10.19,10.19,0,0,0,.13,1.65c.09.52.2,1.08.34,1.68l.08.42V127H225.5Zm7.85,0h-.55v-.08l.08-.42c.14-.6.25-1.16.34-1.68a10.19,10.19,0,0,0,.13-1.65v-4.65a3,3,0,0,0-.78-2.24,2.64,2.64,0,0,0-1.89-.75,2.9,2.9,0,0,0-1.54.44,8.09,8.09,0,0,0-1.7,1.38l.05-.63a7.68,7.68,0,0,1,2-2.27,4.18,4.18,0,0,1,2.47-.77,4,4,0,0,1,2.89,1.11,4.44,4.44,0,0,1,1.18,3.38v5a11.45,11.45,0,0,0,.12,1.65q.12.78.33,1.68l.1.42V127Z" style="fill: #052d41"/>
          <path id="Trazado_348" data-name="Trazado 348" d="M107.12,154.28h-.42v-.08l.1-.47c.08-.5.16-1,.22-1.44a10.36,10.36,0,0,0,.09-1.47v-12.1a10.36,10.36,0,0,0-.09-1.47c-.06-.46-.14-.94-.22-1.44l-.1-.47v-.08h2.59v.08l-.11.47c-.1.49-.19,1-.25,1.44a12.08,12.08,0,0,0-.09,1.47v12.1a12.08,12.08,0,0,0,.09,1.47c.06.46.14.94.25,1.44l.11.47v.08Z" style="fill: #052d41"/>
          <path id="Trazado_349" data-name="Trazado 349" d="M112.76,154.28h-.45v-.08l.1-.47c.11-.5.19-1,.25-1.44a10.37,10.37,0,0,0,.1-1.47v-6.08a10.52,10.52,0,0,0-.1-1.48,14.27,14.27,0,0,0-.25-1.43l-.1-.47v-.08h2.06v9.54a12.08,12.08,0,0,0,.09,1.47c.06.47.15,1,.25,1.44l.11.47v.08Zm8.58,0h-.42v-.08l.08-.47c.11-.5.19-1,.25-1.44a9.07,9.07,0,0,0,.09-1.47v-5a3.5,3.5,0,0,0-.9-2.63,3.09,3.09,0,0,0-2.24-.88c-1.43,0-2.85.84-4.28,2.51l0-.82a8.06,8.06,0,0,1,2.28-2.19,4.83,4.83,0,0,1,2.48-.69,4.05,4.05,0,0,1,4.28,3.82,4.48,4.48,0,0,1,0,.73v5.15a9.07,9.07,0,0,0,.09,1.47c.06.46.14.94.25,1.44l.1.47v.08Z" style="fill: #052d41"/>
          <path id="Trazado_350" data-name="Trazado 350" d="M130.29,154.47a9.69,9.69,0,0,1-4.68-1.38v-2.46h.11a7.94,7.94,0,0,0,.58.72,8.83,8.83,0,0,0,1.93,1.68,4.14,4.14,0,0,0,2.17.62,3.37,3.37,0,0,0,2-.65,2.15,2.15,0,0,0,.87-1.84,1.92,1.92,0,0,0-.71-1.6,8.18,8.18,0,0,0-2.3-1.12l-.4-.13-.1,0a20.08,20.08,0,0,1-2.37-.93,3.72,3.72,0,0,1-1.3-1,2.45,2.45,0,0,1-.5-1.61,3.12,3.12,0,0,1,1.26-2.64,5.15,5.15,0,0,1,3.17-.95,9.17,9.17,0,0,1,4.31,1.16v2.27h-.08l-.05-.08a9.34,9.34,0,0,0-2-1.9,4.06,4.06,0,0,0-2.21-.66,3.5,3.5,0,0,0-2.06.62,1.92,1.92,0,0,0-.87,1.66,1.55,1.55,0,0,0,.4,1.1,2.93,2.93,0,0,0,1,.71,17.75,17.75,0,0,0,1.87.67l.32.11a8.76,8.76,0,0,1,3,1.51,3,3,0,0,1,1,2.37,3.48,3.48,0,0,1-2.17,3.37,5.57,5.57,0,0,1-2.25.44" style="fill: #052d41"/>
          <path id="Trazado_351" data-name="Trazado 351" d="M140.7,154.47a2.58,2.58,0,0,1-2.12-.93,3.65,3.65,0,0,1-.76-2.38v-9h-1.93v-.5a3.37,3.37,0,0,0,2.13-1.21,6.33,6.33,0,0,0,1-2.46h.4v13a2.62,2.62,0,0,0,.51,1.77,1.87,1.87,0,0,0,1.52.61,4.42,4.42,0,0,0,2.67-1,4.11,4.11,0,0,1-1.45,1.59,3.76,3.76,0,0,1-2,.58m-2.86-12.35v-.45l.64-.4h4.7v.85Z" style="fill: #052d41"/>
          <path id="Trazado_352" data-name="Trazado 352" d="M147.14,137.61a1.37,1.37,0,0,1-.95-.39,1.32,1.32,0,0,1,0-1.85l0,0a1.37,1.37,0,0,1,.95-.39,1.33,1.33,0,0,1,1,2.23l0,0a1.29,1.29,0,0,1-.93.39m-.76,16.67H146v-.08l.1-.47c.08-.5.16-1,.22-1.44a12.08,12.08,0,0,0,.09-1.47l0-6.08a12.25,12.25,0,0,0-.09-1.48,14.27,14.27,0,0,0-.25-1.43l-.08-.47v-.08h2v9.54a14.13,14.13,0,0,0,.08,1.46,12.72,12.72,0,0,0,.24,1.44l.1.48v.08Z" style="fill: #052d41"/>
          <path id="Trazado_353" data-name="Trazado 353" d="M155.05,154.47a2.62,2.62,0,0,1-2.13-.93,3.69,3.69,0,0,1-.75-2.37v-9h-1.93v-.5a3.37,3.37,0,0,0,2.13-1.21,6.4,6.4,0,0,0,1-2.46h.4v13a2.67,2.67,0,0,0,.51,1.77,1.9,1.9,0,0,0,1.52.61,4.38,4.38,0,0,0,2.67-1,3.94,3.94,0,0,1-1.45,1.58,3.69,3.69,0,0,1-2,.59m-2.86-12.35v-.45l.63-.4h4.7v.85Z" style="fill: #052d41"/>
          <path id="Trazado_354" data-name="Trazado 354" d="M164.74,154.44a4.47,4.47,0,0,1-3-1.08,4.38,4.38,0,0,1-1.26-3.47v-5.15a12.12,12.12,0,0,0-.09-1.48c-.06-.48-.15-.95-.25-1.43l-.11-.47v-.08h2.07v8.48a3.45,3.45,0,0,0,.91,2.6,3.05,3.05,0,0,0,2.23.89c1.43,0,2.86-.83,4.31-2.49l0,.79a7.59,7.59,0,0,1-2.27,2.21,4.83,4.83,0,0,1-2.49.68m4.44-.16v-.13c-.05-.55-.08-1.18-.1-1.89s0-1.31,0-1.79v-5.73a12.12,12.12,0,0,0-.09-1.48c-.06-.48-.15-.95-.25-1.43l-.11-.47v-.08h2.06v9.54a10.37,10.37,0,0,0,.1,1.47c.06.46.14.94.25,1.44l.1.47v.08Z" style="fill: #052d41"/>
          <path id="Trazado_355" data-name="Trazado 355" d="M177.37,154.47a2.6,2.6,0,0,1-2.13-.93,3.64,3.64,0,0,1-.75-2.38v-9h-1.93v-.5a3.4,3.4,0,0,0,2.13-1.21,6.32,6.32,0,0,0,1-2.46h.4v13a2.68,2.68,0,0,0,.52,1.77,1.85,1.85,0,0,0,1.52.61,4.42,4.42,0,0,0,2.67-1,4.14,4.14,0,0,1-1.46,1.59,3.76,3.76,0,0,1-2,.58m-2.85-12.35v-.45l.63-.4h4.7v.85Z" style="fill: #052d41"/>
          <path id="Trazado_356" data-name="Trazado 356" d="M187.59,154.47a5.48,5.48,0,0,1-3-.85,5.91,5.91,0,0,1-2.12-2.37,7.66,7.66,0,0,1-.78-3.5,7.42,7.42,0,0,1,.77-3.43,5.88,5.88,0,0,1,2.07-2.35,5.33,5.33,0,0,1,2.95-.85,5.06,5.06,0,0,1,2.71.75,5.28,5.28,0,0,1,1.89,2.14,7.4,7.4,0,0,1,.69,3.27H183l0-.72,7.93-.13a5.9,5.9,0,0,0-1-3.35,3,3,0,0,0-2.5-1.19,3.26,3.26,0,0,0-2.89,1.6,8.21,8.21,0,0,0-.49,7,4.55,4.55,0,0,0,1.62,2,4.37,4.37,0,0,0,2.5.73,5.46,5.46,0,0,0,2.32-.55,7.42,7.42,0,0,0,2.25-1.76l.08.06a5.86,5.86,0,0,1-3.13,3.06,5.4,5.4,0,0,1-2.13.42" style="fill: #052d41"/>
          <rect id="Rectángulo_173" data-name="Rectángulo 173" x="106.19" y="169.33" width="1.26" height="10.9" style="fill: #052d41"/>
          <path id="Trazado_357" data-name="Trazado 357" d="M112.49,180.22v-9.74h-3.35v-1.15h8v1.15h-3.34v9.74Z" style="fill: #052d41"/>
          <path id="Trazado_358" data-name="Trazado 358" d="M124.79,180.22l-1-2.86h-4.85l-1,2.86h-1.35l4-10.89h1.54l4,10.89Zm-5.49-3.92h4.09l-2-5.74Z" style="fill: #052d41"/>
          <path id="Trazado_359" data-name="Trazado 359" d="M127.82,180.22V169.33h1.26v9.74h5.62v1.15Z" style="fill: #052d41"/>
          <path id="Trazado_360" data-name="Trazado 360" d="M137.62,180.22v-4.08L134,169.33h1.4l2.86,5.58,2.85-5.58h1.4l-3.62,6.81v4.08Z" style="fill: #052d41"/>
          <path id="Trazado_361" data-name="Trazado 361" d="M85.59,123.77h-2.2V121h2.2a5.55,5.55,0,0,0,5.55-5.54H93.9a8.32,8.32,0,0,1-8.31,8.31" style="fill: #052d41"/>
          <path id="Trazado_362" data-name="Trazado 362" d="M93.9,115.46H91.14a5.57,5.57,0,0,0-5.55-5.55h-2.2v-2.76h2.2a8.31,8.31,0,0,1,8.31,8.31" style="fill: #052d41"/>
          <path id="Trazado_363" data-name="Trazado 363" d="M83.39,126.53h-.86a8.32,8.32,0,0,1-8.31-8.31H77a5.55,5.55,0,0,0,5.55,5.54h.86Z" style="fill: #052d41"/>
        </g>
      </g>
    </g>
  </g>
</svg>
