<svg id="Layer_1" data-name="Layer 1" xmlns="http://www.w3.org/2000/svg" width="313" height="286" viewBox="0 0 313 286">
  <g id="Grupo_517" data-name="Grupo 517">
    <path id="Trazado_45" data-name="Trazado 45" d="M136.2,21.52c81.36-.59,163.09,70.74,158.27,142.73C290.1,229.55,253,265.62,185.24,266.88,88.1,268.68,16.84,217.3,14.08,142.72,11.55,74.3,64.21,22,136.2,21.52Z" style="fill: #f2f2f2"/>
    <g id="Pay_Off_Espana" data-name="Pay Off Espana">
      <path id="Trazado_241" data-name="Trazado 241" d="M91.25,130.13l-5-5-5.36,1.44.87-3.25-3.42-3.42-4.67,1.25-1.26,4.67,3.43,3.43,3.25-.88-1.44,5.36,5,5,6.79-1.82Zm-15-2.29-2.36-2.37.86-3.24,3.24-.87,2.37,2.37L79.5,127l-3.24.87ZM83,137.29l-3.91-3.91L80.55,128l5.35-1.43,3.91,3.91-1.43,5.35Zm17.32-18.53-1,3.67-3.67,1L93,120.73l1-3.67,3.67-1,2.69,2.69m1.43-.38L98,114.64,92.93,116l-1.36,5.1,3.74,3.74,5.1-1.37,1.37-5.1Z" style="fill: #a47328"/>
      <path id="Trazado_242" style="fill: #231f20"  data-name="Trazado 242" d="M101.3,147.38v6.27H98.07V132.24c8-1.69,13.3,1.66,13.3,7.16C111.38,144.62,106.86,147.69,101.3,147.38Zm0-2.88c4.42.36,6.76-2,6.76-5.1,0-2.83-2.43-5.23-6.76-4.55Zm29.1-12.42v21.57h-3.14V148l-9.5-9.16.12,14.82h-3.13V132l.49-.13,12,12V132.09Zm4.91.86,3.23-.86v21.57h-3.23Zm27.53,18.76v1.93H151V132.08h11.36V134h-9.06v6.32h7.31v1.93h-7.31v9.43Zm10.53-8.17a6.84,6.84,0,0,0-3.34-.86c-1.23,0-2.58.52-2.58,1.84,0,1.1,1.23,1.57,2.7,2,2.73.55,4.51,1.84,4.51,4,0,2.54-2.36,3.59-4.82,3.59a8.06,8.06,0,0,1-4.48-1.23l.83-1.63a7.13,7.13,0,0,0,3.56,1.08c1.26,0,3-.46,3-1.78,0-1.05-1.1-1.66-3-2.15-2.83-.68-4.18-1.94-4.18-3.84,0-2.24,2-3.56,4.48-3.56a9.16,9.16,0,0,1,4,.89Zm17.07,3.79a6.22,6.22,0,0,1-5.9,6.51h-.42a5.35,5.35,0,0,1-4.73-2.45V161l-2.12.56V141.16h1.17c.3.7.58,1.47.89,2.18a5.67,5.67,0,0,1,4.79-2.58,6.24,6.24,0,0,1,6.33,6.15c0,.14,0,.28,0,.41Zm-11-.12v.4a4.33,4.33,0,0,0,4.15,4.51h.27a4.53,4.53,0,0,0,4.46-4.59c0-.07,0-.13,0-.2,0-2.77-1.84-4.82-4.42-4.82a4.46,4.46,0,0,0-4.46,4.45,1.93,1.93,0,0,0,0,.24Zm24.37,6.43h-1.23l-.74-1.75a5.05,5.05,0,0,1-4.57,2.15c-3.1,0-5-1.87-5-4.11s1.93-4.24,5-4.24a6.66,6.66,0,0,1,4.45,1.75v-.86a3.55,3.55,0,0,0-3.27-3.8H198a6.47,6.47,0,0,0-3.44,1.08l-.83-1.54a8.07,8.07,0,0,1,4.52-1.35c2.88,0,5.37,1.78,5.52,5.71v7ZM201.7,149a5.61,5.61,0,0,0-4.14-1.72c-2,0-3.2,1.23-3.2,2.58s1.26,2.61,3.23,2.61a4.26,4.26,0,0,0,4.11-3.31V149Zm7.16-5.86a5.38,5.38,0,0,1,4.32-2.18,5.12,5.12,0,0,1,5.32,4.91,4,4,0,0,1,0,.49v7.3h-2.18v-7.11a3.54,3.54,0,0,0-3.31-3.77h-.31a3.75,3.75,0,0,0-3.74,3.74V153l-2.15.57V141.32H208l.86,1.78Zm0-4.7a2.16,2.16,0,0,1,2-2.33h.26c1.23,0,2.27.86,3.19.86a1.3,1.3,0,0,0,1.29-.74l1.07.37a2.28,2.28,0,0,1-2.22,2.36h-.11c-1.13,0-2.3-.86-3.13-.86a1.2,1.2,0,0,0-1.29.77Zm23.45,15.22h-1.23l-.74-1.75A5.05,5.05,0,0,1,225.8,154c-3.1,0-5-1.87-5-4.11s1.93-4.24,5-4.24a6.7,6.7,0,0,1,4.45,1.75v-.86a3.55,3.55,0,0,0-3.27-3.8h-.41a6.46,6.46,0,0,0-3.44,1.07l-.83-1.54a8.07,8.07,0,0,1,4.52-1.35c2.88,0,5.37,1.78,5.52,5.71v7ZM230.25,149a5.61,5.61,0,0,0-4.14-1.72c-2,0-3.2,1.23-3.2,2.58s1.26,2.61,3.23,2.61a4.26,4.26,0,0,0,4.11-3.31V149ZM98.07,160.86c1.3-.21,3.36-.2,3.36,1.62a1.66,1.66,0,0,1-.8,1.43,2,2,0,0,1,1.74,2c0,2.21-2.38,2.35-4.29,2.1Zm.47,3h1A1.39,1.39,0,0,0,101,162.5v0c0-1.35-1.61-1.4-2.44-1.26Zm0,3.76c1.52.23,3.36-.1,3.36-1.69a1.72,1.72,0,0,0-1.74-1.71H98.54ZM106.8,164l-3.18,6.61h-.42l-.06-.1,1.4-2.75L102.82,164h.47l1.51,3.27,1.55-3.27Zm3.11-3.14c4.57-.64,5.51,2.11,5.51,3.61s-1.08,4.2-5.51,3.55Zm.47,6.81c2.58.33,4.53-1,4.53-3.2,0-1.84-1.38-3.64-4.53-3.22Zm5.91-3.67h.23l.18.49a1.14,1.14,0,0,1,1-.61,1.29,1.29,0,0,1,.54.12l-.09.37h-.06a.89.89,0,0,0-.45-.12,1,1,0,0,0-1,.73v3h-.42Zm2.6,3.08a.52.52,0,0,1,.53.51v0a.51.51,0,0,1-.51.51h0a.49.49,0,0,1-.51-.47v0a.5.5,0,0,1,.47-.53Zm7.35.94h-3.4v-7.15h.46v6.78h2.94V168Zm.89-2.18a1.79,1.79,0,0,0,1.62,1.95,1.77,1.77,0,0,0,.23,0,2.45,2.45,0,0,0,1.41-.41l.19.31a2.56,2.56,0,0,1-1.63.45,2.11,2.11,0,0,1-2.25-2c0-.07,0-.13,0-.19a2,2,0,0,1,1.86-2.11h.13a1.85,1.85,0,0,1,1.87,1.84v.12Zm2.93-.37a1.34,1.34,0,0,0-1.38-1.24,1.52,1.52,0,0,0-1.47,1.24Zm1.08.53a2.1,2.1,0,1,1,2.09,2.14,2,2,0,0,1-2.09-2V166Zm3.78,0a1.69,1.69,0,0,0-1.62-1.77h-.07a1.69,1.69,0,0,0-1.68,1.67s0,.07,0,.11a1.72,1.72,0,0,0,1.65,1.79h0a1.7,1.7,0,0,0,1.68-1.72.17.17,0,0,1,0-.07Zm4.1-.33V168h-.46V160.9c2.17-.49,3.83.46,3.83,2.23s-1.51,2.75-3.37,2.55Zm0-.43c1.78.19,2.91-.71,2.91-2.12s-1.16-2.2-2.91-1.9Zm4-1.24h.23l.19.49a1.11,1.11,0,0,1,1-.61,1.25,1.25,0,0,1,.54.12l-.09.37h-.05a.93.93,0,0,0-.46-.12,1,1,0,0,0-1,.73v3h-.42v-4Zm5.92,3.35a1.79,1.79,0,0,1-3.27-1V164h.43v2.33a1.35,1.35,0,0,0,1.26,1.44h.14a1.46,1.46,0,0,0,1.45-1.44V164h.41v4h-.24l-.18-.67Zm1.92-5.4a.43.43,0,0,1,.44.43h0a.44.44,0,0,1-.44.44.44.44,0,0,1,0-.87Zm-.2,2.05h.42v4h-.42Zm2.13.59a1.22,1.22,0,0,1,1.15-.7,1.37,1.37,0,0,1,1.37.88,1.35,1.35,0,0,1,1.31-.88,1.45,1.45,0,0,1,1.51,1.39,1.77,1.77,0,0,1,0,.23V168h-.42v-2.52a1.08,1.08,0,0,0-.92-1.24l-.2,0a1.17,1.17,0,0,0-1.13,1.21V168h-.43v-2.52a1.08,1.08,0,0,0-.92-1.24l-.2,0a1.15,1.15,0,0,0-1.13,1.16.34.34,0,0,0,0,.1V168h-.42v-4h.23Zm6.77,2.62-.19.81h-.23v-7.16l.38-.12h0v4.07a2,2,0,0,1,1.7-.93,2.13,2.13,0,0,1,0,4.26,2,2,0,0,1-1.7-.93ZM163,166a1.7,1.7,0,0,0-1.61-1.78h-.07a1.63,1.63,0,0,0-1.69,1.58.22.22,0,0,0,0,.08v.16a1.69,1.69,0,1,0,3.38.12V166Zm1,0a2.1,2.1,0,1,1,2.09,2.14,2,2,0,0,1-2.1-2V166Zm3.78,0a1.69,1.69,0,0,0-1.62-1.77H166a1.68,1.68,0,0,0-1.68,1.67.34.34,0,0,0,0,.1,1.73,1.73,0,0,0,1.65,1.8h0a1.7,1.7,0,0,0,1.67-1.73V166Zm1,0a2.1,2.1,0,1,1,2.09,2.14,2,2,0,0,1-2.09-2Zm3.78,0a1.69,1.69,0,0,0-1.62-1.77h-.07a1.68,1.68,0,0,0-1.68,1.67.31.31,0,0,0,0,.1,1.73,1.73,0,0,0,1.65,1.8h0a1.7,1.7,0,0,0,1.67-1.73V166Zm1.56-1.41a1.24,1.24,0,0,1,1.15-.7,1.36,1.36,0,0,1,1.37.88,1.34,1.34,0,0,1,1.31-.88,1.45,1.45,0,0,1,1.51,1.39.89.89,0,0,1,0,.23V168H179v-2.52a1.09,1.09,0,0,0-.92-1.24l-.21,0a1.17,1.17,0,0,0-1.13,1.21V168h-.42v-2.52a1.08,1.08,0,0,0-.92-1.24l-.2,0a1.15,1.15,0,0,0-1.13,1.16s0,.07,0,.1V168h-.42v-4h.23Z"/>
    </g>
  </g>
</svg>
